<?xml version="1.0" standalone="no"?>
<!DOCTYPE svg PUBLIC "-//W3C//DTD SVG 1.1//EN" "http://www.w3.org/Graphics/SVG/1.1/DTD/svg11.dtd" >
<svg>
<metadata>
Created by FontForge 20090914 at Thu Feb 23 13:39:31 2017
 By www-data
Copyright &#194;&#169; 1989, 1995, 2002 Adobe Systems Incorporated.  All Rights Reserved. &#194;&#169; 1981, 1995, 2002 Heidelberger Druckmaschinen AG. All rights reserved.
</metadata>
<defs>
<font id="AvenirLTStd-HeavyOblique" horiz-adv-x="260" >
  <font-face 
    font-family="Avenir LT Std 55 Roman"
    font-weight="700"
    font-style="oblique"
    font-stretch="normal"
    units-per-em="1000"
    panose-1="2 11 7 3 2 2 3 2 2 4"
    ascent="756"
    descent="-244"
    x-height="480"
    cap-height="708"
    bbox="-165 -276 1184.84 938.999"
    underline-thickness="50"
    underline-position="-50"
    slope="-8"
    unicode-range="U+0020-U+FB02"
  />
<missing-glyph horiz-adv-x="598" 
d="M98 0v700h500v-700h-500zM348 395l170 255h-340zM378 350l170 -255v510zM178 50h340l-170 255zM148 605v-510l170 255z" />
    <glyph glyph-name="fi" unicode="fi" horiz-adv-x="593" 
d="M111 0l53 377.999h-99l14 102h99l10 68c10.667 74 31 129.167 61 165.5s79.667 54.5 149 54.5c27.333 0 52.333 -2.33301 75 -7l-22 -102c-20 4.66699 -36.333 7 -49 7c-30.667 0 -52.5 -8.66699 -65.5 -26s-21.5 -41.666 -25.5 -72.999l-13 -87h111l-14 -102h-111
l-53 -378h-120zM420 -0.000976562l67 480h120l-67 -480h-120zM494 642.999c3.33301 19.333 13.168 36.1699 29.501 50.5029s35.166 21.5 56.499 21.5c22 0 39.5 -6.83301 52.5 -20.5s18.167 -30.834 15.5 -51.501s-12.5 -37.834 -29.5 -51.501s-36.5 -20.5 -58.5 -20.5
c-21.333 0 -38.333 7.16699 -51 21.5s-17.667 31.166 -15 50.499z" />
    <glyph glyph-name="fl" unicode="fl" horiz-adv-x="593" 
d="M111 0l53 377.999h-99l14 102h99l10 68c10.667 74 31 129.167 61 165.5s79.667 54.5 149 54.5c27.333 0 52.333 -2.33301 75 -7l-22 -102c-20 4.66699 -36.333 7 -49 7c-30.667 0 -52.5 -8.66699 -65.5 -26s-21.5 -41.666 -25.5 -72.999l-13 -87h111l-14 -102h-111
l-53 -378h-120zM420 -0.000976562l106 756h120l-106 -756h-120z" />
    <glyph glyph-name=".notdef" horiz-adv-x="598" 
d="M98 0v700h500v-700h-500zM348 395l170 255h-340zM378 350l170 -255v510zM178 50h340l-170 255zM148 605v-510l170 255z" />
    <glyph glyph-name="space" unicode=" " horiz-adv-x="296" 
 />
    <glyph glyph-name="exclam" unicode="!" horiz-adv-x="296" 
d="M308 708l-69 -486h-120l69 486h120zM78 70c2.66699 21.333 13.001 39.666 31.001 54.999s38 23 60 23s39.667 -7.33301 53 -22s18.666 -32.667 15.999 -54s-13 -39.666 -31 -54.999s-38 -23 -60 -23c-21.333 0 -38.833 7.33301 -52.5 22s-19.167 32.667 -16.5 54z" />
    <glyph glyph-name="quotedbl" unicode="&#x22;" horiz-adv-x="519" 
d="M182 444l38 264h102l-38 -264h-102zM359 444l38 264h102l-38 -264h-102z" />
    <glyph glyph-name="numbersign" unicode="#" horiz-adv-x="592" 
d="M107 0l59 209h-90l12 84h101l35 122h-90l12 84h101l60 209h88l-60 -209h103l60 209h87l-60 -209h90l-12 -84h-102l-34 -122h90l-12 -84h-100l-60 -209h-87l59 209h-104l-59 -209h-87zM414 415h-103l-34 -122h103z" />
    <glyph glyph-name="dollar" unicode="$" horiz-adv-x="592" 
d="M428 786l-9.00195 -65.999h9c35.333 0 69.833 -6 103.5 -18s61.167 -29 82.5 -51l-96 -93c-28.667 36 -66.667 54 -114 54l-28 -200l4 -1c26.667 -7.33301 48.167 -13.833 64.5 -19.5s34.833 -14.167 55.5 -25.5s36.334 -23.5 47.001 -36.5s19 -29.833 25 -50.5
s7.33301 -44.334 4 -71.001c-8.66699 -63.333 -37.167 -114 -85.5 -152s-106.5 -60.333 -174.5 -67l-10 -72h-54l10 71c-97.333 -1.33301 -170.666 28.334 -219.999 89.001l104 93c25.333 -43.333 69 -68 131 -74l30 211l-5 1c-30.667 8.66699 -56.334 17.667 -77.001 27
s-40.667 21.666 -60 36.999s-32.666 34.833 -39.999 58.5s-9 51.167 -5 82.5c8 56.667 35.833 103.667 83.5 141s101.5 59 161.5 65l9 67h54zM323.998 427.001l25.9961 183c-26 -4 -48.833 -14.167 -68.5 -30.5s-31.167 -36.5 -34.5 -60.5
c0.666992 -7.33301 0.333984 -13.5 -0.999023 -18.5s-0.666016 -10.167 2.00098 -15.5s4.33398 -9.5 5.00098 -12.5s3.16699 -6.33301 7.5 -10s7.5 -6.5 9.5 -8.5s6 -4.5 12 -7.5l13 -6.5c2.66699 -1.33301 7.33398 -3.5 14.001 -6.5s11.667 -5.16699 15 -6.5z
M358.994 291.001l-28 -194.999c31.333 6 57.833 17.667 79.5 35s34.5 40 38.5 68c2 14 1 26.167 -3 36.5s-11.833 19.166 -23.5 26.499s-21 12.5 -28 15.5s-18.833 7.5 -35.5 13.5z" />
    <glyph glyph-name="percent" unicode="%" horiz-adv-x="907" 
d="M529 174c7.33301 51.333 31.833 95.166 73.5 131.499s88.167 54.5 139.5 54.5s92.5 -18.167 123.5 -54.5s42.833 -80.166 35.5 -131.499c-6.66699 -51.333 -30.834 -95.166 -72.501 -131.499s-88.167 -54.5 -139.5 -54.5s-92.666 18.167 -123.999 54.5
s-43.333 80.166 -36 131.499zM805 174c3.33301 25.333 -2.5 46.6699 -17.5 64.0029s-34.833 26 -59.5 26c-25.333 0 -48 -8.83301 -68 -26.5s-31.667 -38.834 -35 -63.501s2.5 -45.834 17.5 -63.501s35.167 -26.5 60.5 -26.5c24.667 0 47 8.66699 67 26
s31.667 38.666 35 63.999zM105 534.004c7.33301 51.333 31.6689 95.166 73.002 131.499s87.666 54.5 138.999 54.5s92.666 -18.167 123.999 -54.5s43.333 -80.166 36 -131.499c-6.66699 -51.333 -30.834 -95.166 -72.501 -131.499s-88.167 -54.5 -139.5 -54.5
s-92.666 18.167 -123.999 54.5s-43.333 80.166 -36 131.499zM381.003 534.004c3.33301 25.333 -2.5 46.666 -17.5 63.999s-34.833 26 -59.5 26c-25.333 0 -48 -8.83301 -68 -26.5s-31.667 -38.834 -35 -63.501c-3.33301 -25.333 2.5 -46.666 17.5 -63.999
s34.833 -26 59.5 -26c25.333 0 48 8.83301 68 26.5s31.667 38.834 35 63.501zM206.003 6.00391l519 734l78 -38l-519 -734z" />
    <glyph glyph-name="ampersand" unicode="&#x26;" horiz-adv-x="741" 
d="M768 372l-170.998 -204.999l130 -167h-155l-64 81c-65.333 -66 -139.666 -99 -222.999 -99c-66 0 -119.833 18.5 -161.5 55.5s-57.834 87.833 -48.501 152.5c6 45.333 25.833 85.5 59.5 120.5s74.167 61.167 121.5 78.5c-15.333 20.667 -27 37.334 -35 50.001
s-14.667 29.167 -20 49.5s-6.33301 41.5 -3 63.5c7.33301 55.333 32.666 98.166 75.999 128.499s93.666 45.5 150.999 45.5s103 -14.333 137 -43s47 -70.334 39 -125.001c-10 -74 -65.333 -135 -166 -183l96 -123l96 120h141zM412.002 618.001
c-23.333 0 -44.333 -6.66895 -63 -20.002s-29.334 -30.333 -32.001 -51c-4 -27.333 13.333 -61.666 52 -102.999c68.667 34.667 106 70.667 112 108c2.66699 18.667 -2.66602 34.334 -15.999 47.001s-31 19 -53 19zM444.002 159.999l-121.998 157.999
c-16 -8.66699 -29 -16.167 -39 -22.5s-21.167 -14.666 -33.5 -24.999s-21.833 -21.5 -28.5 -33.5s-11 -25.333 -13 -40c-4.66699 -30.667 2.66602 -56.167 21.999 -76.5s44.333 -30.5 75 -30.5c39.333 0 85.666 23.333 138.999 70z" />
    <glyph glyph-name="quotesingle" unicode="'" horiz-adv-x="296" 
d="M159 444l38 264h102l-38 -264h-102z" />
    <glyph glyph-name="parenleft" unicode="(" horiz-adv-x="296" 
d="M297 732l77.998 -52.001l-2 -4c-101.333 -117.333 -162.333 -246.666 -183 -387.999c-19.333 -142 5.33398 -271.667 74.001 -389l-92 -55c-78 134 -106 282 -84 444c22.667 161.333 92.334 309.333 209.001 444z" />
    <glyph glyph-name="parenright" unicode=")" horiz-adv-x="296" 
d="M80 -156l-78.001 52.001l2 4c48.667 56 88.834 117.667 120.501 185s52.167 135 61.5 203c20 139.333 -4.33301 268.666 -73 387.999l92 56c78 -134.667 105.667 -282.667 83 -444c-22 -160.667 -91.333 -308.667 -208 -444z" />
    <glyph glyph-name="asterisk" unicode="*" horiz-adv-x="463" 
d="M374 708l-20 -142l141 44l14 -80l-142 -44l70 -117l-76 -50l-70 118l-100 -115l-60 51l102 113l-130 47l37 80l130 -47l20 142h84z" />
    <glyph glyph-name="plus" unicode="+" horiz-adv-x="666" 
d="M112 354h220l31 220h102l-31 -220h220l-15 -102h-220l-31 -220h-102l31 220h-220z" />
    <glyph glyph-name="comma" unicode="," horiz-adv-x="296" 
d="M20 -126l107 264h122l-122 -264h-107z" />
    <glyph glyph-name="hyphen" unicode="-" horiz-adv-x="315" 
d="M323 297l-15 -102h-247l15 102h247z" />
    <glyph glyph-name="period" unicode="." horiz-adv-x="296" 
d="M78 70c2.66699 21.333 13.001 39.666 31.001 54.999s38 23 60 23s39.667 -7.33301 53 -22s18.666 -32.667 15.999 -54s-13 -39.666 -31 -54.999s-38 -23 -60 -23c-21.333 0 -38.833 7.33301 -52.5 22s-19.167 32.667 -16.5 54z" />
    <glyph glyph-name="slash" unicode="/" horiz-adv-x="389" 
d="M488 726l-421 -774l-79 30l422 776z" />
    <glyph glyph-name="zero" unicode="0" horiz-adv-x="592" 
d="M90 354c8.66699 63.333 23.001 118.666 43.001 165.999s40.833 83.333 62.5 108s46.167 44.334 73.5 59.001s50.5 23.834 69.5 27.501s38.5 5.5 58.5 5.5c11.333 0 22.5 -0.666992 33.5 -2s23.833 -4 38.5 -8s28 -9.83301 40 -17.5s24.667 -17.667 38 -30
s23.833 -27.5 31.5 -45.5s15.167 -39.5 22.5 -64.5s10.333 -53.833 9 -86.5s-4 -70 -8 -112c-8.66699 -63.333 -23 -118.666 -43 -165.999s-40.833 -83.333 -62.5 -108s-46.334 -44.334 -74.001 -59.001s-51 -23.834 -70 -27.501s-38.5 -5.5 -58.5 -5.5
c-11.333 0 -22.333 0.666992 -33 2s-23.5 4 -38.5 8s-28.333 9.83301 -40 17.5s-24.167 17.667 -37.5 30s-24 27.5 -32 45.5s-15.5 39.5 -22.5 64.5s-9.83301 53.833 -8.5 86.5s4 70 8 112zM210.001 354c-4 -26.667 -6.16602 -52.502 -6.49902 -77.502
s1.83398 -51.667 6.50098 -80s15.5 -51.166 32.5 -68.499s39.5 -26 67.5 -26c22.667 0 43.5 6.16699 62.5 18.5s34.333 27.166 46 44.499s22.167 38.166 31.5 62.499s16.166 46.333 20.499 66s8.16602 39.834 11.499 60.501c4 27.333 6 53.333 6 78
s-2.33301 51.334 -7 80.001s-15.5 51.5 -32.5 68.5s-39.5 25.5 -67.5 25.5s-53 -8.66699 -75 -26s-39.167 -40.166 -51.5 -68.499s-21.833 -55 -28.5 -80s-12 -50.833 -16 -77.5z" />
    <glyph glyph-name="one" unicode="1" horiz-adv-x="592" 
d="M268 0l80 570l-150 -123l-59 83l240 178h109l-100 -708h-120z" />
    <glyph glyph-name="two" unicode="2" horiz-adv-x="592" 
d="M59 0l18.001 126.997l312 266c16.667 14 30 25.667 40 35s20.333 22 31 38s17 31.667 19 47c4 28 -2.83301 50.5 -20.5 67.5s-40.834 25.5 -69.501 25.5c-29.333 0 -55 -8.66699 -77 -26s-37 -40.666 -45 -69.999l-125 10c14.667 64 45.667 113.333 93 148s104 52 170 52
c67.333 0 120 -17.167 158 -51.5s52.333 -84.166 43 -149.499c-6 -41.333 -20.5 -78.166 -43.5 -110.499s-54.5 -64.833 -94.5 -97.5l-248 -203h328l-15 -108h-474z" />
    <glyph glyph-name="three" unicode="3" horiz-adv-x="592" 
d="M266 315l14.999 107.999h31c20 0 37.333 1 52 3s29.667 6.16699 45 12.5s27.666 16.166 36.999 29.499s15.333 30.333 18 51c4 26.667 -2.33301 48.834 -19 66.501s-39.667 26.5 -69 26.5c-24 0 -46.5 -7 -67.5 -21s-37.5 -33 -49.5 -57l-122 34
c22 50.667 55.167 88.667 99.5 114s93.833 38 148.5 38c64.667 0 116.334 -16.5 155.001 -49.5s54 -79.5 46 -139.5c-5.33301 -38.667 -21 -72.667 -47 -102s-58.333 -48.666 -97 -57.999v-2c42.667 -6 73.834 -24.833 93.501 -56.5s26.5 -70.167 20.5 -115.5
c-9.33301 -64.667 -39.833 -115.667 -91.5 -153s-110.834 -56 -177.501 -56c-61.333 0 -111.5 13.5 -150.5 40.5s-61.833 68.833 -68.5 125.5l132 34c7.33301 -61.333 41.333 -92 102 -92c32.667 0 62.167 10.5 88.5 31.5s41.833 47.5 46.5 79.5
c3.33301 22 1.5 40.5 -5.5 55.5s-18.167 26.167 -33.5 33.5s-31.166 12.333 -47.499 15s-34.833 4 -55.5 4h-29z" />
    <glyph glyph-name="four" unicode="4" horiz-adv-x="592" 
d="M335 0l20 144h-301l17 119l348 445h136l-65 -456h103l-15 -108h-103l-20 -144h-120zM370 252l41 286h-2l-218 -286h179z" />
    <glyph glyph-name="five" unicode="5" horiz-adv-x="592" 
d="M605 708l-15.998 -107.999h-285l-22 -141c19.333 6 45 9 77 9c70 0 123.833 -21.5 161.5 -64.5s51.5 -99.833 41.5 -170.5c-10.667 -74.667 -43.334 -134.167 -98.001 -178.5s-119 -66.5 -193 -66.5c-57.333 0 -103.833 13.667 -139.5 41s-57.834 67.666 -66.501 120.999
l131 34c9.33301 -54.667 44 -82 104 -82c36 0 67.167 11.5 93.5 34.5s41.833 51.833 46.5 86.5c6.66699 46.667 -4 81.167 -32 103.5s-66 33.5 -114 33.5c-53.333 0 -104.333 -11.333 -153 -34l61 382h403z" />
    <glyph glyph-name="six" unicode="6" horiz-adv-x="592" 
d="M391 708h145.999l-207 -262l1 -2c16 8 38.667 12 68 12c61.333 0 109.166 -22 143.499 -66s46.833 -97.333 37.5 -160c-10 -72.667 -41.833 -131.167 -95.5 -175.5s-117.167 -66.5 -190.5 -66.5c-75.333 0 -133.166 21.667 -173.499 65s-55.166 102 -44.499 176
c8.66699 59.333 39.667 124 93 194zM201.999 231c-4.66699 -35.333 3.83301 -65.666 25.5 -90.999s50.167 -38 85.5 -38s67.333 12.667 96 38s45.667 55.666 51 90.999s-2.83398 65.666 -24.501 90.999s-50.167 38 -85.5 38s-67.666 -12.667 -96.999 -38
s-46.333 -55.666 -51 -90.999z" />
    <glyph glyph-name="seven" unicode="7" horiz-adv-x="592" 
d="M125 594l17 114h481l-16 -110l-367 -598h-141l372 594h-346z" />
    <glyph glyph-name="eight" unicode="8" horiz-adv-x="592" 
d="M397 720c62.667 0 112.164 -16.6689 148.497 -50.002s50.5 -78.666 42.5 -135.999c-5.33301 -38.667 -19.166 -72.334 -41.499 -101.001s-51.5 -48 -87.5 -58l-1 -2c34 -7.33301 61.5 -27.166 82.5 -59.499s28.5 -69.833 22.5 -112.5
c-9.33301 -67.333 -39.166 -119.666 -89.499 -156.999s-110.166 -56 -179.499 -56s-123.833 18.667 -163.5 56s-54.834 89.666 -45.501 156.999c6 42 24 79.333 54 112s63 52.667 99 60l1 2c-33.333 10 -57.166 29.333 -71.499 58s-18.833 62.334 -13.5 101.001
c8 58 35 103.5 81 136.5s100 49.5 162 49.5zM382.997 617.998c-29.333 0 -54.168 -9.16797 -74.501 -27.501s-32.5 -41.166 -36.5 -68.499c-4 -28.667 1.5 -52.334 16.5 -71.001s37.167 -28 66.5 -28c26.667 0 50.834 9.5 72.501 28.5s34.5 42.5 38.5 70.5
c4 26.667 -2 49.334 -18 68.001s-37.667 28 -65 28zM341.995 326.997c-33.333 0 -62.999 -10.5 -88.999 -31.5s-41.333 -47.5 -46 -79.5c-4.66699 -33.333 2.66602 -60.666 21.999 -81.999s46.333 -32 81 -32s64.667 10.667 90 32s40.333 48.666 45 81.999
c4.66699 32 -3 58.5 -23 79.5s-46.667 31.5 -80 31.5z" />
    <glyph glyph-name="nine" unicode="9" horiz-adv-x="592" 
d="M301 0h-145.996l207 262l-2 2c-14.667 -8 -37.334 -12 -68.001 -12c-61.333 0 -109 22 -143 66s-46.667 97.333 -38 160c10.667 72.667 42.667 131.167 96 175.5s116.666 66.5 189.999 66.5c75.333 0 133.166 -21.667 173.499 -65s55.166 -102 44.499 -176
c-8 -59.333 -39 -124 -93 -194zM489.004 477c4.66699 35.333 -3.83301 65.666 -25.5 90.999s-50.167 38 -85.5 38s-67.333 -12.667 -96 -38s-45.667 -55.666 -51 -90.999c-4.66699 -35.333 3.83301 -65.666 25.5 -90.999s50.167 -38 85.5 -38s67.333 12.667 96 38
s45.667 55.666 51 90.999z" />
    <glyph glyph-name="colon" unicode=":" horiz-adv-x="296" 
d="M78 70c2.66699 21.333 13.001 39.666 31.001 54.999s38 23 60 23s39.667 -7.33301 53 -22s18.666 -32.667 15.999 -54s-13 -39.666 -31 -54.999s-38 -23 -60 -23c-21.333 0 -38.833 7.33301 -52.5 22s-19.167 32.667 -16.5 54zM125.001 409
c3.33301 21.333 13.833 39.666 31.5 54.999s37.5 23 59.5 23s39.833 -7.33301 53.5 -22s19.167 -32.667 16.5 -54s-13 -39.666 -31 -54.999s-38 -23 -60 -23c-21.333 0 -39 7.33301 -53 22s-19.667 32.667 -17 54z" />
    <glyph glyph-name="semicolon" unicode=";" horiz-adv-x="296" 
d="M20 -126l107 264h122l-122 -264h-107zM125 409c3.33301 21.333 13.833 39.666 31.5 54.999s37.5 23 59.5 23s39.833 -7.33301 53.5 -22s19.167 -32.667 16.5 -54s-13 -39.666 -31 -54.999s-38 -23 -60 -23c-21.333 0 -39 7.33301 -53 22s-19.667 32.667 -17 54z" />
    <glyph glyph-name="less" unicode="&#x3c;" horiz-adv-x="666" 
d="M592 42l-474 225l10 72l537 225l-15 -110l-359 -151l316 -151z" />
    <glyph glyph-name="equal" unicode="=" horiz-adv-x="666" 
d="M124 444h542l-14 -102h-542zM99 264h542l-14 -102h-542z" />
    <glyph glyph-name="greater" unicode="&#x3e;" horiz-adv-x="666" 
d="M159 564l475 -225l-10 -72l-538 -225l15 110l360 151l-317 151z" />
    <glyph glyph-name="question" unicode="?" horiz-adv-x="519" 
d="M359 209l-119.998 -0.00195312l8 55c4 28 10.5 48.833 19.5 62.5s26.167 31.834 51.5 54.501l88 78c18.667 16.667 30 38.334 34 65.001c3.33301 26 -2.33398 47.167 -17.001 63.5s-35 24.5 -61 24.5c-27.333 0 -51.5 -9.33301 -72.5 -28s-34.833 -42 -41.5 -70l-126 10
c16 62.667 47.5 112 94.5 148s102.5 54 166.5 54c61.333 0 109.333 -17.167 144 -51.5s48 -82.166 40 -143.499c-4 -26 -12.667 -50 -26 -72s-26.5 -39.333 -39.5 -52s-32.5 -29.667 -58.5 -51c-4.66699 -4 -8.33398 -7 -11.001 -9c-18 -14.667 -30 -25 -36 -31
s-12.167 -14.833 -18.5 -26.5s-10.5 -25.834 -12.5 -42.501zM200.002 69.998c2.66699 21.333 13.001 39.666 31.001 54.999s38 23 60 23s39.667 -7.33301 53 -22s18.666 -32.667 15.999 -54s-13 -39.666 -31 -54.999s-38 -23 -60 -23c-21.333 0 -38.833 7.33301 -52.5 22
s-19.167 32.667 -16.5 54z" />
    <glyph glyph-name="at" unicode="@" horiz-adv-x="800" 
d="M465 456c-32.667 0 -60.166 -11.667 -82.499 -35s-35.833 -52 -40.5 -86c-8.66699 -61.333 14.666 -92 69.999 -92c34.667 0 61.167 11.833 79.5 35.5s29.833 52.167 34.5 85.5c4 27.333 0.833008 49.5 -9.5 66.5s-27.5 25.5 -51.5 25.5zM636.001 133
l110.005 0.000976562c-42 -48.667 -91.833 -86 -149.5 -112s-117.5 -39 -179.5 -39c-108 0 -194.667 35.167 -260 105.5s-90.333 158.833 -75 265.5c14.667 106 64.167 194.667 148.5 266s179.5 107 285.5 107c44.667 0 86.834 -7.33301 126.501 -22s74.5 -35.5 104.5 -62.5
s52.167 -61.667 66.5 -104s17.833 -89.166 10.5 -140.499c-6 -40 -17 -75.5 -33 -106.5s-33.5 -54.833 -52.5 -71.5s-40.167 -30.334 -63.5 -41.001s-43.333 -17.5 -60 -20.5s-32.334 -4.5 -47.001 -4.5c-26 0 -45 5.33301 -57 16s-17 23.334 -15 38.001h-2
c-40 -36 -85 -54 -135 -54c-42.667 0 -75.334 15.667 -98.001 47s-30.334 71.666 -23.001 120.999c8.66699 61.333 34.5 114.166 77.5 158.499s94.5 66.5 154.5 66.5c52.667 0 86 -19 100 -57h2l14 45h94l-65 -197c-10.667 -34 -16.334 -53 -17.001 -57
c-3.33301 -24.667 4 -37 22 -37c23.333 0 45.166 12.667 65.499 38s34.166 62.333 41.499 111c11.333 78 -4 138.167 -46 180.5s-102.333 63.5 -181 63.5c-82 0 -152.333 -26.5 -211 -79.5s-93.667 -120.833 -105 -203.5c-12 -86 5.83301 -154.333 53.5 -205
s114.5 -76 200.5 -76c74.667 0 140.667 20.333 198 61z" />
    <glyph glyph-name="A" unicode="A" horiz-adv-x="722" 
d="M0 0l408 708h109l205 -708h-144l-43 162h-307l-87 -162h-141zM286 270h220l-69 288z" />
    <glyph glyph-name="B" unicode="B" horiz-adv-x="648" 
d="M79 0l99.999 708.001h276c60 0 109 -14.667 147 -44s52.667 -74 44 -134c-5.33301 -38.667 -20.833 -71.334 -46.5 -98.001s-58.167 -45.667 -97.5 -57l-1 -2c44 -5.33301 78.167 -23.833 102.5 -55.5s33.166 -70.167 26.499 -115.5
c-5.33301 -36.667 -17.333 -68.667 -36 -96s-42.167 -48.333 -70.5 -63s-58.166 -25.5 -89.499 -32.5s-64.666 -10.5 -99.999 -10.5h-255zM288.999 600.001l-25 -180h115c40.667 0 73 8 97 24s38 37.667 42 65c4 30.667 -4 53.5 -24 68.5s-53.667 22.5 -101 22.5h-104z
M248.999 312.001l-29 -204h116c103.333 0 160 34.667 170 104c4.66699 36 -3.83301 61.667 -25.5 77s-58.5 23 -110.5 23h-121z" />
    <glyph glyph-name="C" unicode="C" horiz-adv-x="685" 
d="M749 614l-107.999 -72.001c-37.333 46.667 -83.666 70 -138.999 70c-72 0 -134 -24.167 -186 -72.5s-83 -108.5 -93 -180.5c-10.667 -76.667 3 -139.667 41 -189s93 -74 165 -74c61.333 0 118.666 28.667 171.999 86l93 -74c-72.667 -84 -166.667 -126 -282 -126
c-110 0 -195 34 -255 102s-82.333 157 -67 267c16 112.667 63.667 203.334 143 272.001s174 103 284 103c101.333 0 178.666 -37.333 231.999 -112z" />
    <glyph glyph-name="D" unicode="D" horiz-adv-x="759" 
d="M79 0l100.001 708.001h279c100 0 180.5 -30.667 241.5 -92s83.833 -148.666 68.5 -261.999c-8 -58 -26.833 -110.333 -56.5 -157s-64.834 -83.834 -105.501 -111.501s-83.667 -48.834 -129 -63.501s-90 -22 -134 -22h-264zM221.001 114.001l94 0.000976562
c85.333 0 157.333 19.667 216 59s93.667 99.666 105 180.999c11.333 82 -4.16699 142.5 -46.5 181.5s-104.5 58.5 -186.5 58.5h-115z" />
    <glyph glyph-name="E" unicode="E" horiz-adv-x="611" 
d="M79 0l100 708h469l-17 -114h-343l-24 -174h325l-16 -114h-325l-27 -192h361l-16 -114h-487z" />
    <glyph glyph-name="F" unicode="F" horiz-adv-x="574" 
d="M79 0l100 708h457l-17 -114h-331l-26 -186h312l-16 -114h-312l-41 -294h-126z" />
    <glyph glyph-name="G" unicode="G" horiz-adv-x="778" 
d="M766 414l-50.999 -362.001c-93.333 -46.667 -194.333 -70 -303 -70c-110 0 -195 34 -255 102s-82.333 157 -67 267c16 112.667 63.667 203.334 143 272.001s174 103 284 103c119.333 0 208.333 -29.667 267 -89l-107 -94c-40 46 -98.333 69 -175 69
c-72 0 -134 -24.167 -186 -72.5s-83 -108.5 -93 -180.5c-10.667 -76.667 3 -139.667 41 -189s93 -74 165 -74c67.333 0 124.666 12.333 171.999 37l23 167h-145l16 114h271z" />
    <glyph glyph-name="H" unicode="H" horiz-adv-x="741" 
d="M79 0l100 708h126l-40 -282h331l40 282h126l-100 -708h-126l44 312h-331l-44 -312h-126z" />
    <glyph glyph-name="I" unicode="I" horiz-adv-x="278" 
d="M76 0l100 708h126l-100 -708h-126z" />
    <glyph glyph-name="J" unicode="J" horiz-adv-x="500" 
d="M526 708l-71.999 -512c-8.66699 -60 -34.5 -110.667 -77.5 -152s-98.5 -62 -166.5 -62c-116.667 0 -178.334 54.333 -185.001 163l122 28c1.33301 -23.333 8.33301 -42 21 -56s30 -21 52 -21c34 0 59.667 11.5 77 34.5s29.333 57.167 36 102.5l67 475h126z" />
    <glyph glyph-name="K" unicode="K" horiz-adv-x="685" 
d="M79 0l100 708h126l-43 -300h6l336 300h170l-377 -327l299 -381h-177l-258 348h-7l-49 -348h-126z" />
    <glyph glyph-name="L" unicode="L" horiz-adv-x="519" 
d="M79 0l100 708h126l-84 -594h301l-16 -114h-427z" />
    <glyph glyph-name="M" unicode="M" horiz-adv-x="926" 
d="M82 0l100 708h192l119 -496l261 496h190l-100 -708h-120l83 588h-2l-298 -588h-88l-132 588h-2l-83 -588h-120z" />
    <glyph glyph-name="N" unicode="N" horiz-adv-x="796" 
d="M79 0l100 708h167l269 -526h2l74 526h126l-100 -708h-160l-274 543h-2l-76 -543h-126z" />
    <glyph glyph-name="O" unicode="O" horiz-adv-x="833" 
d="M90 351c16 112.667 63.667 203.333 143 272s174 103 284 103c111.333 2 197.333 -31.167 258 -99.5s83 -158.833 67 -271.5c-15.333 -110 -62.833 -199.167 -142.5 -267.5s-175.5 -103.5 -287.5 -105.5c-110 0 -195 34 -255 102s-82.333 157 -67 267zM223 358.999
c-10.667 -76.667 3 -139.667 41 -189s93 -74 165 -74c72.667 0 135 24.667 187 74s83.333 112.333 94 189c10 72 -4.16699 132.167 -42.5 180.5s-93.5 72.5 -165.5 72.5s-134 -24.167 -186 -72.5s-83 -108.5 -93 -180.5z" />
    <glyph glyph-name="P" unicode="P" horiz-adv-x="611" 
d="M79 0l100 707.999h238c76.667 0 137 -16 181 -48s61 -84.333 51 -157c-6 -42.667 -18.5 -78.5 -37.5 -107.5s-43.5 -50.667 -73.5 -65s-60.833 -24.166 -92.5 -29.499s-68.167 -8 -109.5 -8h-90l-41 -293h-126zM261 400.999l76 -0.000976562c18 0 33.167 0.333008 45.5 1
s27 2.83398 44 6.50098s31 8.83398 42 15.501s21 16.5 30 29.5s14.833 28.833 17.5 47.5c3.33301 20.667 1.5 38 -5.5 52s-18.167 24.167 -33.5 30.5s-30.5 10.666 -45.5 12.999s-32.5 3.5 -52.5 3.5h-90z" />
    <glyph glyph-name="Q" unicode="Q" horiz-adv-x="852" 
d="M853 102l-14 -102.001h-412c-112.667 0 -200.5 33.333 -263.5 100s-86.5 156.334 -70.5 269.001c9.33301 68 34.833 129.333 76.5 184s93 97.167 154 127.5s124.833 45.5 191.5 45.5c102.667 0 185.5 -33.833 248.5 -101.5s87.5 -152.834 73.5 -255.501
c-16.667 -119.333 -78.667 -207.666 -186 -264.999l-1 -2h203zM496 611.999c-68.667 0 -128.668 -23.333 -180.001 -70s-82 -105.334 -92 -176.001c-10 -72.667 4.33301 -132.834 43 -180.501s92.334 -71.5 161.001 -71.5c70 0 131 23.833 183 71.5s83 107.834 93 180.501
c10 70.667 -4.33301 129.334 -43 176.001s-93.667 70 -165 70z" />
    <glyph glyph-name="R" unicode="R" horiz-adv-x="630" 
d="M79 0l100.001 708h246c77.333 0 138.333 -15.5 183 -46.5s62 -83.167 52 -156.5c-7.33301 -51.333 -27.833 -94.333 -61.5 -129s-76.834 -55.667 -129.501 -63l144 -313h-152l-122 300h-92l-42 -300h-126zM262.001 408h97.998c22 0 40.5 0.833008 55.5 2.5
s31.333 5.5 49 11.5s31.834 16 42.501 30s17.667 32 21 54c2.66699 20 0.833984 36.667 -5.49902 50s-16.833 23 -31.5 29s-29 10 -43 12s-30.667 3 -50 3h-109z" />
    <glyph glyph-name="S" unicode="S" horiz-adv-x="574" 
d="M610 653l-106.002 -97c-21.333 37.333 -60 56 -116 56c-32 0 -60.5 -7.66699 -85.5 -23s-39.5 -38 -43.5 -68c-2.66699 -19.333 1.16602 -35.5 11.499 -48.5s24.833 -23.5 43.5 -31.5s39.5 -15.667 62.5 -23s45.833 -16 68.5 -26s42.834 -22 60.501 -36
s30.834 -33.667 39.501 -59s10.667 -55 6 -89c-10 -72.667 -42.5 -128.5 -97.5 -167.5s-119.5 -58.5 -193.5 -58.5c-100.667 0 -173.334 32 -218.001 96l108 92c12 -23.333 29.5 -41.5 52.5 -54.5s48.5 -19.5 76.5 -19.5c32 0 62 8.5 90 25.5s44 40.833 48 71.5
c2.66699 20.667 -1.16602 38.334 -11.499 53.001s-24.666 26.167 -42.999 34.5s-39 16.166 -62 23.499s-45.667 15.833 -68 25.5s-42.5 21.5 -60.5 35.5s-31.333 33.5 -40 58.5s-10.667 54.5 -6 88.5c9.33301 68.667 42.333 121.5 99 158.5s120.667 55.5 192 55.5
c84 0 148.333 -24.333 193 -73z" />
    <glyph glyph-name="T" unicode="T" horiz-adv-x="574" 
d="M224 0l83 594h-217l17 114h560l-17 -114h-217l-83 -594h-126z" />
    <glyph glyph-name="U" unicode="U" horiz-adv-x="722" 
d="M746 708l-63 -448c-12 -84 -48.5 -151.333 -109.5 -202s-132.833 -76 -215.5 -76s-147.167 25.333 -193.5 76s-63.5 118 -51.5 202l63 448h126l-63 -444c-6 -42 1.5 -79.5 22.5 -112.5s58.833 -49.5 113.5 -49.5s97.167 16.5 127.5 49.5s48.5 70.5 54.5 112.5l63 444h126
z" />
    <glyph glyph-name="V" unicode="V" horiz-adv-x="667" 
d="M275 0l-178 708h145l117 -535l275 535h136l-386 -708h-109z" />
    <glyph glyph-name="W" unicode="W" horiz-adv-x="981" 
d="M209 0l-109 708h138l61 -510h2l231 510h124l84 -510h2l211 510h128l-306 -708h-120l-88 539h-2l-240 -539h-116z" />
    <glyph glyph-name="X" unicode="X" horiz-adv-x="685" 
d="M0 0l304 370l-188 338h159l130 -262l202 262h153l-280 -338l205 -370h-160l-145 299l-228 -299h-152z" />
    <glyph glyph-name="Y" unicode="Y" horiz-adv-x="630" 
d="M252 0l43 303l-209 405h158l134 -282l216 282h150l-323 -405l-43 -303h-126z" />
    <glyph glyph-name="Z" unicode="Z" horiz-adv-x="611" 
d="M35 0l16 114l445 480h-372l17 114h529l-17 -114l-448 -480h387l-16 -114h-541z" />
    <glyph glyph-name="bracketleft" unicode="[" horiz-adv-x="278" 
d="M361 732l-11 -78h-90l-103 -732h90l-11 -78h-192l125 888h192z" />
    <glyph glyph-name="backslash" unicode="\" horiz-adv-x="389" 
d="M105 726l88 32l202 -776l-87 -30z" />
    <glyph glyph-name="bracketright" unicode="]" horiz-adv-x="278" 
d="M-2 -156l11 78h90l103 732h-90l11 78h192l-125 -888h-192z" />
    <glyph glyph-name="asciicircum" unicode="^" horiz-adv-x="666" 
d="M235 343h-118l275 365h82l171 -365h-118l-113 239z" />
    <glyph glyph-name="underscore" unicode="_" horiz-adv-x="500" 
d="M482 -125h-500l7 50h500z" />
    <glyph glyph-name="grave" unicode="`" 
d="M178 708l78 -144h-94l-120 144h136z" />
    <glyph glyph-name="a" unicode="a" horiz-adv-x="537" 
d="M368 0l8.99902 66h-3c-39.333 -52 -94.333 -78 -165 -78c-48 0 -87.333 12.667 -118 38s-42.667 60.666 -36 105.999c4 30 14.333 55.667 31 77s35.667 37.666 57 48.999s47.333 20.333 78 27s57.5 10.667 80.5 12s49.167 2 78.5 2h30l2 13
c4 28.667 -3 50.834 -21 66.501s-43.333 23.5 -76 23.5c-49.333 0 -94.666 -16.667 -135.999 -50l-54 63c58 51.333 129.667 77 215 77c28 0 52.833 -3 74.5 -9s38.834 -13.167 51.501 -21.5s23.167 -19.666 31.5 -33.999s14.166 -26.833 17.499 -37.5s5 -24.667 5 -42
s-0.333008 -30 -1 -38s-2 -19.333 -4 -34l-39 -276h-108zM386.999 188l4 27.001h-25c-119.333 0 -182.666 -24.667 -189.999 -74c-2.66699 -20.667 3.66602 -36.334 18.999 -47.001s34 -16 56 -16c40 0 71.5 9.66699 94.5 29s36.833 46.333 41.5 81z" />
    <glyph glyph-name="b" unicode="b" horiz-adv-x="630" 
d="M68 0l106.001 756.001h120l-47 -337h3c45.333 48.667 103 73 173 73c68 0 120.333 -24 157 -72s50 -108 40 -180c-10 -72.667 -39.833 -132.834 -89.5 -180.501s-110.834 -71.5 -183.501 -71.5c-76 0 -127 28 -153 84h-2l-10 -72h-114zM500.001 240.001
c5.33301 39.333 -3.00098 73.166 -25.001 101.499s-54 42.5 -96 42.5c-42.667 0 -78.834 -14.167 -108.501 -42.5s-47.167 -62.166 -52.5 -101.499c-6 -39.333 1.83301 -73.166 23.5 -101.499s53.834 -42.5 96.501 -42.5s78.834 14.167 108.501 42.5
s47.5 62.166 53.5 101.499z" />
    <glyph glyph-name="c" unicode="c" horiz-adv-x="482" 
d="M538 419l-95.001 -83.002c-26.667 32 -54.667 48 -84 48c-42.667 0 -78.834 -14.167 -108.501 -42.5s-47.167 -62.166 -52.5 -101.499c-6 -39.333 1.83301 -73.166 23.5 -101.499s53.834 -42.5 96.501 -42.5c40 0 73.333 15 100 45l68 -86
c-25.333 -22 -55.666 -38.667 -90.999 -50s-66 -17 -92 -17c-74 0 -132.5 23.5 -175.5 70.5s-59.5 107.5 -49.5 181.5s43.333 134.5 100 181.5s122 70.5 196 70.5c72 0 126.667 -24.333 164 -73z" />
    <glyph glyph-name="d" unicode="d" horiz-adv-x="630" 
d="M448 0l10 71.999h-2c-41.333 -56 -100.333 -84 -177 -84c-72 0 -126 23.833 -162 71.5s-49 107.834 -39 180.501c10 72 40 132 90 180s109 72 177 72c69.333 0 120.333 -24.333 153 -73h3l47 337h120l-106 -756h-114zM198 239.999
c-6 -39.333 1.83203 -73.166 23.499 -101.499s53.834 -42.5 96.501 -42.5s78.834 14.167 108.501 42.5s47.5 62.166 53.5 101.499c5.33301 39.333 -3 73.166 -25 101.499s-54 42.5 -96 42.5c-42.667 0 -78.834 -14.167 -108.501 -42.5s-47.167 -62.166 -52.5 -101.499z" />
    <glyph glyph-name="e" unicode="e" horiz-adv-x="574" 
d="M558 198l-366.001 0.000976562c-0.666992 -34.667 9.5 -62.334 30.5 -83.001s48.5 -31 82.5 -31c51.333 0 97.333 21.667 138 65l77 -65c-61.333 -64 -133.666 -96 -216.999 -96c-74 0 -132.5 23.5 -175.5 70.5s-59.5 107.5 -49.5 181.5s43.333 134.5 100 181.5
s122 70.5 196 70.5c68 0 119.333 -23 154 -69s46 -110 34 -192zM203.999 288.001h246c4.66699 35.333 -2.33301 63.166 -21 83.499s-46.667 30.5 -84 30.5c-34.667 0 -64.5 -10.167 -89.5 -30.5s-42.167 -48.166 -51.5 -83.499z" />
    <glyph glyph-name="f" unicode="f" horiz-adv-x="352" 
d="M111 0l53 377.999h-99l14 102h99l10 68c10.667 74 31 129.167 61 165.5s79.667 54.5 149 54.5c27.333 0 52.333 -2.33301 75 -7l-22 -102c-20 4.66699 -36.333 7 -49 7c-30.667 0 -52.5 -8.66699 -65.5 -26s-21.5 -41.666 -25.5 -72.999l-13 -87h111l-14 -102h-111
l-53 -378h-120z" />
    <glyph glyph-name="g" unicode="g" horiz-adv-x="630" 
d="M515 480h114.002l-61 -437c-12.667 -89.333 -45 -158.833 -97 -208.5s-123.333 -74.5 -214 -74.5c-98.667 0 -174.334 26.333 -227.001 79l86 98c44 -46 95.667 -69 155 -69c102 0 160.333 53.667 175 161l5 35h-2c-42 -46.667 -97.667 -70 -167 -70
c-70.667 0 -124.834 23.667 -162.501 71s-51.5 105.666 -41.5 174.999c10 72.667 39.833 132.834 89.5 180.501s110.5 71.5 182.5 71.5c76 0 127 -28 153 -84h2zM360.002 384c-42 0 -78 -13.168 -108 -39.501s-48 -60.833 -54 -103.5c-5.33301 -38.667 3.5 -71.5 26.5 -98.5
s54.5 -40.5 94.5 -40.5c43.333 0 80 13.333 110 40s47.667 60.334 53 101.001c6 42 -2 76 -24 102s-54.667 39 -98 39z" />
    <glyph glyph-name="h" unicode="h" horiz-adv-x="574" 
d="M294 756l-48.001 -342.999h2c14 22 34.167 40.667 60.5 56s56.833 23 91.5 23c60 0 101.667 -17.833 125 -53.5s31.333 -80.834 24 -135.501l-43 -303h-120l34 243c14 94 -8.66699 141 -68 141c-37.333 0 -66.666 -11.5 -87.999 -34.5s-34.333 -52.167 -39 -87.5
l-37 -262h-120l106 756h120z" />
    <glyph glyph-name="i" unicode="i" 
d="M70 0l67 480h120l-67 -480h-120zM143 643c3.33301 19.333 13.168 36.1699 29.501 50.5029s35.166 21.5 56.499 21.5c22 0 39.5 -6.83301 52.5 -20.5s18.167 -30.834 15.5 -51.501s-12.5 -37.834 -29.5 -51.501s-36.5 -20.5 -58.5 -20.5
c-21.333 0 -38.333 7.16699 -51 21.5s-17.667 31.166 -15 50.499z" />
    <glyph glyph-name="j" unicode="j" 
d="M137 480h119.999l-71 -509c-10 -68.667 -28.667 -121 -56 -157s-72.666 -54 -135.999 -54c-24.667 0 -45.667 3 -63 9l23 104c14.667 -3.33301 27 -5 37 -5c14 0 25.833 3 35.5 9s17.167 14.833 22.5 26.5s9 22 11 31s4 20.833 6 35.5zM142.999 643
c3.33301 19.333 13.168 36.1699 29.501 50.5029s35.166 21.5 56.499 21.5c22 0 39.5 -6.83301 52.5 -20.5s18.167 -30.834 15.5 -51.501s-12.5 -37.834 -29.5 -51.501s-36.5 -20.5 -58.5 -20.5c-21.333 0 -38.333 7.16699 -51 21.5s-17.667 31.166 -15 50.499z" />
    <glyph glyph-name="k" unicode="k" horiz-adv-x="537" 
d="M68 0l106 756h120l-67 -475l213 199h154l-236 -218l182 -262h-159l-157 245h-2l-34 -245h-120z" />
    <glyph glyph-name="l" unicode="l" 
d="M70 0l106 756h120l-106 -756h-120z" />
    <glyph glyph-name="m" unicode="m" horiz-adv-x="870" 
d="M63 0l66.999 480h114l-10 -75h2c34.667 58 87.667 87 159 87c75.333 0 121.333 -29.667 138 -89c42 59.333 98.667 89 170 89c60.667 0 102 -18.667 124 -56s28.667 -87.333 20 -150l-40 -286h-120l38 272c11.333 74.667 -13 112 -73 112
c-34.667 0 -62.167 -12 -82.5 -36s-32.833 -53.333 -37.5 -88l-37 -260h-120l40 286c8.66699 65.333 -14 98 -68 98c-37.333 0 -66.666 -11.5 -87.999 -34.5s-34.333 -52.167 -39 -87.5l-37 -262h-120z" />
    <glyph glyph-name="n" unicode="n" horiz-adv-x="574" 
d="M68 0l66.999 480.001h114l-10 -77h2c34.667 59.333 87.667 89 159 89c60 0 101.667 -17.833 125 -53.5s31.333 -80.834 24 -135.501l-43 -303h-120l34 243c14 94 -8.66699 141 -68 141c-37.333 0 -66.666 -11.5 -87.999 -34.5s-34.333 -52.167 -39 -87.5l-37 -262h-120z
" />
    <glyph glyph-name="o" unicode="o" horiz-adv-x="610" 
d="M78 240c10 74 43.333 134.5 100 181.5s122 70.5 196 70.5s132.667 -23.5 176 -70.5s60 -107.5 50 -181.5s-43.5 -134.5 -100.5 -181.5s-122.5 -70.5 -196.5 -70.5s-132.5 23.5 -175.5 70.5s-59.5 107.5 -49.5 181.5zM198 240c-6 -39.333 1.83203 -73.166 23.499 -101.499
s53.834 -42.5 96.501 -42.5s78.834 14.167 108.501 42.5s47.5 62.166 53.5 101.499c5.33301 39.333 -3 73.166 -25 101.499s-54 42.5 -96 42.5c-42.667 0 -78.834 -14.167 -108.501 -42.5s-47.167 -62.166 -52.5 -101.499z" />
    <glyph glyph-name="p" unicode="p" horiz-adv-x="630" 
d="M36 -228l99 708.001h114l-10 -72h2c41.333 56 100.333 84 177 84c72.667 0 127 -23.833 163 -71.5s49 -107.834 39 -180.501c-10 -72 -40.167 -132 -90.5 -180s-109.5 -72 -177.5 -72c-70 0 -120.667 24.333 -152 73h-3l-41 -289h-120zM500 240.001
c5.33301 39.333 -3.00098 73.166 -25.001 101.499s-54 42.5 -96 42.5c-42.667 0 -78.834 -14.167 -108.501 -42.5s-47.167 -62.166 -52.5 -101.499c-6 -39.333 1.83301 -73.166 23.5 -101.499s53.834 -42.5 96.501 -42.5s78.834 14.167 108.501 42.5
s47.5 62.166 53.5 101.499z" />
    <glyph glyph-name="q" unicode="q" horiz-adv-x="630" 
d="M629 480l-99 -708.001h-120l41 289h-3c-47.333 -48.667 -105.333 -73 -174 -73c-68 0 -120.167 24 -156.5 72s-49.5 108 -39.5 180c10 72.667 39.833 132.834 89.5 180.501s110.5 71.5 182.5 71.5c76 0 127 -28 153 -84h2l10 72h114zM198 239.999
c-6 -39.333 1.83203 -73.166 23.499 -101.499s53.834 -42.5 96.501 -42.5s78.834 14.167 108.501 42.5s47.5 62.166 53.5 101.499c5.33301 39.333 -3 73.166 -25 101.499s-54 42.5 -96 42.5c-42.667 0 -78.834 -14.167 -108.501 -42.5s-47.167 -62.166 -52.5 -101.499z" />
    <glyph glyph-name="r" unicode="r" horiz-adv-x="389" 
d="M68 0l67 480h120l-10 -76h2c17.333 27.333 39.5 48.833 66.5 64.5s56.167 23.5 87.5 23.5c12.667 0 26.667 -2.33301 42 -7l-16 -116c-22.667 6 -41.667 9 -57 9c-26 0 -49 -4.83301 -69 -14.5s-35.167 -22 -45.5 -37s-17.833 -28 -22.5 -39s-7.66699 -21.167 -9 -30.5
l-36 -257h-120z" />
    <glyph glyph-name="s" unicode="s" horiz-adv-x="444" 
d="M463 419l-89.9961 -71.999c-19.333 32.667 -48.333 49 -87 49c-18 0 -34.833 -4.33301 -50.5 -13s-24.834 -21.334 -27.501 -38.001c-2 -15.333 5.33301 -27.166 22 -35.499s37.334 -15 62.001 -20s49.167 -11.5 73.5 -19.5s43.833 -22.667 58.5 -44
s19.667 -49.333 15 -84c-5.33301 -36 -20.5 -66 -45.5 -90s-53 -40.667 -84 -50s-64.167 -14 -99.5 -14c-80.667 0 -139.334 24.667 -176.001 74l90 75c30 -39.333 65.333 -59 106 -59c20 0 39 4.83301 57 14.5s28.333 23.167 31 40.5c2.66699 18 -4.33301 31.667 -21 41
s-37.334 16.5 -62.001 21.5s-49.167 11.167 -73.5 18.5s-44 21.166 -59 41.499s-20.167 47.5 -15.5 81.5c7.33301 50 31.666 88.333 72.999 115s88.666 40 141.999 40c78 0 131.667 -24.333 161 -73z" />
    <glyph glyph-name="t" unicode="t" horiz-adv-x="389" 
d="M164 378h-99l14 102h99l20 139h120l-20 -139h132l-14 -102h-132l-29 -210c-4 -26 -2 -45.5 6 -58.5s24.667 -19.5 50 -19.5c29.333 0 51.666 5 66.999 15l-14 -101c-24 -10.667 -56.667 -16 -98 -16c-60.667 0 -100.167 13.333 -118.5 40s-23.166 70 -14.499 130z" />
    <glyph glyph-name="u" unicode="u" horiz-adv-x="574" 
d="M573 480l-67.002 -480h-114l11 77h-2c-36 -59.333 -89.333 -89 -160 -89c-60 0 -101.667 17.833 -125 53.5s-31 80.834 -23 135.501l42 303h120l-34 -243l-4 -60c-1.33301 -20.667 3.83398 -39.334 15.501 -56.001s30.5 -25 56.5 -25c37.333 0 66.833 11.667 88.5 35
s34.834 52.333 39.501 87l36 262h120z" />
    <glyph glyph-name="v" unicode="v" horiz-adv-x="519" 
d="M199 0l-129 480h131l81 -336h2l176 336h123l-256 -480h-128z" />
    <glyph glyph-name="w" unicode="w" horiz-adv-x="796" 
d="M170 0l-100 480h130l57 -336h2l144 336h130l57 -336h2l147 336h121l-230 -480h-119l-68 328h-2l-147 -328h-124z" />
    <glyph glyph-name="x" unicode="x" horiz-adv-x="537" 
d="M-1 0l229 258l-135 222h146l76 -144l124 144h137l-195 -222l157 -258h-146l-101 172l-150 -172h-142z" />
    <glyph glyph-name="y" unicode="y" horiz-adv-x="519" 
d="M207 -4l-137.001 484h132l88 -333h2l166 333h125l-308 -583c-25.333 -48 -52.833 -82.833 -82.5 -104.5s-69.834 -32.5 -120.501 -32.5c-30.667 0 -60.667 4 -90 12l30 108c20.667 -8 40.334 -12 59.001 -12c28 0 48.833 5.16699 62.5 15.5s27.834 28.833 42.501 55.5z
" />
    <glyph glyph-name="z" unicode="z" horiz-adv-x="482" 
d="M34 0l16 111l295 271v2h-245l13 96h390l-15 -109l-299 -275h272l-13 -96h-414z" />
    <glyph glyph-name="braceleft" unicode="{" horiz-adv-x="278" 
d="M34 244l13 87.998c20.667 0 42.167 5.5 64.5 16.5s35.5 28.833 39.5 53.5l27 198c6 40.667 25.167 72.834 57.5 96.501s62.166 35.5 89.499 35.5h91l-12 -84h-55c-25.333 0 -43 -6.66699 -53 -20s-16.333 -30 -19 -50l-26 -188
c-3.33301 -24 -12.666 -43.833 -27.999 -59.5s-29.666 -26 -42.999 -31s-27 -8.5 -41 -10.5l-1 -2c64 -6 91.667 -41.667 83 -107l-25 -182c-6.66699 -46.667 10.666 -70 51.999 -70h55l-12 -84h-91c-27.333 0 -53.833 11.833 -79.5 35.5s-35.5 55.834 -29.5 96.501l26 191
c4 27.333 -3.66699 47 -23 59s-39.333 18 -60 18z" />
    <glyph glyph-name="bar" unicode="|" horiz-adv-x="401" 
d="M206 829h91v-1105h-91v1105z" />
    <glyph glyph-name="braceright" unicode="}" horiz-adv-x="278" 
d="M325 332l-12.999 -87.998c-20.667 0 -42.334 -5.5 -65.001 -16.5s-35.667 -28.833 -39 -53.5l-27 -198c-6 -40.667 -25.167 -72.834 -57.5 -96.501s-62.166 -35.5 -89.499 -35.5h-91l12 84h55c25.333 0 43 6.66699 53 20s16.333 30 19 50l26 188
c3.33301 24 12.666 43.833 27.999 59.5s29.666 26 42.999 31s27 8.5 41 10.5l1 2c-64 6 -91.667 41.667 -83 107l25 182c6.66699 46.667 -10.666 70 -51.999 70h-55l12 84h91c27.333 0 53.833 -11.833 79.5 -35.5s35.5 -55.834 29.5 -96.501l-27 -191
c-3.33301 -27.333 4.66699 -47 24 -59s39.333 -18 60 -18z" />
    <glyph glyph-name="asciitilde" unicode="~" horiz-adv-x="666" 
d="M583 385l24.0039 -84c-16 -18 -29 -32 -39 -42s-24 -19.833 -42 -29.5s-36.667 -14.5 -56 -14.5c-28 0 -60.333 11 -97 33c-38.667 23.333 -75.334 35 -110.001 35c-33.333 0 -65.333 -22.667 -96 -68l-24 84c38 57.333 82.667 86 134 86
c29.333 0 66.666 -10.667 111.999 -32c50.667 -24 82.667 -36 96 -36c12.667 0 25.667 4.16699 39 12.5s23.166 15.833 29.499 22.5s16.166 17.667 29.499 33z" />
    <glyph glyph-name="uni00A0" unicode="&#xa0;" horiz-adv-x="296" 
 />
    <glyph glyph-name="exclamdown" unicode="&#xa1;" horiz-adv-x="296" 
d="M57 -222l68 487h120l-68 -487h-120zM286 416c-3.33301 -21.333 -13.667 -39.666 -31 -54.999s-37 -23 -59 -23s-39.833 7.33301 -53.5 22s-19.167 32.667 -16.5 54s13 39.666 31 54.999s38 23 60 23c21.333 0 39 -7.33301 53 -22s19.333 -32.667 16 -54z" />
    <glyph glyph-name="cent" unicode="&#xa2;" horiz-adv-x="592" 
d="M433 559l-9.99902 -66.998c76.667 -2.66699 130 -25.667 160 -69l-88 -78c-22.667 28 -51.334 43 -86.001 45l-42 -300c36.667 0 71 15.333 103 46l62 -79c-46.667 -43.333 -106.667 -66.333 -180 -69l-10 -72h-54l10 72c-66.667 6 -116.667 32.5 -150 79.5
s-45.333 104.833 -36 173.5c9.33301 69.333 37 126.166 83 170.499s104 71.166 174 80.499l10 67h54zM313.001 90.002l42 299c-36.667 -7.33301 -66 -24.5 -88 -51.5s-35.667 -59.5 -41 -97.5c-5.33301 -36.667 -0.5 -68.667 14.5 -96s39.167 -45.333 72.5 -54z" />
    <glyph glyph-name="sterling" unicode="&#xa3;" horiz-adv-x="592" 
d="M66 0l12.999 95.999h102l31 219h-102l12 84h102l14 100c4 26 12.167 51.5 24.5 76.5s29 48.5 50 70.5s47.833 39.833 80.5 53.5s68.667 20.5 108 20.5c79.333 0 140 -21.333 182 -64l-93 -87c-26.667 28.667 -60 43 -100 43c-35.333 0 -65.166 -12.167 -89.499 -36.5
s-38.833 -53.166 -43.5 -86.499l-13 -90h162l-12 -84h-162l-31 -219h253l-13 -96h-475z" />
    <glyph glyph-name="currency" unicode="&#xa4;" horiz-adv-x="592" 
d="M109 95l-50.998 59.999l56 49c-26.667 44.667 -36 95 -28 151s31.333 106.333 70 151l-42 49l68 59l43 -48c49.333 32 101.666 48 156.999 48c56 0 104.333 -16 145 -48l55 48l52 -59l-56 -49c26.667 -45.333 36 -95.666 28 -150.999c-8 -56 -31.333 -106.333 -70 -151
l42 -49l-69 -60l-42 49c-48.667 -32.667 -101.334 -49 -158.001 -49c-55.333 0 -103.333 16.333 -144 49zM200.002 354.999c-6.66699 -46 1.33301 -82.833 24 -110.5s56.334 -41.5 101.001 -41.5s82 13.833 112 41.5s48.333 64.5 55 110.5s-1.33301 82.667 -24 110
s-56.334 41 -101.001 41s-82 -13.667 -112 -41s-48.333 -64 -55 -110z" />
    <glyph glyph-name="yen" unicode="&#xa5;" horiz-adv-x="592" 
d="M236 0l25 177h-170l11 78h170l7 48l-15 34h-151l11 78h108l-120 293h135l113 -294l191 294h129l-204 -293h108l-11 -78h-151l-23 -34l-7 -48h170l-11 -78h-170l-25 -177h-120z" />
    <glyph glyph-name="brokenbar" unicode="&#xa6;" horiz-adv-x="400" 
d="M206 746h90v-387h-90v387zM206 193h90v-385h-90v385z" />
    <glyph glyph-name="section" unicode="&#xa7;" horiz-adv-x="593" 
d="M591 625l-112.999 -59.0049c-4.66699 20 -14.834 35.667 -30.501 47s-34.167 17 -55.5 17c-22 0 -41.833 -5.66699 -59.5 -17s-28.167 -27.666 -31.5 -48.999c-2.66699 -20 5.16602 -37.667 23.499 -53s41.5 -29 69.5 -41s55.667 -25.167 83 -39.5
s49.333 -34.166 66 -59.499s22.667 -55.666 18 -90.999c-3.33301 -27.333 -14.5 -52.5 -33.5 -75.5s-42.167 -40.5 -69.5 -52.5c36 -30 51 -69.667 45 -119c-5.33301 -38 -21.5 -70.833 -48.5 -98.5s-57.833 -47.667 -92.5 -60s-70.334 -18.5 -107.001 -18.5
c-112 0 -180.333 41 -205 123l114 52c3.33301 -23.333 14.833 -41.333 34.5 -54s42.834 -19 69.501 -19c24 0 46 5.16699 66 15.5s31.667 26.833 35 49.5c2.66699 20 -5.16602 37.5 -23.499 52.5s-41.333 28.167 -69 39.5s-55.334 23.833 -83.001 37.5
s-50 32.834 -67 57.501s-23.167 54.334 -18.5 89.001c8.66699 64 47.667 113.333 117 148c-40 27.333 -56.667 65.333 -50 114c7.33301 52 33.333 92.5 78 121.5s94.334 43.5 149.001 43.5c43.333 0 82.333 -8.16699 117 -24.5s58.667 -41.833 72 -76.5zM299.001 238.995
l89.9971 -44.999c13.333 6.66699 25.5 16.667 36.5 30s17.5 26.666 19.5 39.999c2.66699 5.33301 2.83398 11.166 0.500977 17.499s-3.5 11.166 -3.5 14.499s-2.33301 7.5 -7 12.5s-7.66699 8.5 -9 10.5s-5 5 -11 9s-10.167 6.83301 -12.5 8.5
s-6.66602 4.33398 -12.999 8.00098s-10.833 6.16699 -13.5 7.5l-83 42c-20.667 -8.66699 -36.5 -18 -47.5 -28s-17.5 -24 -19.5 -42c-1.33301 -11.333 -0.5 -21.5 2.5 -30.5s9.33301 -17.167 19 -24.5s17.334 -12.666 23.001 -15.999s15.167 -8 28.5 -14z" />
    <glyph glyph-name="dieresis" unicode="&#xa8;" 
d="M39 636c3.33301 19.333 13.333 36.1699 30 50.5029s35.667 21.5 57 21.5c22 0 39.333 -6.83301 52 -20.5s17.667 -30.834 15 -51.501s-12.5 -37.834 -29.5 -51.501s-36.5 -20.5 -58.5 -20.5c-21.333 0 -38.333 7.16699 -51 21.5s-17.667 31.166 -15 50.499zM245 636.004
c3.33301 19.333 13.333 36.1699 30 50.5029s35.667 21.5 57 21.5c22 0 39.333 -6.83301 52 -20.5s17.667 -30.834 15 -51.501s-12.5 -37.834 -29.5 -51.501s-36.5 -20.5 -58.5 -20.5c-21.333 0 -38.333 7.16699 -51 21.5s-17.667 31.166 -15 50.499z" />
    <glyph glyph-name="copyright" unicode="&#xa9;" horiz-adv-x="800" 
d="M536 297l93.998 0.00195312c-13.333 -48 -38.666 -85.667 -75.999 -113s-78.666 -41 -123.999 -41c-61.333 0 -107 20.167 -137 60.5s-40.667 91.5 -32 153.5c8.66699 63.333 33 114.166 73 152.499s91.333 57.5 154 57.5c46.667 0 84.667 -12.5 114 -37.5
s44.333 -60.833 45 -107.5h-94c-2 40.667 -25 61 -69 61c-36.667 0 -65.5 -11.167 -86.5 -33.5s-34.5 -52.5 -40.5 -90.5c-5.33301 -38.667 -0.333008 -70.334 15 -95.001s40 -37 74 -37c50 0 80 23.333 90 70zM77.998 354.002
c14.667 102.667 63.3301 190.334 145.997 263.001s175.334 109 278.001 109s185.334 -36.333 248.001 -109s86.667 -160.334 72 -263.001s-63.5 -190.334 -146.5 -263.001s-175.833 -109 -278.5 -109s-185.167 36.333 -247.5 109s-86.166 160.334 -71.499 263.001z
M173.994 354.002c-11.333 -80.667 5.6709 -148.834 51.0039 -204.501s106.666 -83.5 183.999 -83.5s146.666 27.833 207.999 83.5s97.666 123.834 108.999 204.501s-5.83398 148.834 -51.501 204.501s-107.167 83.5 -184.5 83.5s-146.5 -27.833 -207.5 -83.5
s-97.167 -123.834 -108.5 -204.501z" />
    <glyph glyph-name="ordfeminine" unicode="&#xaa;" horiz-adv-x="349" 
d="M304 431l5.00098 39h-2c-22.667 -30 -59 -45 -109 -45c-10 0 -20.5 1.33301 -31.5 4s-22.333 6.83398 -34 12.501s-20.667 14.667 -27 27s-8.16602 27.166 -5.49902 44.499c3.33301 22 12.166 40.333 26.499 55s33.166 25 56.499 31s44.333 9.83301 63 11.5
s40.667 2.5 66 2.5h17l1 8c2 10.667 -3 18.834 -15 24.501s-28.333 8.5 -49 8.5c-30 0 -59.333 -10.667 -88 -32l-35 53c38 30 86 45 144 45c47.333 0 80.333 -9.83301 99 -29.5s25 -49.834 19 -90.501l-23 -169h-78zM317.001 553h-27.999
c-66.667 0 -101.334 -12.333 -104.001 -37c-1.33301 -9.33301 2.5 -16.833 11.5 -22.5s20.167 -8.5 33.5 -8.5c51.333 0 80 20.667 86 62z" />
    <glyph glyph-name="guillemotleft" unicode="&#xab;" horiz-adv-x="519" 
d="M316 421l-139 -173l91 -175l-83 -51l-120 226l183 224zM539 421l-139 -173l91 -175l-83 -51l-120 226l183 224z" />
    <glyph glyph-name="logicalnot" unicode="&#xac;" horiz-adv-x="666" 
d="M523 147l27 195h-440l14 102h542l-41 -297h-102z" />
    <glyph glyph-name="uni00AD" unicode="&#xad;" horiz-adv-x="315" 
d="M323 297l-15 -102h-247l15 102h247z" />
    <glyph glyph-name="registered" unicode="&#xae;" horiz-adv-x="800" 
d="M280 163l55.001 390.001h125c24.667 0 46.5 -1.66699 65.5 -5s36.667 -9 53 -17s28.166 -19.833 35.499 -35.5s9.33301 -34.834 6 -57.501c-4.66699 -32.667 -17.5 -60 -38.5 -82s-43.167 -34.667 -66.5 -38l78 -155h-105l-68 150h-23l-21 -150h-96zM419.001 475.001
l-11.999 -84.001h47c42 0 65 14 69 42c1.33301 9.33301 0.333008 17 -3 23s-8.33301 10.333 -15 13s-12.834 4.33398 -18.501 5.00098s-12.5 1 -20.5 1h-47zM78.002 354c14.667 102.667 63.3301 190.334 145.997 263.001s175.334 109 278.001 109
s185.334 -36.333 248.001 -109s86.667 -160.334 72 -263.001s-63.5 -190.334 -146.5 -263.001s-175.833 -109 -278.5 -109s-185.167 36.333 -247.5 109s-86.166 160.334 -71.499 263.001zM173.998 354c-11.333 -80.667 5.6709 -148.834 51.0039 -204.501
s106.666 -83.5 183.999 -83.5s146.666 27.833 207.999 83.5s97.666 123.834 108.999 204.501s-5.83398 148.834 -51.501 204.501s-107.167 83.5 -184.5 83.5s-146.5 -27.833 -207.5 -83.5s-97.167 -123.834 -108.5 -204.501z" />
    <glyph glyph-name="macron" unicode="&#xaf;" 
d="M385 673l-11 -78h-320l11 78h320z" />
    <glyph glyph-name="degree" unicode="&#xb0;" horiz-adv-x="400" 
d="M119 560c6 44 26.834 81.667 62.501 113s75.5 47 119.5 47s79.5 -15.667 106.5 -47s37.5 -69 31.5 -113c-6.66699 -44 -27.834 -81.667 -63.501 -113s-75.5 -47 -119.5 -47s-79.5 15.667 -106.5 47s-37.167 69 -30.5 113zM197.001 560
c-3.33301 -22.667 1.83301 -42 15.5 -58s31.834 -24 54.501 -24s43.167 8 61.5 24s29.166 35.333 32.499 58s-2 42 -16 58s-32.333 24 -55 24s-43.167 -8 -61.5 -24s-28.833 -35.333 -31.5 -58z" />
    <glyph glyph-name="plusminus" unicode="&#xb1;" horiz-adv-x="666" 
d="M344 431l20 143h102l-20 -143h219l-15 -102h-219l-20 -143h-102l20 143h-221l15 102h221zM66 32l15 102h542l-15 -102h-542z" />
    <glyph glyph-name="twosuperior" unicode="&#xb2;" horiz-adv-x="385" 
d="M72 289l13.002 95l201 152c30.667 23.333 47 41.666 49 54.999s-1.83301 23.166 -11.5 29.499s-22.5 9.5 -38.5 9.5c-17.333 0 -32.5 -5.16699 -45.5 -15.5s-21.167 -23.166 -24.5 -38.499l-95 6c9.33301 46 30.166 80.5 62.499 103.5s72.166 34.5 119.499 34.5
c46 0 81.5 -11 106.5 -33s34.5 -53.667 28.5 -95c-6 -43.333 -30.333 -79.666 -73 -108.999l-155 -108l-1 -2h198l-11 -84h-323z" />
    <glyph glyph-name="threesuperior" unicode="&#xb3;" horiz-adv-x="385" 
d="M212 468l12 84h32c46.667 0 72 15 76 45c1.33301 10.667 -2.33398 18.834 -11.001 24.501s-21 8.5 -37 8.5c-34 0 -56.667 -14.667 -68 -44l-100 20c28.667 76 88.667 114 180 114c43.333 0 78.666 -9.83301 105.999 -29.5s38.333 -47.834 33 -84.501
c-3.33301 -24 -13.166 -44.333 -29.499 -61s-37.166 -27.334 -62.499 -32.001v-2c26 -3.33301 45.5 -14.5 58.5 -33.5s17.833 -41.167 14.5 -66.5c-6 -41.333 -26.167 -73 -60.5 -95s-75.5 -33 -123.5 -33c-92.667 0 -142.334 39.333 -149.001 118l106 22
c2 -33.333 20.333 -50 55 -50c42.667 0 66.334 16 71.001 48c2 10.667 1.16699 19.5 -2.5 26.5s-10.167 11.833 -19.5 14.5s-17.833 4.33398 -25.5 5.00098s-18.5 1 -32.5 1h-23z" />
    <glyph glyph-name="acute" unicode="&#xb4;" 
d="M162 564l120 144h136l-162 -144h-94z" />
    <glyph glyph-name="mu" unicode="&#xb5;" horiz-adv-x="574" 
d="M135 480l119.998 0.000976562l-34 -243l-4 -60c-1.33301 -20.667 3.83398 -39.334 15.501 -56.001s30.5 -25 56.5 -25c37.333 0 66.833 11.667 88.5 35s34.834 52.333 39.501 87l36 262h120l-67 -480h-114l11 77h-2c-36 -59.333 -89.333 -89 -160 -89
c-21.333 0 -39.333 2.33301 -54 7l-31 -223h-120z" />
    <glyph glyph-name="paragraph" unicode="&#xb6;" horiz-adv-x="600" 
d="M228 -126l66.002 464c-64.667 0 -114.334 17 -149.001 51s-48.334 77.667 -41.001 131c18 125.333 104.667 188 260 188h269l-118 -834h-90l107 762h-107l-107 -762h-90z" />
    <glyph glyph-name="periodcentered" unicode="&#xb7;" horiz-adv-x="296" 
d="M109 291c2.66699 21.333 13.001 39.666 31.001 54.999s38 23 60 23s39.667 -7.33301 53 -22s18.666 -32.667 15.999 -54s-13 -39.666 -31 -54.999s-38 -23 -60 -23c-21.333 0 -38.833 7.33301 -52.5 22s-19.167 32.667 -16.5 54z" />
    <glyph glyph-name="cedilla" unicode="&#xb8;" 
d="M219 0l-49.9961 -60c18 0 32.833 -0.833008 44.5 -2.5s23.5 -5 35.5 -10s20.5 -13.333 25.5 -25s6.16699 -26.834 3.5 -45.501c-4.66699 -33.333 -22.334 -57.833 -53.001 -73.5s-64 -23.5 -100 -23.5c-36.667 0 -70.667 9.33301 -102 28l29 46
c23.333 -13.333 49.666 -20 78.999 -20c14 0 27.5 3.33301 40.5 10s20.5 17.334 22.5 32.001c1.33301 12 -2.83398 21 -12.501 27s-20.834 9 -33.501 9c-11.333 0 -24 -2.33301 -38 -7l-24 25l75 90h58z" />
    <glyph glyph-name="onesuperior" unicode="&#xb9;" horiz-adv-x="385" 
d="M220 289l44 317l-94 -75l-46 66l166 117h91l-59 -425h-102z" />
    <glyph glyph-name="ordmasculine" unicode="&#xba;" horiz-adv-x="397" 
d="M257 425c-47.333 0 -85.167 13.833 -113.5 41.5s-39.166 62.834 -32.499 105.501c6.66699 43.333 27.667 78.833 63 106.5s76.666 41.5 123.999 41.5c48 0 86.333 -13.833 115 -41.5s39.667 -63.167 33 -106.5c-6 -42.667 -27 -77.834 -63 -105.501s-78 -41.5 -126 -41.5
zM266.999 497c26 0 47.833 7.83105 65.5 23.498s27.5 32.834 29.5 51.501c2.66699 19.333 -2.5 36.833 -15.5 52.5s-32.5 23.5 -58.5 23.5s-47.667 -7.83301 -65 -23.5s-27.333 -33.167 -30 -52.5c-2 -19.333 3.33301 -36.666 16 -51.999s32 -23 58 -23z" />
    <glyph glyph-name="guillemotright" unicode="&#xbb;" horiz-adv-x="519" 
d="M272 73l140 173l-92 175l83 51l121 -226l-184 -224zM49 73l140 173l-92 175l83 51l121 -226l-184 -224z" />
    <glyph glyph-name="onequarter" unicode="&#xbc;" horiz-adv-x="889" 
d="M705 0l12 85h-198l11 78l225 262h112l-36 -256h53l-12 -84h-53l-12 -85h-102zM729 169l19 134l-1 2l-114 -136h96zM209 289l44 317l-94 -75l-46 66l166 117h91l-59 -425h-102zM185 6l519 734l78 -38l-519 -734z" />
    <glyph glyph-name="onehalf" unicode="&#xbd;" horiz-adv-x="889" 
d="M212 289l44 317l-94 -75l-46 66l166 117h91l-59 -425h-102zM535 0l13 94.999l201 152c0.666992 0.666992 2.83398 2.5 6.50098 5.5s6.16699 5 7.5 6l7 5.5c3.33301 2.66699 5.66602 4.66699 6.99902 6l6 6c2.66699 2.66699 4.5 4.83398 5.5 6.50098s2.33301 3.66699 4 6
s2.83398 4.66602 3.50098 6.99902s1 4.5 1 6.5c2 13.333 -1.83301 23.166 -11.5 29.499s-22.5 9.5 -38.5 9.5c-17.333 0 -32.5 -5.16699 -45.5 -15.5s-21.167 -23.166 -24.5 -38.499l-95 6c9.33301 46 30.333 80.5 63 103.5s72.667 34.5 120 34.5c46 0 81.5 -11 106.5 -33
s34.5 -53.667 28.5 -95c-6.66699 -43.333 -31.334 -79.666 -74.001 -108.999l-155 -108v-2h198l-12 -84h-322zM187 5.99902l519 734l78 -38l-519 -734z" />
    <glyph glyph-name="threequarters" unicode="&#xbe;" horiz-adv-x="889" 
d="M737 157l25 178h-2l-143 -176v-2h120zM712 0l12 85h-198l11 78l225 262h112l-36 -256h52l-12 -84h-52l-12 -85h-102zM208 468l12 84h32c46.667 0 72 15 76 45c1.33301 10.667 -2.33398 18.834 -11.001 24.501s-21 8.5 -37 8.5c-34 0 -56.667 -14.667 -68 -44l-100 20
c28.667 76 88.667 114 180 114c43.333 0 78.666 -9.83301 105.999 -29.5s38.333 -47.834 33 -84.501c-3.33301 -24 -13.166 -44.333 -29.499 -61s-37.166 -27.334 -62.499 -32.001v-2c26 -3.33301 45.5 -14.5 58.5 -33.5s17.833 -41.167 14.5 -66.5
c-6 -41.333 -26.167 -73 -60.5 -95s-75.5 -33 -123.5 -33c-92.667 0 -142.334 39.333 -149.001 118l106 22c2 -33.333 20.333 -50 55 -50c42.667 0 66.334 16 71.001 48c2 10.667 1.16699 19.5 -2.5 26.5s-10.167 11.833 -19.5 14.5s-17.833 4.33398 -25.5 5.00098
s-18.5 1 -32.5 1h-23zM212 6l519 734l78 -38l-519 -734z" />
    <glyph glyph-name="questiondown" unicode="&#xbf;" horiz-adv-x="519" 
d="M228 277h119.999l-8 -55c-4 -28 -10.333 -48.833 -19 -62.5s-25.667 -31.834 -51 -54.501l-88 -78c-19.333 -16.667 -30.666 -38.334 -33.999 -65.001c-4 -26 1.33301 -47.167 16 -63.5s35 -24.5 61 -24.5c27.333 0 51.5 9.33301 72.5 28s34.833 42 41.5 70l127 -10
c-16.667 -62.667 -48.5 -112 -95.5 -148s-102.5 -54 -166.5 -54c-61.333 0 -109.333 17.167 -144 51.5s-47.667 82.166 -39 143.499c2.66699 19.333 7.33398 37 14.001 53s16.667 31.667 30 47s24.666 27.333 33.999 36s24.333 21.334 45 38.001
c5.33301 4.66699 9.33301 8 12 10c18 15.333 29.833 25.833 35.5 31.5s11.667 14.334 18 26.001s10.833 25.834 13.5 42.501zM386.999 416c-3.33301 -21.333 -13.667 -39.666 -31 -54.999s-37 -23 -59 -23s-39.833 7.33301 -53.5 22s-19.167 32.667 -16.5 54
s13 39.666 31 54.999s38 23 60 23c21.333 0 39 -7.33301 53 -22s19.333 -32.667 16 -54z" />
    <glyph glyph-name="Agrave" unicode="&#xc0;" horiz-adv-x="722" 
d="M0 0l408 708h109l205 -708h-144l-43 162h-307l-87 -162h-141zM286 270h220l-69 288zM435 900l79 -144h-94l-121 144h136z" />
    <glyph glyph-name="Aacute" unicode="&#xc1;" horiz-adv-x="722" 
d="M0 0l408 708h109l205 -708h-144l-43 162h-307l-87 -162h-141zM286 270h220l-69 288zM420 756l119 144h136l-161 -144h-94z" />
    <glyph glyph-name="Acircumflex" unicode="&#xc2;" horiz-adv-x="722" 
d="M0 0l408 708h109l205 -708h-144l-43 162h-307l-87 -162h-141zM286 270h220l-69 288zM649 756h-114l-56 90l-82 -90h-112l135 144h135z" />
    <glyph glyph-name="Atilde" unicode="&#xc3;" horiz-adv-x="722" 
d="M0 0l408 708h109l205 -708h-144l-43 162h-307l-87 -162h-141zM286 270h220l-69 288zM350 760h-66.002c26.667 84.667 70 127 130 127c20 0 45.833 -6.16699 77.5 -18.5s51.834 -18.5 60.501 -18.5c22 0 39.333 14 52 42h66c-26.667 -84.667 -69.667 -127 -129 -127
c-20 0 -46 6.33301 -78 19s-52.333 19 -61 19c-21.333 0 -38.666 -14.333 -51.999 -43z" />
    <glyph glyph-name="Adieresis" unicode="&#xc4;" horiz-adv-x="722" 
d="M0 0l408 708h109l205 -708h-144l-43 162h-307l-87 -162h-141zM286 270h220l-69 288zM297 828c3.33301 19.333 13.168 36.1699 29.501 50.5029s35.166 21.5 56.499 21.5c22 0 39.5 -6.83301 52.5 -20.5s18.167 -30.834 15.5 -51.501s-12.5 -37.834 -29.5 -51.501
s-36.5 -20.5 -58.5 -20.5c-21.333 0 -38.333 7.16699 -51 21.5s-17.667 31.166 -15 50.499zM503.002 828.004c3.33301 19.333 13.168 36.1699 29.501 50.5029s35.166 21.5 56.499 21.5c22 0 39.5 -6.83301 52.5 -20.5s18.167 -30.834 15.5 -51.501
s-12.5 -37.834 -29.5 -51.501s-36.5 -20.5 -58.5 -20.5c-21.333 0 -38.333 7.16699 -51 21.5s-17.667 31.166 -15 50.499z" />
    <glyph glyph-name="Aring" unicode="&#xc5;" horiz-adv-x="722" 
d="M0 0l408 708h109l205 -708h-144l-43 162h-307l-87 -162h-141zM286 270h220l-69 288zM584 837c-4.66699 -29.333 -18.501 -53.668 -41.501 -73.001s-49.167 -29 -78.5 -29s-52.833 9.66699 -70.5 29s-24.5 43.333 -20.5 72c4.66699 29.333 18.334 53.833 41.001 73.5
s49 29.5 79 29.5s53.667 -9.66699 71 -29s24 -43.666 20 -72.999zM535.999 836.998c2 15.333 -2.00098 28.166 -12.001 38.499s-22.667 15.5 -38 15.5s-29.333 -5.16699 -42 -15.5s-20 -23.166 -22 -38.499c-2.66699 -15.333 1 -28.166 11 -38.499s22.667 -15.5 38 -15.5
s29.333 5.16699 42 15.5s20.334 23.166 23.001 38.499z" />
    <glyph glyph-name="AE" unicode="&#xc6;" horiz-adv-x="1000" 
d="M529 0l26 186h-268l-140 -186h-153l553 708h496l-17 -114h-288l-24 -174h270l-16 -114h-270l-27 -192h300l-16 -114h-426zM368 294h202l42 300h-15z" />
    <glyph glyph-name="Ccedilla" unicode="&#xc7;" horiz-adv-x="685" 
d="M749 614l-107.995 -72.001c-37.333 46.667 -83.666 70 -138.999 70c-72 0 -134 -24.167 -186 -72.5s-83 -108.5 -93 -180.5c-10.667 -76.667 3 -139.667 41 -189s93 -74 165 -74c61.333 0 118.666 28.667 171.999 86l93 -74c-71.333 -82.667 -164 -124.667 -278 -126
l-34 -42c18 0 32.833 -0.833008 44.5 -2.5s23.5 -5 35.5 -10s20.5 -13.333 25.5 -25s6.16699 -26.834 3.5 -45.501c-4.66699 -33.333 -22.334 -57.833 -53.001 -73.5s-64 -23.5 -100 -23.5c-36.667 0 -70.667 9.33301 -102 28l29 46c23.333 -13.333 49.666 -20 78.999 -20
c14 0 27.5 3.33301 40.5 10s20.5 17.334 22.5 32.001c1.33301 12 -2.83398 21 -12.501 27s-20.834 9 -33.501 9c-11.333 0 -24 -2.33301 -38 -7l-24 25l62 75c-94.667 11.333 -167 50 -217 116s-68 149.333 -54 250c16 112.667 63.667 203.334 143 272.001s174 103 284 103
c101.333 0 178.666 -37.333 231.999 -112z" />
    <glyph glyph-name="Egrave" unicode="&#xc8;" horiz-adv-x="611" 
d="M79 0l100 708h469l-17 -114h-343l-24 -174h325l-16 -114h-325l-27 -192h361l-16 -114h-487zM380 900l79 -144h-94l-121 144h136z" />
    <glyph glyph-name="Eacute" unicode="&#xc9;" horiz-adv-x="611" 
d="M79 0l100 708h469l-17 -114h-343l-24 -174h325l-16 -114h-325l-27 -192h361l-16 -114h-487zM365 756l119 144h136l-161 -144h-94z" />
    <glyph glyph-name="Ecircumflex" unicode="&#xca;" horiz-adv-x="611" 
d="M79 0l100 708h469l-17 -114h-343l-24 -174h325l-16 -114h-325l-27 -192h361l-16 -114h-487zM594 756h-114l-56 90l-82 -90h-112l135 144h135z" />
    <glyph glyph-name="Edieresis" unicode="&#xcb;" horiz-adv-x="611" 
d="M79 0l100 708h469l-17 -114h-343l-24 -174h325l-16 -114h-325l-27 -192h361l-16 -114h-487zM242 828c3.33301 19.333 13.168 36.1699 29.501 50.5029s35.166 21.5 56.499 21.5c22 0 39.5 -6.83301 52.5 -20.5s18.167 -30.834 15.5 -51.501s-12.5 -37.834 -29.5 -51.501
s-36.5 -20.5 -58.5 -20.5c-21.333 0 -38.333 7.16699 -51 21.5s-17.667 31.166 -15 50.499zM448.002 828.004c3.33301 19.333 13.168 36.1699 29.501 50.5029s35.166 21.5 56.499 21.5c22 0 39.5 -6.83301 52.5 -20.5s18.167 -30.834 15.5 -51.501
s-12.5 -37.834 -29.5 -51.501s-36.5 -20.5 -58.5 -20.5c-21.333 0 -38.333 7.16699 -51 21.5s-17.667 31.166 -15 50.499z" />
    <glyph glyph-name="Igrave" unicode="&#xcc;" horiz-adv-x="278" 
d="M76 0l100 708h126l-100 -708h-126zM213 900l79 -144h-94l-121 144h136z" />
    <glyph glyph-name="Iacute" unicode="&#xcd;" horiz-adv-x="278" 
d="M76 0l100 708h126l-100 -708h-126zM198 756l119 144h136l-161 -144h-94z" />
    <glyph glyph-name="Icircumflex" unicode="&#xce;" horiz-adv-x="278" 
d="M76 0l100 708h126l-100 -708h-126zM427 756h-114l-56 90l-82 -90h-112l135 144h135z" />
    <glyph glyph-name="Idieresis" unicode="&#xcf;" horiz-adv-x="278" 
d="M76 0l100 708h126l-100 -708h-126zM75 828c3.33301 19.333 13.168 36.1699 29.501 50.5029s35.166 21.5 56.499 21.5c22 0 39.5 -6.83301 52.5 -20.5s18.167 -30.834 15.5 -51.501s-12.5 -37.834 -29.5 -51.501s-36.5 -20.5 -58.5 -20.5
c-21.333 0 -38.333 7.16699 -51 21.5s-17.667 31.166 -15 50.499zM281.002 828.004c3.33301 19.333 13.168 36.1699 29.501 50.5029s35.166 21.5 56.499 21.5c22 0 39.5 -6.83301 52.5 -20.5s18.167 -30.834 15.5 -51.501s-12.5 -37.834 -29.5 -51.501
s-36.5 -20.5 -58.5 -20.5c-21.333 0 -38.333 7.16699 -51 21.5s-17.667 31.166 -15 50.499z" />
    <glyph glyph-name="Eth" unicode="&#xd0;" horiz-adv-x="759" 
d="M79 0l46.001 324.001h-66l11 84h66l43 300h279c100 0 180.5 -30.667 241.5 -92s83.833 -148.666 68.5 -261.999c-8 -58 -26.833 -110.333 -56.5 -157s-64.834 -83.834 -105.501 -111.501s-83.667 -48.834 -129 -63.501s-90 -22 -134 -22h-264zM221.001 114.001
l94 0.000976562c85.333 0 157.333 19.667 216 59s93.667 99.666 105 180.999c11.333 82 -4.16699 142.5 -46.5 181.5s-104.5 58.5 -186.5 58.5h-115l-26 -186h216l-11 -84h-216z" />
    <glyph glyph-name="Ntilde" unicode="&#xd1;" horiz-adv-x="796" 
d="M79 0l100 708h167l269 -526h2l74 526h126l-100 -708h-160l-274 543h-2l-76 -543h-126zM387 760h-66.002c26.667 84.667 70 127 130 127c20 0 45.833 -6.16699 77.5 -18.5s51.834 -18.5 60.501 -18.5c22 0 39.333 14 52 42h66c-26.667 -84.667 -69.667 -127 -129 -127
c-20 0 -46 6.33301 -78 19s-52.333 19 -61 19c-21.333 0 -38.666 -14.333 -51.999 -43z" />
    <glyph glyph-name="Ograve" unicode="&#xd2;" horiz-adv-x="833" 
d="M90 351c16 112.667 63.667 203.333 143 272s174 103 284 103c111.333 2 197.333 -31.167 258 -99.5s83 -158.833 67 -271.5c-15.333 -110 -62.833 -199.167 -142.5 -267.5s-175.5 -103.5 -287.5 -105.5c-110 0 -195 34 -255 102s-82.333 157 -67 267zM223 358.999
c-10.667 -76.667 3 -139.667 41 -189s93 -74 165 -74c72.667 0 135 24.667 187 74s83.333 112.333 94 189c10 72 -4.16699 132.167 -42.5 180.5s-93.5 72.5 -165.5 72.5s-134 -24.167 -186 -72.5s-83 -108.5 -93 -180.5zM491 899.999l79 -144h-94l-121 144h136z" />
    <glyph glyph-name="Oacute" unicode="&#xd3;" horiz-adv-x="833" 
d="M90 351c16 112.667 63.667 203.333 143 272s174 103 284 103c111.333 2 197.333 -31.167 258 -99.5s83 -158.833 67 -271.5c-15.333 -110 -62.833 -199.167 -142.5 -267.5s-175.5 -103.5 -287.5 -105.5c-110 0 -195 34 -255 102s-82.333 157 -67 267zM223 358.999
c-10.667 -76.667 3 -139.667 41 -189s93 -74 165 -74c72.667 0 135 24.667 187 74s83.333 112.333 94 189c10 72 -4.16699 132.167 -42.5 180.5s-93.5 72.5 -165.5 72.5s-134 -24.167 -186 -72.5s-83 -108.5 -93 -180.5zM476 755.999l119 144h136l-161 -144h-94z" />
    <glyph glyph-name="Ocircumflex" unicode="&#xd4;" horiz-adv-x="833" 
d="M90 351c16 112.667 63.667 203.333 143 272s174 103 284 103c111.333 2 197.333 -31.167 258 -99.5s83 -158.833 67 -271.5c-15.333 -110 -62.833 -199.167 -142.5 -267.5s-175.5 -103.5 -287.5 -105.5c-110 0 -195 34 -255 102s-82.333 157 -67 267zM223 358.999
c-10.667 -76.667 3 -139.667 41 -189s93 -74 165 -74c72.667 0 135 24.667 187 74s83.333 112.333 94 189c10 72 -4.16699 132.167 -42.5 180.5s-93.5 72.5 -165.5 72.5s-134 -24.167 -186 -72.5s-83 -108.5 -93 -180.5zM705 755.999h-114l-56 90l-82 -90h-112l135 144h135z
" />
    <glyph glyph-name="Otilde" unicode="&#xd5;" horiz-adv-x="833" 
d="M90 351c16 112.667 63.667 203.333 143 272s174 103 284 103c111.333 2 197.333 -31.167 258 -99.5s83 -158.833 67 -271.5c-15.333 -110 -62.833 -199.167 -142.5 -267.5s-175.5 -103.5 -287.5 -105.5c-110 0 -195 34 -255 102s-82.333 157 -67 267zM223 358.999
c-10.667 -76.667 3 -139.667 41 -189s93 -74 165 -74c72.667 0 135 24.667 187 74s83.333 112.333 94 189c10 72 -4.16699 132.167 -42.5 180.5s-93.5 72.5 -165.5 72.5s-134 -24.167 -186 -72.5s-83 -108.5 -93 -180.5zM406 759.999h-66.002c26.667 84.667 70 127 130 127
c20 0 45.833 -6.16699 77.5 -18.5s51.834 -18.5 60.501 -18.5c22 0 39.333 14 52 42h66c-26.667 -84.667 -69.667 -127 -129 -127c-20 0 -46 6.33301 -78 19s-52.333 19 -61 19c-21.333 0 -38.666 -14.333 -51.999 -43z" />
    <glyph glyph-name="Odieresis" unicode="&#xd6;" horiz-adv-x="833" 
d="M90 351c16 112.667 63.667 203.333 143 272s174 103 284 103c111.333 2 197.333 -31.167 258 -99.5s83 -158.833 67 -271.5c-15.333 -110 -62.833 -199.167 -142.5 -267.5s-175.5 -103.5 -287.5 -105.5c-110 0 -195 34 -255 102s-82.333 157 -67 267zM223 358.999
c-10.667 -76.667 3 -139.667 41 -189s93 -74 165 -74c72.667 0 135 24.667 187 74s83.333 112.333 94 189c10 72 -4.16699 132.167 -42.5 180.5s-93.5 72.5 -165.5 72.5s-134 -24.167 -186 -72.5s-83 -108.5 -93 -180.5zM353 827.999
c3.33301 19.333 13.168 36.1699 29.501 50.5029s35.166 21.5 56.499 21.5c22 0 39.5 -6.83301 52.5 -20.5s18.167 -30.834 15.5 -51.501s-12.5 -37.834 -29.5 -51.501s-36.5 -20.5 -58.5 -20.5c-21.333 0 -38.333 7.16699 -51 21.5s-17.667 31.166 -15 50.499z
M559.002 828.003c3.33301 19.333 13.168 36.1699 29.501 50.5029s35.166 21.5 56.499 21.5c22 0 39.5 -6.83301 52.5 -20.5s18.167 -30.834 15.5 -51.501s-12.5 -37.834 -29.5 -51.501s-36.5 -20.5 -58.5 -20.5c-21.333 0 -38.333 7.16699 -51 21.5
s-17.667 31.166 -15 50.499z" />
    <glyph glyph-name="multiply" unicode="&#xd7;" horiz-adv-x="666" 
d="M228 557l158 -183l207 182l60 -70l-206 -181l159 -186l-85 -74l-157 181l-207 -181l-63 73l210 182l-158 186z" />
    <glyph glyph-name="Oslash" unicode="&#xd8;" horiz-adv-x="833" 
d="M247 197l392 370c-37.333 30 -83 45 -137 45c-72 0 -134 -24.167 -186 -72.5s-83 -108.5 -93 -180.5c-8 -62 0 -116 24 -162zM679 521l-394 -373c38 -34.667 86 -52 144 -52c72.667 0 135 24.667 187 74s83.333 112.333 94 189c9.33301 64.667 -1 118.667 -31 162z
M838 755l43 -43l-99 -94c54.667 -67.333 74.667 -155 60 -263c-15.333 -110 -62.833 -199.167 -142.5 -267.5s-175.5 -103.5 -287.5 -105.5c-92 0 -167 24.667 -225 74l-98 -92l-44 43l100 94c-50.667 67.333 -69 150.666 -55 249.999
c16 112.667 63.667 203.334 143 272.001s174 103 284 103c87.333 2 161 -19.667 221 -65z" />
    <glyph glyph-name="Ugrave" unicode="&#xd9;" horiz-adv-x="722" 
d="M746 708l-63 -448c-12 -84 -48.5 -151.333 -109.5 -202s-132.833 -76 -215.5 -76s-147.167 25.333 -193.5 76s-63.5 118 -51.5 202l63 448h126l-63 -444c-6 -42 1.5 -79.5 22.5 -112.5s58.833 -49.5 113.5 -49.5s97.167 16.5 127.5 49.5s48.5 70.5 54.5 112.5l63 444h126
zM435 900l79 -144h-94l-121 144h136z" />
    <glyph glyph-name="Uacute" unicode="&#xda;" horiz-adv-x="722" 
d="M746 708l-63 -448c-12 -84 -48.5 -151.333 -109.5 -202s-132.833 -76 -215.5 -76s-147.167 25.333 -193.5 76s-63.5 118 -51.5 202l63 448h126l-63 -444c-6 -42 1.5 -79.5 22.5 -112.5s58.833 -49.5 113.5 -49.5s97.167 16.5 127.5 49.5s48.5 70.5 54.5 112.5l63 444h126
zM420 756l119 144h136l-161 -144h-94z" />
    <glyph glyph-name="Ucircumflex" unicode="&#xdb;" horiz-adv-x="722" 
d="M746 708l-63 -448c-12 -84 -48.5 -151.333 -109.5 -202s-132.833 -76 -215.5 -76s-147.167 25.333 -193.5 76s-63.5 118 -51.5 202l63 448h126l-63 -444c-6 -42 1.5 -79.5 22.5 -112.5s58.833 -49.5 113.5 -49.5s97.167 16.5 127.5 49.5s48.5 70.5 54.5 112.5l63 444h126
zM649 756h-114l-56 90l-82 -90h-112l135 144h135z" />
    <glyph glyph-name="Udieresis" unicode="&#xdc;" horiz-adv-x="722" 
d="M746 708l-63 -448c-12 -84 -48.5 -151.333 -109.5 -202s-132.833 -76 -215.5 -76s-147.167 25.333 -193.5 76s-63.5 118 -51.5 202l63 448h126l-63 -444c-6 -42 1.5 -79.5 22.5 -112.5s58.833 -49.5 113.5 -49.5s97.167 16.5 127.5 49.5s48.5 70.5 54.5 112.5l63 444h126
zM297 828c3.33301 19.333 13.168 36.1699 29.501 50.5029s35.166 21.5 56.499 21.5c22 0 39.5 -6.83301 52.5 -20.5s18.167 -30.834 15.5 -51.501s-12.5 -37.834 -29.5 -51.501s-36.5 -20.5 -58.5 -20.5c-21.333 0 -38.333 7.16699 -51 21.5s-17.667 31.166 -15 50.499z
M503.002 828.004c3.33301 19.333 13.168 36.1699 29.501 50.5029s35.166 21.5 56.499 21.5c22 0 39.5 -6.83301 52.5 -20.5s18.167 -30.834 15.5 -51.501s-12.5 -37.834 -29.5 -51.501s-36.5 -20.5 -58.5 -20.5c-21.333 0 -38.333 7.16699 -51 21.5
s-17.667 31.166 -15 50.499z" />
    <glyph glyph-name="Yacute" unicode="&#xdd;" horiz-adv-x="630" 
d="M252 0l43 303l-209 405h158l134 -282l216 282h150l-323 -405l-43 -303h-126zM374 756l119 144h136l-161 -144h-94z" />
    <glyph glyph-name="Thorn" unicode="&#xde;" horiz-adv-x="611" 
d="M79 0l100.001 707.999h126l-20 -137h112c36 0 68.5 -3.5 97.5 -10.5s55 -18 78 -33s39.5 -36.167 49.5 -63.5s12.333 -60 7 -98c-4.66699 -34.667 -14 -64.667 -28 -90s-30.333 -45.666 -49 -60.999s-41.334 -27.5 -68.001 -36.5s-53 -15 -79 -18s-55.333 -4.5 -88 -4.5
h-90l-22 -156h-126zM242.001 263.999l75.999 -0.000976562c18 0 33.167 0.333008 45.5 1s27 2.83398 44 6.50098s31 8.83398 42 15.501s21 16.5 30 29.5s14.833 28.833 17.5 47.5c4 27.333 -1.33301 48.666 -16 63.999s-31.667 25 -51 29s-42.666 6 -69.999 6h-90z" />
    <glyph glyph-name="germandbls" unicode="&#xdf;" horiz-adv-x="611" 
d="M56 0l72.002 511.003c12.667 89.333 41.5 154.5 86.5 195.5s108.167 61.5 189.5 61.5c61.333 0 110.5 -16.167 147.5 -48.5s51.5 -77.833 43.5 -136.5c-10.667 -76 -53.334 -128.667 -128.001 -158l-1 -2c50.667 -6.66699 87.167 -28.834 109.5 -66.501
s29.833 -83.834 22.5 -138.501c-10 -68 -40 -123.333 -90 -166s-109.333 -64 -178 -64c-30 0 -57.333 3.66699 -82 11l14 101c14 -6.66699 32 -10 54 -10c42.667 0 79 12.5 109 37.5s48 58.5 54 100.5c6.66699 46 -2.16602 81.333 -26.499 106s-59.5 37 -105.5 37h-14
l14 102h8c30 0 56 8.5 78 25.5s35.333 39.833 40 68.5c3.33301 27.333 -3.5 49.666 -20.5 66.999s-39.5 26 -67.5 26c-38.667 0 -69.334 -11.167 -92.001 -33.5s-36.334 -51.5 -41.001 -87.5l-76 -539h-120z" />
    <glyph glyph-name="agrave" unicode="&#xe0;" horiz-adv-x="537" 
d="M368 0l8.99902 66h-3c-39.333 -52 -94.333 -78 -165 -78c-48 0 -87.333 12.667 -118 38s-42.667 60.666 -36 105.999c4 30 14.333 55.667 31 77s35.667 37.666 57 48.999s47.333 20.333 78 27s57.5 10.667 80.5 12s49.167 2 78.5 2h30l2 13
c4 28.667 -3 50.834 -21 66.501s-43.333 23.5 -76 23.5c-49.333 0 -94.666 -16.667 -135.999 -50l-54 63c58 51.333 129.667 77 215 77c28 0 52.833 -3 74.5 -9s38.834 -13.167 51.501 -21.5s23.167 -19.666 31.5 -33.999s14.166 -26.833 17.499 -37.5s5 -24.667 5 -42
s-0.333008 -30 -1 -38s-2 -19.333 -4 -34l-39 -276h-108zM386.999 188l4 27.001h-25c-119.333 0 -182.666 -24.667 -189.999 -74c-2.66699 -20.667 3.66602 -36.334 18.999 -47.001s34 -16 56 -16c40 0 71.5 9.66699 94.5 29s36.833 46.333 41.5 81zM316.999 708.001
l78 -144h-94l-120 144h136z" />
    <glyph glyph-name="aacute" unicode="&#xe1;" horiz-adv-x="537" 
d="M368 0l8.99902 66h-3c-39.333 -52 -94.333 -78 -165 -78c-48 0 -87.333 12.667 -118 38s-42.667 60.666 -36 105.999c4 30 14.333 55.667 31 77s35.667 37.666 57 48.999s47.333 20.333 78 27s57.5 10.667 80.5 12s49.167 2 78.5 2h30l2 13
c4 28.667 -3 50.834 -21 66.501s-43.333 23.5 -76 23.5c-49.333 0 -94.666 -16.667 -135.999 -50l-54 63c58 51.333 129.667 77 215 77c28 0 52.833 -3 74.5 -9s38.834 -13.167 51.501 -21.5s23.167 -19.666 31.5 -33.999s14.166 -26.833 17.499 -37.5s5 -24.667 5 -42
s-0.333008 -30 -1 -38s-2 -19.333 -4 -34l-39 -276h-108zM386.999 188l4 27.001h-25c-119.333 0 -182.666 -24.667 -189.999 -74c-2.66699 -20.667 3.66602 -36.334 18.999 -47.001s34 -16 56 -16c40 0 71.5 9.66699 94.5 29s36.833 46.333 41.5 81zM300.999 564.001
l120 144h136l-162 -144h-94z" />
    <glyph glyph-name="acircumflex" unicode="&#xe2;" horiz-adv-x="537" 
d="M368 0l8.99902 66h-3c-39.333 -52 -94.333 -78 -165 -78c-48 0 -87.333 12.667 -118 38s-42.667 60.666 -36 105.999c4 30 14.333 55.667 31 77s35.667 37.666 57 48.999s47.333 20.333 78 27s57.5 10.667 80.5 12s49.167 2 78.5 2h30l2 13
c4 28.667 -3 50.834 -21 66.501s-43.333 23.5 -76 23.5c-49.333 0 -94.666 -16.667 -135.999 -50l-54 63c58 51.333 129.667 77 215 77c28 0 52.833 -3 74.5 -9s38.834 -13.167 51.501 -21.5s23.167 -19.666 31.5 -33.999s14.166 -26.833 17.499 -37.5s5 -24.667 5 -42
s-0.333008 -30 -1 -38s-2 -19.333 -4 -34l-39 -276h-108zM386.999 188l4 27.001h-25c-119.333 0 -182.666 -24.667 -189.999 -74c-2.66699 -20.667 3.66602 -36.334 18.999 -47.001s34 -16 56 -16c40 0 71.5 9.66699 94.5 29s36.833 46.333 41.5 81zM529.999 564.001h-114
l-56 90l-82 -90h-112l136 144h135z" />
    <glyph glyph-name="atilde" unicode="&#xe3;" horiz-adv-x="537" 
d="M368 0l8.99902 66h-3c-39.333 -52 -94.333 -78 -165 -78c-48 0 -87.333 12.667 -118 38s-42.667 60.666 -36 105.999c4 30 14.333 55.667 31 77s35.667 37.666 57 48.999s47.333 20.333 78 27s57.5 10.667 80.5 12s49.167 2 78.5 2h30l2 13
c4 28.667 -3 50.834 -21 66.501s-43.333 23.5 -76 23.5c-49.333 0 -94.666 -16.667 -135.999 -50l-54 63c58 51.333 129.667 77 215 77c28 0 52.833 -3 74.5 -9s38.834 -13.167 51.501 -21.5s23.167 -19.666 31.5 -33.999s14.166 -26.833 17.499 -37.5s5 -24.667 5 -42
s-0.333008 -30 -1 -38s-2 -19.333 -4 -34l-39 -276h-108zM386.999 188l4 27.001h-25c-119.333 0 -182.666 -24.667 -189.999 -74c-2.66699 -20.667 3.66602 -36.334 18.999 -47.001s34 -16 56 -16c40 0 71.5 9.66699 94.5 29s36.833 46.333 41.5 81zM230.999 568.001
h-66.002c26.667 84.667 70 127 130 127c20 0 45.833 -6.16699 77.5 -18.5s51.834 -18.5 60.501 -18.5c22 0 39.333 14 52 42h66c-26.667 -84.667 -69.667 -127 -129 -127c-20 0 -46 6.33301 -78 19s-52.333 19 -61 19c-21.333 0 -38.666 -14.333 -51.999 -43z" />
    <glyph glyph-name="adieresis" unicode="&#xe4;" horiz-adv-x="537" 
d="M368 0l8.99902 66h-3c-39.333 -52 -94.333 -78 -165 -78c-48 0 -87.333 12.667 -118 38s-42.667 60.666 -36 105.999c4 30 14.333 55.667 31 77s35.667 37.666 57 48.999s47.333 20.333 78 27s57.5 10.667 80.5 12s49.167 2 78.5 2h30l2 13
c4 28.667 -3 50.834 -21 66.501s-43.333 23.5 -76 23.5c-49.333 0 -94.666 -16.667 -135.999 -50l-54 63c58 51.333 129.667 77 215 77c28 0 52.833 -3 74.5 -9s38.834 -13.167 51.501 -21.5s23.167 -19.666 31.5 -33.999s14.166 -26.833 17.499 -37.5s5 -24.667 5 -42
s-0.333008 -30 -1 -38s-2 -19.333 -4 -34l-39 -276h-108zM386.999 188l4 27.001h-25c-119.333 0 -182.666 -24.667 -189.999 -74c-2.66699 -20.667 3.66602 -36.334 18.999 -47.001s34 -16 56 -16c40 0 71.5 9.66699 94.5 29s36.833 46.333 41.5 81zM177.999 636.001
c3.33301 19.333 13.333 36.1699 30 50.5029s35.667 21.5 57 21.5c22 0 39.333 -6.83301 52 -20.5s17.667 -30.834 15 -51.501s-12.5 -37.834 -29.5 -51.501s-36.5 -20.5 -58.5 -20.5c-21.333 0 -38.333 7.16699 -51 21.5s-17.667 31.166 -15 50.499zM383.999 636.005
c3.33301 19.333 13.333 36.1699 30 50.5029s35.667 21.5 57 21.5c22 0 39.333 -6.83301 52 -20.5s17.667 -30.834 15 -51.501s-12.5 -37.834 -29.5 -51.501s-36.5 -20.5 -58.5 -20.5c-21.333 0 -38.333 7.16699 -51 21.5s-17.667 31.166 -15 50.499z" />
    <glyph glyph-name="aring" unicode="&#xe5;" horiz-adv-x="537" 
d="M368 0l8.99902 66h-3c-39.333 -52 -94.333 -78 -165 -78c-48 0 -87.333 12.667 -118 38s-42.667 60.666 -36 105.999c4 30 14.333 55.667 31 77s35.667 37.666 57 48.999s47.333 20.333 78 27s57.5 10.667 80.5 12s49.167 2 78.5 2h30l2 13
c4 28.667 -3 50.834 -21 66.501s-43.333 23.5 -76 23.5c-49.333 0 -94.666 -16.667 -135.999 -50l-54 63c58 51.333 129.667 77 215 77c28 0 52.833 -3 74.5 -9s38.834 -13.167 51.501 -21.5s23.167 -19.666 31.5 -33.999s14.166 -26.833 17.499 -37.5s5 -24.667 5 -42
s-0.333008 -30 -1 -38s-2 -19.333 -4 -34l-39 -276h-108zM386.999 188l4 27.001h-25c-119.333 0 -182.666 -24.667 -189.999 -74c-2.66699 -20.667 3.66602 -36.334 18.999 -47.001s34 -16 56 -16c40 0 71.5 9.66699 94.5 29s36.833 46.333 41.5 81zM465.999 655.001
c-4 -29.333 -17.333 -53.668 -40 -73.001s-49 -29 -79 -29c-29.333 0 -52.833 9.66699 -70.5 29s-24.5 43.333 -20.5 72c4 29.333 17.333 53.833 40 73.5s49 29.5 79 29.5s53.667 -9.66699 71 -29s24 -43.666 20 -72.999zM417.999 654.999
c2 15.333 -1.83301 28.166 -11.5 38.499s-22.167 15.5 -37.5 15.5s-29.5 -5.16699 -42.5 -15.5s-20.5 -23.166 -22.5 -38.499s1.83301 -28.166 11.5 -38.499s22.167 -15.5 37.5 -15.5s29.5 5.16699 42.5 15.5s20.5 23.166 22.5 38.499z" />
    <glyph glyph-name="ae" unicode="&#xe6;" horiz-adv-x="852" 
d="M849 237l-3.99902 -32.998h-350c-6.66699 -36.667 1 -66.834 23 -90.501s47.333 -35.5 76 -35.5c50.667 0 96.334 21.667 137.001 65l75 -59c-59.333 -64 -134.333 -96 -225 -96c-38.667 0 -72.5 8 -101.5 24s-50.833 36.667 -65.5 62c-44.667 -56.667 -113 -85 -205 -85
c-47.333 0 -86.5 12.333 -117.5 37s-43.167 60.334 -36.5 107.001c8 55.333 33 95 75 119s101.333 36 178 36h98c5.33301 36 0.166016 64.167 -15.501 84.5s-40.834 30.5 -75.501 30.5c-50 0 -95 -16.667 -135 -50l-55 63c58 51.333 129.667 77 215 77
c30 1.33301 58.5 -4.16699 85.5 -16.5s48.167 -30.5 63.5 -54.5c50 47.333 105 70.666 165 69.999c74.667 0 128.5 -23.833 161.5 -71.5s44.167 -108.834 33.5 -183.501zM250.001 79.002c38.667 0 71.167 11.333 97.5 34s41.5 49 45.5 79l2 12h-60
c-100.667 0 -153.667 -21 -159 -63c-3.33301 -20.667 3.16699 -36.167 19.5 -46.5s34.5 -15.5 54.5 -15.5zM508.001 288.002l231.999 -0.00195312c3.33301 34.667 -3.66699 62.334 -21 83.001s-43.333 31 -78 31c-32.667 0 -61.167 -10.667 -85.5 -32
s-40.166 -48.666 -47.499 -81.999z" />
    <glyph glyph-name="ccedilla" unicode="&#xe7;" horiz-adv-x="482" 
d="M538 419l-94.9961 -83.0039c-26.667 32 -54.667 48 -84 48c-42.667 0 -78.834 -14.167 -108.501 -42.5s-47.167 -62.166 -52.5 -101.499c-6 -39.333 1.83301 -73.166 23.5 -101.499s53.834 -42.5 96.501 -42.5c40 0 73.333 15 100 45l68 -86
c-24.667 -22 -54.667 -38.667 -90 -50s-65.666 -17 -90.999 -17l-40 -48c18 0 32.833 -0.833008 44.5 -2.5s23.5 -5 35.5 -10s20.5 -13.333 25.5 -25s6.16699 -26.834 3.5 -45.501c-4.66699 -33.333 -22.334 -57.833 -53.001 -73.5s-64 -23.5 -100 -23.5
c-36.667 0 -70.667 9.33301 -102 28l29 46c23.333 -13.333 49.666 -20 78.999 -20c14 0 27.5 3.33301 40.5 10s20.5 17.334 22.5 32.001c1.33301 12 -2.83398 21 -12.501 27s-20.834 9 -33.501 9c-11.333 0 -24 -2.33301 -38 -7l-24 25l69 83
c-59.333 10.667 -105.333 38.334 -138 83.001s-44.334 99.334 -35.001 164.001c10 74 43.333 134.5 100 181.5s122 70.5 196 70.5c72 0 126.667 -24.333 164 -73z" />
    <glyph glyph-name="egrave" unicode="&#xe8;" horiz-adv-x="574" 
d="M558 198l-366.001 0.000976562c-0.666992 -34.667 9.5 -62.334 30.5 -83.001s48.5 -31 82.5 -31c51.333 0 97.333 21.667 138 65l77 -65c-61.333 -64 -133.666 -96 -216.999 -96c-74 0 -132.5 23.5 -175.5 70.5s-59.5 107.5 -49.5 181.5s43.333 134.5 100 181.5
s122 70.5 196 70.5c68 0 119.333 -23 154 -69s46 -110 34 -192zM203.999 288.001h246c4.66699 35.333 -2.33301 63.166 -21 83.499s-46.667 30.5 -84 30.5c-34.667 0 -64.5 -10.167 -89.5 -30.5s-42.167 -48.166 -51.5 -83.499zM334.999 708.001l78 -144h-94l-120 144h136z
" />
    <glyph glyph-name="eacute" unicode="&#xe9;" horiz-adv-x="574" 
d="M558 198l-366.001 0.000976562c-0.666992 -34.667 9.5 -62.334 30.5 -83.001s48.5 -31 82.5 -31c51.333 0 97.333 21.667 138 65l77 -65c-61.333 -64 -133.666 -96 -216.999 -96c-74 0 -132.5 23.5 -175.5 70.5s-59.5 107.5 -49.5 181.5s43.333 134.5 100 181.5
s122 70.5 196 70.5c68 0 119.333 -23 154 -69s46 -110 34 -192zM203.999 288.001h246c4.66699 35.333 -2.33301 63.166 -21 83.499s-46.667 30.5 -84 30.5c-34.667 0 -64.5 -10.167 -89.5 -30.5s-42.167 -48.166 -51.5 -83.499zM318.999 564.001l120 144h136l-162 -144h-94z
" />
    <glyph glyph-name="ecircumflex" unicode="&#xea;" horiz-adv-x="574" 
d="M558 198l-366.001 0.000976562c-0.666992 -34.667 9.5 -62.334 30.5 -83.001s48.5 -31 82.5 -31c51.333 0 97.333 21.667 138 65l77 -65c-61.333 -64 -133.666 -96 -216.999 -96c-74 0 -132.5 23.5 -175.5 70.5s-59.5 107.5 -49.5 181.5s43.333 134.5 100 181.5
s122 70.5 196 70.5c68 0 119.333 -23 154 -69s46 -110 34 -192zM203.999 288.001h246c4.66699 35.333 -2.33301 63.166 -21 83.499s-46.667 30.5 -84 30.5c-34.667 0 -64.5 -10.167 -89.5 -30.5s-42.167 -48.166 -51.5 -83.499zM547.999 564.001h-114l-56 90l-82 -90h-112
l136 144h135z" />
    <glyph glyph-name="edieresis" unicode="&#xeb;" horiz-adv-x="574" 
d="M558 198l-366.001 0.000976562c-0.666992 -34.667 9.5 -62.334 30.5 -83.001s48.5 -31 82.5 -31c51.333 0 97.333 21.667 138 65l77 -65c-61.333 -64 -133.666 -96 -216.999 -96c-74 0 -132.5 23.5 -175.5 70.5s-59.5 107.5 -49.5 181.5s43.333 134.5 100 181.5
s122 70.5 196 70.5c68 0 119.333 -23 154 -69s46 -110 34 -192zM203.999 288.001h246c4.66699 35.333 -2.33301 63.166 -21 83.499s-46.667 30.5 -84 30.5c-34.667 0 -64.5 -10.167 -89.5 -30.5s-42.167 -48.166 -51.5 -83.499zM195.999 636.001
c3.33301 19.333 13.333 36.1699 30 50.5029s35.667 21.5 57 21.5c22 0 39.333 -6.83301 52 -20.5s17.667 -30.834 15 -51.501s-12.5 -37.834 -29.5 -51.501s-36.5 -20.5 -58.5 -20.5c-21.333 0 -38.333 7.16699 -51 21.5s-17.667 31.166 -15 50.499zM401.999 636.005
c3.33301 19.333 13.333 36.1699 30 50.5029s35.667 21.5 57 21.5c22 0 39.333 -6.83301 52 -20.5s17.667 -30.834 15 -51.501s-12.5 -37.834 -29.5 -51.501s-36.5 -20.5 -58.5 -20.5c-21.333 0 -38.333 7.16699 -51 21.5s-17.667 31.166 -15 50.499z" />
    <glyph glyph-name="igrave" unicode="&#xec;" 
d="M70 0l67 480h120l-67 -480h-120zM190 708l78 -144h-94l-120 144h136z" />
    <glyph glyph-name="iacute" unicode="&#xed;" 
d="M70 0l67 480h120l-67 -480h-120zM150 564l120 144h136l-162 -144h-94z" />
    <glyph glyph-name="icircumflex" unicode="&#xee;" 
d="M70 0l67 480h120l-67 -480h-120zM391 564h-114l-56 90l-82 -90h-112l136 144h135z" />
    <glyph glyph-name="idieresis" unicode="&#xef;" 
d="M70 0l67 480h120l-67 -480h-120zM39 636c3.33301 19.333 13.333 36.1699 30 50.5029s35.667 21.5 57 21.5c22 0 39.333 -6.83301 52 -20.5s17.667 -30.834 15 -51.501s-12.5 -37.834 -29.5 -51.501s-36.5 -20.5 -58.5 -20.5c-21.333 0 -38.333 7.16699 -51 21.5
s-17.667 31.166 -15 50.499zM245 636.004c3.33301 19.333 13.333 36.1699 30 50.5029s35.667 21.5 57 21.5c22 0 39.333 -6.83301 52 -20.5s17.667 -30.834 15 -51.501s-12.5 -37.834 -29.5 -51.501s-36.5 -20.5 -58.5 -20.5c-21.333 0 -38.333 7.16699 -51 21.5
s-17.667 31.166 -15 50.499z" />
    <glyph glyph-name="eth" unicode="&#xf0;" horiz-adv-x="610" 
d="M550 768l56.001 -55.999l-125 -54c100 -128.667 141.333 -255.667 124 -381c-12.667 -86.667 -45.334 -156.5 -98.001 -209.5s-120.667 -79.5 -204 -79.5c-74 0 -132.5 23.5 -175.5 70.5s-59.5 107.5 -49.5 181.5s42.833 134.5 98.5 181.5s118.167 70.5 187.5 70.5
c50 0 86.333 -12.667 109 -38l2 2c-20.667 43.333 -55.667 94 -105 152l-2 3l-113 -49l-52 57l114 50c-4.66699 5.33301 -11 12 -19 20s-17.333 16.667 -28 26s-17.667 15.666 -21 18.999l108 58c19.333 -16.667 44.333 -41.667 75 -75zM318.001 96.001
c42.667 0 78.833 14.167 108.5 42.5s47.5 62.166 53.5 101.499c5.33301 39.333 -3 73.166 -25 101.499s-54 42.5 -96 42.5c-42.667 0 -78.834 -14.167 -108.501 -42.5s-47.167 -62.166 -52.5 -101.499c-6 -39.333 1.83301 -73.166 23.5 -101.499s53.834 -42.5 96.501 -42.5z
" />
    <glyph glyph-name="ntilde" unicode="&#xf1;" horiz-adv-x="574" 
d="M68 0l66.999 480.001h114l-10 -77h2c34.667 59.333 87.667 89 159 89c60 0 101.667 -17.833 125 -53.5s31.333 -80.834 24 -135.501l-43 -303h-120l34 243c14 94 -8.66699 141 -68 141c-37.333 0 -66.666 -11.5 -87.999 -34.5s-34.333 -52.167 -39 -87.5l-37 -262h-120z
M248.999 568.001h-66.002c26.667 84.667 70 127 130 127c20 0 45.833 -6.16699 77.5 -18.5s51.834 -18.5 60.501 -18.5c22 0 39.333 14 52 42h66c-26.667 -84.667 -69.667 -127 -129 -127c-20 0 -46 6.33301 -78 19s-52.333 19 -61 19
c-21.333 0 -38.666 -14.333 -51.999 -43z" />
    <glyph glyph-name="ograve" unicode="&#xf2;" horiz-adv-x="610" 
d="M78 240c10 74 43.333 134.5 100 181.5s122 70.5 196 70.5s132.667 -23.5 176 -70.5s60 -107.5 50 -181.5s-43.5 -134.5 -100.5 -181.5s-122.5 -70.5 -196.5 -70.5s-132.5 23.5 -175.5 70.5s-59.5 107.5 -49.5 181.5zM198 240c-6 -39.333 1.83203 -73.166 23.499 -101.499
s53.834 -42.5 96.501 -42.5s78.834 14.167 108.501 42.5s47.5 62.166 53.5 101.499c5.33301 39.333 -3 73.166 -25 101.499s-54 42.5 -96 42.5c-42.667 0 -78.834 -14.167 -108.501 -42.5s-47.167 -62.166 -52.5 -101.499zM352.999 708l78 -144h-94l-120 144h136z" />
    <glyph glyph-name="oacute" unicode="&#xf3;" horiz-adv-x="610" 
d="M78 240c10 74 43.333 134.5 100 181.5s122 70.5 196 70.5s132.667 -23.5 176 -70.5s60 -107.5 50 -181.5s-43.5 -134.5 -100.5 -181.5s-122.5 -70.5 -196.5 -70.5s-132.5 23.5 -175.5 70.5s-59.5 107.5 -49.5 181.5zM198 240c-6 -39.333 1.83203 -73.166 23.499 -101.499
s53.834 -42.5 96.501 -42.5s78.834 14.167 108.501 42.5s47.5 62.166 53.5 101.499c5.33301 39.333 -3 73.166 -25 101.499s-54 42.5 -96 42.5c-42.667 0 -78.834 -14.167 -108.501 -42.5s-47.167 -62.166 -52.5 -101.499zM336.999 564l120 144h136l-162 -144h-94z" />
    <glyph glyph-name="ocircumflex" unicode="&#xf4;" horiz-adv-x="610" 
d="M78 240c10 74 43.333 134.5 100 181.5s122 70.5 196 70.5s132.667 -23.5 176 -70.5s60 -107.5 50 -181.5s-43.5 -134.5 -100.5 -181.5s-122.5 -70.5 -196.5 -70.5s-132.5 23.5 -175.5 70.5s-59.5 107.5 -49.5 181.5zM198 240c-6 -39.333 1.83203 -73.166 23.499 -101.499
s53.834 -42.5 96.501 -42.5s78.834 14.167 108.501 42.5s47.5 62.166 53.5 101.499c5.33301 39.333 -3 73.166 -25 101.499s-54 42.5 -96 42.5c-42.667 0 -78.834 -14.167 -108.501 -42.5s-47.167 -62.166 -52.5 -101.499zM565.999 564h-114l-56 90l-82 -90h-112l136 144
h135z" />
    <glyph glyph-name="otilde" unicode="&#xf5;" horiz-adv-x="610" 
d="M78 240c10 74 43.333 134.5 100 181.5s122 70.5 196 70.5s132.667 -23.5 176 -70.5s60 -107.5 50 -181.5s-43.5 -134.5 -100.5 -181.5s-122.5 -70.5 -196.5 -70.5s-132.5 23.5 -175.5 70.5s-59.5 107.5 -49.5 181.5zM198 240c-6 -39.333 1.83203 -73.166 23.499 -101.499
s53.834 -42.5 96.501 -42.5s78.834 14.167 108.501 42.5s47.5 62.166 53.5 101.499c5.33301 39.333 -3 73.166 -25 101.499s-54 42.5 -96 42.5c-42.667 0 -78.834 -14.167 -108.501 -42.5s-47.167 -62.166 -52.5 -101.499zM266.999 568h-66.002
c26.667 84.667 70 127 130 127c20 0 45.833 -6.16699 77.5 -18.5s51.834 -18.5 60.501 -18.5c22 0 39.333 14 52 42h66c-26.667 -84.667 -69.667 -127 -129 -127c-20 0 -46 6.33301 -78 19s-52.333 19 -61 19c-21.333 0 -38.666 -14.333 -51.999 -43z" />
    <glyph glyph-name="odieresis" unicode="&#xf6;" horiz-adv-x="610" 
d="M78 240c10 74 43.333 134.5 100 181.5s122 70.5 196 70.5s132.667 -23.5 176 -70.5s60 -107.5 50 -181.5s-43.5 -134.5 -100.5 -181.5s-122.5 -70.5 -196.5 -70.5s-132.5 23.5 -175.5 70.5s-59.5 107.5 -49.5 181.5zM198 240c-6 -39.333 1.83203 -73.166 23.499 -101.499
s53.834 -42.5 96.501 -42.5s78.834 14.167 108.501 42.5s47.5 62.166 53.5 101.499c5.33301 39.333 -3 73.166 -25 101.499s-54 42.5 -96 42.5c-42.667 0 -78.834 -14.167 -108.501 -42.5s-47.167 -62.166 -52.5 -101.499zM213.999 636
c3.33301 19.333 13.333 36.1699 30 50.5029s35.667 21.5 57 21.5c22 0 39.333 -6.83301 52 -20.5s17.667 -30.834 15 -51.501s-12.5 -37.834 -29.5 -51.501s-36.5 -20.5 -58.5 -20.5c-21.333 0 -38.333 7.16699 -51 21.5s-17.667 31.166 -15 50.499zM419.999 636.004
c3.33301 19.333 13.333 36.1699 30 50.5029s35.667 21.5 57 21.5c22 0 39.333 -6.83301 52 -20.5s17.667 -30.834 15 -51.501s-12.5 -37.834 -29.5 -51.501s-36.5 -20.5 -58.5 -20.5c-21.333 0 -38.333 7.16699 -51 21.5s-17.667 31.166 -15 50.499z" />
    <glyph glyph-name="divide" unicode="&#xf7;" horiz-adv-x="666" 
d="M112 354h542l-15 -102h-542zM326 483c3.33301 20.667 13.168 38.334 29.501 53.001s34.833 22 55.5 22s37.334 -7.33301 50.001 -22s17.667 -32.334 15 -53.001s-12.5 -38.334 -29.5 -53.001s-35.833 -22 -56.5 -22s-37.334 7.33301 -50.001 22
s-17.334 32.334 -14.001 53.001zM275.002 123c2.66699 20.667 12.501 38.334 29.501 53.001s35.833 22 56.5 22s37.334 -7.33301 50.001 -22s17.334 -32.334 14.001 -53.001c-2.66699 -20.667 -12.334 -38.334 -29.001 -53.001s-35.334 -22 -56.001 -22
s-37.334 7.33301 -50.001 22s-17.667 32.334 -15 53.001z" />
    <glyph glyph-name="oslash" unicode="&#xf8;" horiz-adv-x="610" 
d="M209 160l226.001 199.999c-20 16 -45.333 24 -76 24c-42.667 0 -78.834 -14.167 -108.501 -42.5s-47.167 -62.166 -52.5 -101.499c-4 -29.333 -0.333008 -56 11 -80zM470.001 317.999l-226.001 -198.999c19.333 -15.333 44 -23 74 -23
c42.667 0 78.834 14.167 108.501 42.5s47.5 62.166 53.5 101.499c4 27.333 0.666992 53.333 -10 78zM609 514l37.001 -40.001l-80 -71c31.333 -45.333 42.666 -99.666 33.999 -162.999c-10 -74 -43.5 -134.5 -100.5 -181.5s-122.5 -70.5 -196.5 -70.5
c-60 0 -110.667 16.333 -152 49l-80 -71l-34 41l77 68c-34 44.667 -46 99.667 -36 165c10 74 43.333 134.5 100 181.5s122 70.5 196 70.5c62 0 113.333 -16.667 154 -50z" />
    <glyph glyph-name="ugrave" unicode="&#xf9;" horiz-adv-x="574" 
d="M573 480l-67.002 -480h-114l11 77h-2c-36 -59.333 -89.333 -89 -160 -89c-60 0 -101.667 17.833 -125 53.5s-31 80.834 -23 135.501l42 303h120l-34 -243l-4 -60c-1.33301 -20.667 3.83398 -39.334 15.501 -56.001s30.5 -25 56.5 -25c37.333 0 66.833 11.667 88.5 35
s34.834 52.333 39.501 87l36 262h120zM334.998 708l78 -144h-94l-120 144h136z" />
    <glyph glyph-name="uacute" unicode="&#xfa;" horiz-adv-x="574" 
d="M573 480l-67.002 -480h-114l11 77h-2c-36 -59.333 -89.333 -89 -160 -89c-60 0 -101.667 17.833 -125 53.5s-31 80.834 -23 135.501l42 303h120l-34 -243l-4 -60c-1.33301 -20.667 3.83398 -39.334 15.501 -56.001s30.5 -25 56.5 -25c37.333 0 66.833 11.667 88.5 35
s34.834 52.333 39.501 87l36 262h120zM318.998 564l120 144h136l-162 -144h-94z" />
    <glyph glyph-name="ucircumflex" unicode="&#xfb;" horiz-adv-x="574" 
d="M573 480l-67.002 -480h-114l11 77h-2c-36 -59.333 -89.333 -89 -160 -89c-60 0 -101.667 17.833 -125 53.5s-31 80.834 -23 135.501l42 303h120l-34 -243l-4 -60c-1.33301 -20.667 3.83398 -39.334 15.501 -56.001s30.5 -25 56.5 -25c37.333 0 66.833 11.667 88.5 35
s34.834 52.333 39.501 87l36 262h120zM547.998 564h-114l-56 90l-82 -90h-112l136 144h135z" />
    <glyph glyph-name="udieresis" unicode="&#xfc;" horiz-adv-x="574" 
d="M573 480l-67.002 -480h-114l11 77h-2c-36 -59.333 -89.333 -89 -160 -89c-60 0 -101.667 17.833 -125 53.5s-31 80.834 -23 135.501l42 303h120l-34 -243l-4 -60c-1.33301 -20.667 3.83398 -39.334 15.501 -56.001s30.5 -25 56.5 -25c37.333 0 66.833 11.667 88.5 35
s34.834 52.333 39.501 87l36 262h120zM195.998 636c3.33301 19.333 13.333 36.1699 30 50.5029s35.667 21.5 57 21.5c22 0 39.333 -6.83301 52 -20.5s17.667 -30.834 15 -51.501s-12.5 -37.834 -29.5 -51.501s-36.5 -20.5 -58.5 -20.5c-21.333 0 -38.333 7.16699 -51 21.5
s-17.667 31.166 -15 50.499zM401.998 636.004c3.33301 19.333 13.333 36.1699 30 50.5029s35.667 21.5 57 21.5c22 0 39.333 -6.83301 52 -20.5s17.667 -30.834 15 -51.501s-12.5 -37.834 -29.5 -51.501s-36.5 -20.5 -58.5 -20.5c-21.333 0 -38.333 7.16699 -51 21.5
s-17.667 31.166 -15 50.499z" />
    <glyph glyph-name="yacute" unicode="&#xfd;" horiz-adv-x="519" 
d="M207 -4l-137.001 484h132l88 -333h2l166 333h125l-308 -583c-25.333 -48 -52.833 -82.833 -82.5 -104.5s-69.834 -32.5 -120.501 -32.5c-30.667 0 -60.667 4 -90 12l30 108c20.667 -8 40.334 -12 59.001 -12c28 0 48.833 5.16699 62.5 15.5s27.834 28.833 42.501 55.5z
M291.999 564l120 144h136l-162 -144h-94z" />
    <glyph glyph-name="thorn" unicode="&#xfe;" horiz-adv-x="630" 
d="M36 -228l138.001 984.001h120l-47 -338h2c17.333 23.333 41.166 41.5 71.499 54.5s62.833 19.5 97.5 19.5c72.667 0 127 -23.833 163 -71.5s49 -107.834 39 -180.501c-10 -72 -40.167 -132 -90.5 -180s-109.5 -72 -177.5 -72c-70 0 -120.667 24.333 -152 73h-3l-41 -289
h-120zM500.001 240.001c5.33301 39.333 -3.00098 73.166 -25.001 101.499s-54 42.5 -96 42.5c-42.667 0 -78.834 -14.167 -108.501 -42.5s-47.167 -62.166 -52.5 -101.499c-6 -39.333 1.83301 -73.166 23.5 -101.499s53.834 -42.5 96.501 -42.5s78.834 14.167 108.501 42.5
s47.5 62.166 53.5 101.499z" />
    <glyph glyph-name="ydieresis" unicode="&#xff;" horiz-adv-x="519" 
d="M207 -4l-137.001 484h132l88 -333h2l166 333h125l-308 -583c-25.333 -48 -52.833 -82.833 -82.5 -104.5s-69.834 -32.5 -120.501 -32.5c-30.667 0 -60.667 4 -90 12l30 108c20.667 -8 40.334 -12 59.001 -12c28 0 48.833 5.16699 62.5 15.5s27.834 28.833 42.501 55.5z
M168.999 636c3.33301 19.333 13.333 36.1699 30 50.5029s35.667 21.5 57 21.5c22 0 39.333 -6.83301 52 -20.5s17.667 -30.834 15 -51.501s-12.5 -37.834 -29.5 -51.501s-36.5 -20.5 -58.5 -20.5c-21.333 0 -38.333 7.16699 -51 21.5s-17.667 31.166 -15 50.499z
M374.999 636.004c3.33301 19.333 13.333 36.1699 30 50.5029s35.667 21.5 57 21.5c22 0 39.333 -6.83301 52 -20.5s17.667 -30.834 15 -51.501s-12.5 -37.834 -29.5 -51.501s-36.5 -20.5 -58.5 -20.5c-21.333 0 -38.333 7.16699 -51 21.5s-17.667 31.166 -15 50.499z" />
    <glyph glyph-name="dotlessi" unicode="&#x131;" 
d="M70 0l67 480h120l-67 -480h-120z" />
    <glyph glyph-name="Lslash" unicode="&#x141;" horiz-adv-x="519" 
d="M79 0l26 187l-78 -62l15 110l79 62l58 411h126l-43 -300l232 181l-16 -109l-231 -182l-26 -184h301l-16 -114h-427z" />
    <glyph glyph-name="lslash" unicode="&#x142;" 
d="M70 0l38 273l-78 -69l15 109l79 69l52 374h120l-36 -255l79 69l-15 -107l-78 -68l-56 -395h-120z" />
    <glyph glyph-name="OE" unicode="&#x152;" horiz-adv-x="1000" 
d="M728 594l-24 -174h270l-16 -114h-270l-27 -192h305l-16 -114h-497c-124 -0 -217.5 33.333 -280.5 100s-87.167 151.334 -72.5 254.001c14.667 103.333 62.667 188.166 144 254.499s184.333 99.5 309 99.5h480l-17 -114h-288zM535 114l67.002 479.999h-63
c-26.667 0 -54.334 -3.66699 -83.001 -11s-58.834 -19.166 -90.501 -35.499s-59.167 -41.333 -82.5 -75s-38.333 -73.167 -45 -118.5c-5.33301 -36.667 -3.66602 -69.667 5.00098 -99s21.5 -52.5 38.5 -69.5s37.167 -31.167 60.5 -42.5s45.666 -19 66.999 -23
s42.333 -6 63 -6h63z" />
    <glyph glyph-name="oe" unicode="&#x153;" horiz-adv-x="926" 
d="M919 204l-350.002 0.000976562c-6 -34 2.16699 -62.5 24.5 -85.5s47.5 -34.5 75.5 -34.5c50.667 0 96.334 21.667 137.001 65l75 -59c-58.667 -68 -134 -102 -226 -102c-80 0 -135.667 25.667 -167 77c-53.333 -51.333 -117.666 -77 -192.999 -77
c-74 0 -132.5 23.5 -175.5 70.5s-59.5 107.5 -49.5 181.5s43.333 134.5 100 181.5s122 70.5 196 70.5c76 0 133.667 -26 173 -78c50 52 113 78 189 78c74.667 0 128.5 -23.833 161.5 -71.5s44.167 -108.834 33.5 -183.501zM575.998 288.001l234 -0.00195312
c4.66699 34.667 -1.83301 62.334 -19.5 83.001s-42.5 31 -74.5 31c-31.333 0 -61 -10.167 -89 -30.5s-45 -48.166 -51 -83.499zM189.998 239.999c-6 -42 1.83301 -77.5 23.5 -106.5s53.834 -43.5 96.501 -43.5c43.333 0 80 14.5 110 43.5s48 64.5 54 106.5
s-2 77.5 -24 106.5s-54.667 43.5 -98 43.5c-42.667 0 -78.834 -14.5 -108.501 -43.5s-47.5 -64.5 -53.5 -106.5z" />
    <glyph glyph-name="Scaron" unicode="&#x160;" horiz-adv-x="574" 
d="M610 653l-106.002 -97c-21.333 37.333 -60 56 -116 56c-32 0 -60.5 -7.66699 -85.5 -23s-39.5 -38 -43.5 -68c-2.66699 -19.333 1.16602 -35.5 11.499 -48.5s24.833 -23.5 43.5 -31.5s39.5 -15.667 62.5 -23s45.833 -16 68.5 -26s42.834 -22 60.501 -36
s30.834 -33.667 39.501 -59s10.667 -55 6 -89c-10 -72.667 -42.5 -128.5 -97.5 -167.5s-119.5 -58.5 -193.5 -58.5c-100.667 0 -173.334 32 -218.001 96l108 92c12 -23.333 29.5 -41.5 52.5 -54.5s48.5 -19.5 76.5 -19.5c32 0 62 8.5 90 25.5s44 40.833 48 71.5
c2.66699 20.667 -1.16602 38.334 -11.499 53.001s-24.666 26.167 -42.999 34.5s-39 16.166 -62 23.499s-45.667 15.833 -68 25.5s-42.5 21.5 -60.5 35.5s-31.333 33.5 -40 58.5s-10.667 54.5 -6 88.5c9.33301 68.667 42.333 121.5 99 158.5s120.667 55.5 192 55.5
c84 0 148.333 -24.333 193 -73zM231.998 900h114l57 -90l81 90h110l-135 -144h-133z" />
    <glyph glyph-name="scaron" unicode="&#x161;" horiz-adv-x="444" 
d="M463 419l-89.9961 -71.999c-19.333 32.667 -48.333 49 -87 49c-18 0 -34.833 -4.33301 -50.5 -13s-24.834 -21.334 -27.501 -38.001c-2 -15.333 5.33301 -27.166 22 -35.499s37.334 -15 62.001 -20s49.167 -11.5 73.5 -19.5s43.833 -22.667 58.5 -44
s19.667 -49.333 15 -84c-5.33301 -36 -20.5 -66 -45.5 -90s-53 -40.667 -84 -50s-64.167 -14 -99.5 -14c-80.667 0 -139.334 24.667 -176.001 74l90 75c30 -39.333 65.333 -59 106 -59c20 0 39 4.83301 57 14.5s28.333 23.167 31 40.5c2.66699 18 -4.33301 31.667 -21 41
s-37.334 16.5 -62.001 21.5s-49.167 11.167 -73.5 18.5s-44 21.166 -59 41.499s-20.167 47.5 -15.5 81.5c7.33301 50 31.666 88.333 72.999 115s88.666 40 141.999 40c78 0 131.667 -24.333 161 -73zM141.004 708.001h114l56 -90l82 90h110l-136 -144h-133z" />
    <glyph glyph-name="Ydieresis" unicode="&#x178;" horiz-adv-x="630" 
d="M252 0l43 303l-209 405h158l134 -282l216 282h150l-323 -405l-43 -303h-126zM251 828c3.33301 19.333 13.168 36.1699 29.501 50.5029s35.166 21.5 56.499 21.5c22 0 39.5 -6.83301 52.5 -20.5s18.167 -30.834 15.5 -51.501s-12.5 -37.834 -29.5 -51.501
s-36.5 -20.5 -58.5 -20.5c-21.333 0 -38.333 7.16699 -51 21.5s-17.667 31.166 -15 50.499zM457.002 828.004c3.33301 19.333 13.168 36.1699 29.501 50.5029s35.166 21.5 56.499 21.5c22 0 39.5 -6.83301 52.5 -20.5s18.167 -30.834 15.5 -51.501
s-12.5 -37.834 -29.5 -51.501s-36.5 -20.5 -58.5 -20.5c-21.333 0 -38.333 7.16699 -51 21.5s-17.667 31.166 -15 50.499z" />
    <glyph glyph-name="Zcaron" unicode="&#x17d;" horiz-adv-x="611" 
d="M35 0l16 114l445 480h-372l17 114h529l-17 -114l-448 -480h387l-16 -114h-541zM251 900h114l57 -90l81 90h110l-135 -144h-133z" />
    <glyph glyph-name="zcaron" unicode="&#x17e;" horiz-adv-x="482" 
d="M34 0l16 111l295 271v2h-245l13 96h390l-15 -109l-299 -275h272l-13 -96h-414zM160 708h114l56 -90l82 90h110l-136 -144h-133z" />
    <glyph glyph-name="florin" unicode="&#x192;" horiz-adv-x="592" 
d="M540 426l-13 -89.998h-138l-97 -288c-21.333 -64 -49.333 -111.167 -84 -141.5s-78 -45.5 -130 -45.5c-36 0 -68.667 8 -98 24l58 92c12.667 -9.33301 27.667 -14 45 -14c24 0 42.833 8.66699 56.5 26s26.167 43.333 37.5 78l91 269h-113l13 90h131l37 111
c20 57.333 45.833 102.166 77.5 134.499s74.5 48.5 128.5 48.5c40 0 77.667 -10.333 113 -31l-59 -93c-17.333 10.667 -35 16 -53 16c-14 0 -26.333 -2.83301 -37 -8.5s-19.667 -14.334 -27 -26.001s-13 -22 -17 -31s-8.66699 -21.167 -14 -36.5l-30 -84h122z" />
    <glyph glyph-name="circumflex" unicode="&#x2c6;" 
d="M391 564h-114l-56 90l-82 -90h-112l136 144h135z" />
    <glyph glyph-name="caron" unicode="&#x2c7;" 
d="M49 708h114l56 -90l82 90h110l-136 -144h-133z" />
    <glyph glyph-name="uni02C9" unicode="&#x2c9;" 
d="M385 673l-11 -78h-320l11 78h320z" />
    <glyph glyph-name="breve" unicode="&#x2d8;" 
d="M60 708l67.001 -0.000976562c0.666992 -44 31.667 -66 93 -66c31.333 0 55.5 4.33301 72.5 13s30.833 26.334 41.5 53.001h66c-12 -48 -34.833 -84 -68.5 -108s-74.834 -36 -123.501 -36c-49.333 0 -87.5 12 -114.5 36s-38.167 60 -33.5 108z" />
    <glyph glyph-name="dotaccent" unicode="&#x2d9;" 
d="M142 636c3.33301 19.333 13.333 36.1699 30 50.5029s35.667 21.5 57 21.5c22 0 39.333 -6.83301 52 -20.5s17.667 -30.834 15 -51.501s-12.5 -37.834 -29.5 -51.501s-36.5 -20.5 -58.5 -20.5c-21.333 0 -38.333 7.16699 -51 21.5s-17.667 31.166 -15 50.499z" />
    <glyph glyph-name="ring" unicode="&#x2da;" 
d="M327 655c-4 -29.333 -17.333 -53.668 -40 -73.001s-49 -29 -79 -29c-29.333 0 -52.833 9.66699 -70.5 29s-24.5 43.333 -20.5 72c4 29.333 17.333 53.833 40 73.5s49 29.5 79 29.5s53.667 -9.66699 71 -29s24 -43.666 20 -72.999zM279 654.998
c2 15.333 -1.83301 28.166 -11.5 38.499s-22.167 15.5 -37.5 15.5s-29.5 -5.16699 -42.5 -15.5s-20.5 -23.166 -22.5 -38.499s1.83301 -28.166 11.5 -38.499s22.167 -15.5 37.5 -15.5s29.5 5.16699 42.5 15.5s20.5 23.166 22.5 38.499z" />
    <glyph glyph-name="ogonek" unicode="&#x2db;" 
d="M156 -147l18 -49.002c-36 -25.333 -71 -38 -105 -38c-28 0 -51 8 -69 24s-25 37.667 -21 65c3.33301 26 17.166 52.667 41.499 80s50.833 51 79.5 71h61c-22.667 -17.333 -44.5 -38.166 -65.5 -62.499s-32.833 -46.166 -35.5 -65.499
c-2 -12.667 0.833008 -23.5 8.5 -32.5s17.834 -13.5 30.501 -13.5c20.667 0 39.667 7 57 21z" />
    <glyph glyph-name="tilde" unicode="&#x2dc;" 
d="M92 568h-66.002c26.667 84.667 70 127 130 127c20 0 45.833 -6.16699 77.5 -18.5s51.834 -18.5 60.501 -18.5c22 0 39.333 14 52 42h66c-26.667 -84.667 -69.667 -127 -129 -127c-20 0 -46 6.33301 -78 19s-52.333 19 -61 19c-21.333 0 -38.666 -14.333 -51.999 -43z" />
    <glyph glyph-name="hungarumlaut" unicode="&#x2dd;" 
d="M59 564l120 144h136l-162 -144h-94zM264 564l120 144h136l-162 -144h-94z" />
    <glyph glyph-name="uni03A9" unicode="&#x3a9;" horiz-adv-x="759" 
d="M208 89l0.00292969 3c-34.667 33.333 -61.334 75 -80.001 125s-23.667 106.333 -15 169c13.333 93.333 55 171.666 125 234.999s151.667 95 245 95c63.333 0 117.333 -16 162 -48s75.834 -72.5 93.501 -121.5s22.5 -100.833 14.5 -155.5
c-8.66699 -64 -29.834 -121.833 -63.501 -173.5s-72.5 -93.5 -116.5 -125.5v-3h152l-13 -89h-271l9 66c44.667 26 84.167 64.333 118.5 115s56.833 113.334 67.5 188.001c10 68.667 0.333008 128.5 -29 179.5s-75.333 76.5 -138 76.5c-61.333 0 -114.833 -24.667 -160.5 -74
s-73.834 -111.333 -84.501 -186c-10 -70 -4.83301 -131.5 15.5 -184.5s49.166 -91.167 86.499 -114.5l-9 -66h-272l13 89h150z" />
    <glyph glyph-name="uni03BC" unicode="&#x3bc;" horiz-adv-x="574" 
d="M135 480l119.998 0.000976562l-34 -243l-4 -60c-1.33301 -20.667 3.83398 -39.334 15.501 -56.001s30.5 -25 56.5 -25c37.333 0 66.833 11.667 88.5 35s34.834 52.333 39.501 87l36 262h120l-67 -480h-114l11 77h-2c-36 -59.333 -89.333 -89 -160 -89
c-21.333 0 -39.333 2.33301 -54 7l-31 -223h-120z" />
    <glyph glyph-name="pi" unicode="&#x3c0;" horiz-adv-x="623" 
d="M658 434l-79.001 0.000976562l-39 -281c-10 -66.667 -12.667 -117.667 -8 -153h-109c-9.33301 19.333 -8.33301 68 3 146l40 288h-164c-12 -66.667 -31 -144.334 -57 -233.001s-51 -155.667 -75 -201h-110c25.333 54 50.833 124.167 76.5 210.5
s43.834 160.833 54.501 223.5c-52 0 -89.333 -3.66699 -112 -11l-3 73c31.333 21.333 87.333 32 168 32h436z" />
    <glyph glyph-name="endash" unicode="&#x2013;" horiz-adv-x="500" 
d="M541 294l-13 -96h-500l13 96h500z" />
    <glyph glyph-name="emdash" unicode="&#x2014;" horiz-adv-x="1000" 
d="M1041 294l-13 -96h-1000l13 96h1000z" />
    <glyph glyph-name="quoteleft" unicode="&#x2018;" horiz-adv-x="296" 
d="M344 708l-108 -264h-122l123 264h107z" />
    <glyph glyph-name="quoteright" unicode="&#x2019;" horiz-adv-x="296" 
d="M114 444l108 264h122l-123 -264h-107z" />
    <glyph glyph-name="quotesinglbase" unicode="&#x201a;" horiz-adv-x="296" 
d="M34 -126l107 264h122l-122 -264h-107z" />
    <glyph glyph-name="quotedblleft" unicode="&#x201c;" horiz-adv-x="519" 
d="M350 708l-108 -264h-122l123 264h107zM561 708l-108 -264h-122l123 264h107z" />
    <glyph glyph-name="quotedblright" unicode="&#x201d;" horiz-adv-x="519" 
d="M331 444l108 264h122l-123 -264h-107zM120 444l108 264h122l-123 -264h-107z" />
    <glyph glyph-name="quotedblbase" unicode="&#x201e;" horiz-adv-x="519" 
d="M250 -126l107 264h122l-122 -264h-107zM41 -126l107 264h122l-122 -264h-107z" />
    <glyph glyph-name="dagger" unicode="&#x2020;" horiz-adv-x="593" 
d="M453 708l-29 -203h199l-14 -96h-199l-75 -535h-114l75 535h-198l14 96h198l29 203h114z" />
    <glyph glyph-name="daggerdbl" unicode="&#x2021;" horiz-adv-x="593" 
d="M453 708l-26 -185h193l-14 -96h-193l-38 -271h193l-14 -96h-193l-26 -186h-114l26 186h-192l14 96h192l38 271h-192l14 96h192l26 185h114z" />
    <glyph glyph-name="bullet" unicode="&#x2022;" horiz-adv-x="500" 
d="M123 354c7.33301 49.333 30.666 91.166 69.999 125.499s83.333 51.5 132 51.5c49.333 0 88.666 -17.333 117.999 -52s40.666 -76.334 33.999 -125.001c-7.33301 -49.333 -30.666 -91.166 -69.999 -125.499s-83.333 -51.5 -132 -51.5
c-49.333 0 -88.666 17.333 -117.999 52s-40.666 76.334 -33.999 125.001z" />
    <glyph glyph-name="ellipsis" unicode="&#x2026;" horiz-adv-x="1000" 
d="M97 70c2.66699 21.333 13.001 39.666 31.001 54.999s38 23 60 23s39.667 -7.33301 53 -22s18.666 -32.667 15.999 -54s-13 -39.666 -31 -54.999s-38 -23 -60 -23c-21.333 0 -38.833 7.33301 -52.5 22s-19.167 32.667 -16.5 54zM430.001 70
c2.66699 21.333 13.001 39.666 31.001 54.999s38 23 60 23s39.667 -7.33301 53 -22s18.666 -32.667 15.999 -54s-13 -39.666 -31 -54.999s-38 -23 -60 -23c-21.333 0 -38.833 7.33301 -52.5 22s-19.167 32.667 -16.5 54zM763.002 70
c2.66699 21.333 13.001 39.666 31.001 54.999s38 23 60 23s39.667 -7.33301 53 -22s18.666 -32.667 15.999 -54s-13 -39.666 -31 -54.999s-38 -23 -60 -23c-21.333 0 -38.833 7.33301 -52.5 22s-19.167 32.667 -16.5 54z" />
    <glyph glyph-name="perthousand" unicode="&#x2030;" horiz-adv-x="1167" 
d="M434 165c7.33301 48.667 30.5 90.167 69.5 124.5s82.833 51.5 131.5 51.5s87.834 -17.167 117.501 -51.5s41.167 -75.833 34.5 -124.5s-29.834 -90.334 -69.501 -125.001s-83.834 -52 -132.501 -52s-87.667 17.333 -117 52s-40.666 76.334 -33.999 125.001zM524 165
c-3.33301 -25.333 2.00098 -46.166 16.001 -62.499s33.333 -24.5 58 -24.5s46.5 8.16699 65.5 24.5s30.167 37.166 33.5 62.499c3.33301 24.667 -2 45.167 -16 61.5s-33.667 24.5 -59 24.5c-24.667 0 -46.334 -8 -65.001 -24s-29.667 -36.667 -33 -62zM830.001 165
c7.33301 48.667 30.5 90.167 69.5 124.5s82.833 51.5 131.5 51.5s87.834 -17.167 117.501 -51.5s41.167 -75.833 34.5 -124.5s-29.834 -90.334 -69.501 -125.001s-83.834 -52 -132.501 -52s-87.667 17.333 -117 52s-40.666 76.334 -33.999 125.001zM920.001 165
c-3.33301 -25.333 2.00098 -46.166 16.001 -62.499s33.333 -24.5 58 -24.5s46.5 8.16699 65.5 24.5s30.167 37.166 33.5 62.499c3.33301 24.667 -2 45.167 -16 61.5s-33.667 24.5 -59 24.5c-24.667 0 -46.334 -8 -65.001 -24s-29.667 -36.667 -33 -62zM83.002 544
c7.33301 48.667 30.5 90.167 69.5 124.5s82.833 51.5 131.5 51.5s87.834 -17.167 117.501 -51.5s41.167 -75.833 34.5 -124.5s-29.667 -90.334 -69 -125.001s-83.333 -52 -132 -52s-87.834 17.333 -117.501 52s-41.167 76.334 -34.5 125.001zM173.002 544
c-3.33301 -25.333 2.00098 -46.166 16.001 -62.499s33.333 -24.5 58 -24.5s46.5 8.16699 65.5 24.5s30.167 37.166 33.5 62.499c3.33301 24.667 -1.83398 45.167 -15.501 61.5s-33.167 24.5 -58.5 24.5s-47.333 -8.16699 -66 -24.5s-29.667 -36.833 -33 -61.5zM135.003 6
l519 734l78 -38l-519 -734z" />
    <glyph glyph-name="guilsinglleft" unicode="&#x2039;" horiz-adv-x="296" 
d="M316 421l-139 -173l91 -175l-83 -51l-120 226l183 224z" />
    <glyph glyph-name="guilsinglright" unicode="&#x203a;" horiz-adv-x="296" 
d="M49 73l140 173l-92 175l83 51l121 -226l-184 -224z" />
    <glyph glyph-name="fraction" unicode="&#x2044;" horiz-adv-x="167" 
d="M-165 6l519 734l78 -38l-519 -734z" />
    <glyph glyph-name="Euro" unicode="&#x20ac;" horiz-adv-x="592" 
d="M570 74c-20.667 -24.667 -50.167 -45.168 -88.5 -61.501s-80.166 -24.5 -125.499 -24.5c-144.667 0 -221.667 76.667 -231 230h-79l40 90h40c0.666992 8.66699 2.33398 22.334 5.00098 41.001c3.33301 18 6.33301 35 9 51h-66l44 93h52
c31.333 72.667 75.5 128.667 132.5 168s121.5 59 193.5 59c61.333 0 108.666 -11 141.999 -33l-52 -103c-26.667 19.333 -62.334 29 -107.001 29c-77.333 0 -136.333 -40 -177 -120h248l-42 -93h-238c-5.33301 -22.667 -9 -41.667 -11 -57c-0.666992 -4 -1.5 -10 -2.5 -18
s-1.5 -13.667 -1.5 -17h216l-41 -90h-174c10 -82.667 50.333 -124 121 -124c50.667 0 93.667 18.333 129 55z" />
    <glyph glyph-name="afii61289" unicode="&#x2113;" horiz-adv-x="532" 
d="M487 177l41.0029 -46c-62.667 -92.667 -140 -139 -232 -139c-56.667 0 -97.667 16 -123 48s-37.333 73.333 -36 124l2 12c-40.667 -28.667 -61.667 -43.334 -63 -44.001l-22 60l45.5 33.5l49.5 36.5l36 260c12 86.667 37.833 150.834 77.5 192.501
s85.167 62.5 136.5 62.5c47.333 0 80.666 -16.333 99.999 -49s25.666 -74.667 18.999 -126c-8.66699 -58.667 -35.334 -117.167 -80.001 -175.5s-106 -119.833 -184 -184.5l-5 -36c-4.66699 -40.667 1 -71.667 17 -93s38.667 -32 68 -32c52 0 103 32 153 96zM294.003 530
l-26.002 -185.999c106.667 101.333 165.334 188 176.001 260c8.66699 62.667 -8.66602 94 -51.999 94c-20 0 -39.167 -13.333 -57.5 -40s-31.833 -69.334 -40.5 -128.001z" />
    <glyph glyph-name="trademark" unicode="&#x2122;" horiz-adv-x="1000" 
d="M204 296l45 322h-122l13 90h346l-13 -90h-122l-45 -322h-102zM522 296l58 412h142l60 -268l136 268h142l-58 -412h-102l37 268h-2l-138 -268h-70l-64 268h-2l-37 -268h-102z" />
    <glyph glyph-name="Omega" unicode="&#x2126;" horiz-adv-x="759" 
d="M208 89l0.00292969 3c-34.667 33.333 -61.334 75 -80.001 125s-23.667 106.333 -15 169c13.333 93.333 55 171.666 125 234.999s151.667 95 245 95c63.333 0 117.333 -16 162 -48s75.834 -72.5 93.501 -121.5s22.5 -100.833 14.5 -155.5
c-8.66699 -64 -29.834 -121.833 -63.501 -173.5s-72.5 -93.5 -116.5 -125.5v-3h152l-13 -89h-271l9 66c44.667 26 84.167 64.333 118.5 115s56.833 113.334 67.5 188.001c10 68.667 0.333008 128.5 -29 179.5s-75.333 76.5 -138 76.5c-61.333 0 -114.833 -24.667 -160.5 -74
s-73.834 -111.333 -84.501 -186c-10 -70 -4.83301 -131.5 15.5 -184.5s49.166 -91.167 86.499 -114.5l-9 -66h-272l13 89h150z" />
    <glyph glyph-name="estimated" unicode="&#x212e;" horiz-adv-x="984" 
d="M949 344l-658.999 -0.00292969c-3.33301 0 -5 -1.66699 -5 -5v-199c0 -8 3 -15.667 9 -23c70 -72 153 -108 249 -108c51.333 0 99.666 10.833 144.999 32.5s84.333 51.167 117 88.5h58c-36.667 -43.333 -83.167 -77.666 -139.5 -102.999s-116.833 -38 -181.5 -38
c-112 0 -207.667 35.667 -287 107s-119 157.333 -119 258s39.667 186.834 119 258.501s175 107.5 287 107.5c112.667 0 208.667 -35.667 288 -107s119 -157.666 119 -258.999v-10zM799.001 369.997v200c0 9.33301 -3 17.333 -9 24c-70.667 69.333 -153 104 -247 104
c-95.333 0 -178 -35.667 -248 -107c-6.66699 -6.66699 -10 -15 -10 -25v-196c0 -4.66699 1.66699 -7 5 -7h505c2.66699 0 4 2.33301 4 7z" />
    <glyph glyph-name="partialdiff" unicode="&#x2202;" horiz-adv-x="594" 
d="M199 655l-23 81.001c57.333 38.667 123 58 197 58c79.333 0 141.333 -33.833 186 -101.5s58.334 -162.167 41.001 -283.5c-16.667 -123.333 -56 -223.666 -118 -300.999s-138.333 -116 -229 -116c-34.667 0 -65.167 7.33301 -91.5 22s-46.333 33.667 -60 57
s-23 48.666 -28 75.999s-5.5 55 -1.5 83c11.333 77.333 42.166 140.166 92.499 188.499s107.166 72.5 170.499 72.5c40.667 0 74.167 -10 100.5 -30s43.833 -40.333 52.5 -61h1c1.33301 4 2.83301 11 4.5 21s2.5 15.667 2.5 17c10.667 75.333 1.83398 138.5 -26.499 189.5
s-69.5 76.5 -123.5 76.5c-52 0 -101 -16.333 -147 -49zM277 83.001l1 0.000976562c40.667 0 78.167 22.167 112.5 66.5s58.833 96.166 73.5 155.499c-4.66699 22.667 -17.5 44.667 -38.5 66s-47.833 32 -80.5 32c-38.667 0 -73.667 -17.167 -105 -51.5
s-50.333 -75.5 -57 -123.5c-5.33301 -41.333 0.5 -75.833 17.5 -103.5s42.5 -41.5 76.5 -41.5z" />
    <glyph glyph-name="Delta" unicode="&#x2206;" horiz-adv-x="691" 
d="M29 0l9 67l344 655h133l156 -654l-10 -68h-632zM158 89l394.001 0.000976562l-85 334c-2.66699 15.333 -9 45.666 -19 90.999s-16 76 -18 92h-4c-4.66699 -12 -17.334 -38.5 -38.001 -79.5s-35 -70.167 -43 -87.5z" />
    <glyph glyph-name="product" unicode="&#x220f;" horiz-adv-x="850" 
d="M824 605h-111v-702h-111v702h-255v-702h-111v702h-111v100h699v-100z" />
    <glyph glyph-name="summation" unicode="&#x2211;" horiz-adv-x="685" 
d="M666 -97h-543v70l265 330l-254 325v77h515v-95h-362v-4l229 -286l-250 -312v-3h400v-102z" />
    <glyph glyph-name="minus" unicode="&#x2212;" horiz-adv-x="666" 
d="M112 354h542l-15 -102h-542z" />
    <glyph glyph-name="uni2215" unicode="&#x2215;" horiz-adv-x="167" 
d="M-165 6l519 734l78 -38l-519 -734z" />
    <glyph glyph-name="uni2219" unicode="&#x2219;" horiz-adv-x="296" 
d="M109 291c2.66699 21.333 13.001 39.666 31.001 54.999s38 23 60 23s39.667 -7.33301 53 -22s18.666 -32.667 15.999 -54s-13 -39.666 -31 -54.999s-38 -23 -60 -23c-21.333 0 -38.833 7.33301 -52.5 22s-19.167 32.667 -16.5 54z" />
    <glyph glyph-name="radical" unicode="&#x221a;" horiz-adv-x="714" 
d="M723 842l-236 -988.001h-93l-162 452l-77 -30l-20 62l165 66l120 -346c2 -8.66699 5.33301 -22.167 10 -40.5l10 -39.5l1 -1c1.33301 8.66699 4 23.334 8 44.001l8 41l186 780h80z" />
    <glyph glyph-name="infinity" unicode="&#x221e;" horiz-adv-x="869" 
d="M819 292v-0.99707c0 -52 -16.167 -93.833 -48.5 -125.5s-70.5 -47.5 -114.5 -47.5c-32 0 -62.667 9.16699 -92 27.5s-61 49.166 -95 92.499c-32 -38.667 -62.833 -68.334 -92.5 -89.001s-63.5 -31 -101.5 -31c-43.333 0 -80.833 16 -112.5 48s-47.5 72.333 -47.5 121
c0 50 16.167 91.167 48.5 123.5s72.5 48.5 120.5 48.5c35.333 0 67.833 -10.167 97.5 -30.5s59.834 -49.5 90.501 -87.5c37.333 41.333 64.666 68.333 81.999 81c34 24.667 70 37 108 37c46 -0.666992 83.667 -16.334 113 -47.001s44 -70.667 44 -120zM284 181.003
l1 -0.00292969c14.667 0 28.5 2.66699 41.5 8s27.167 14.833 42.5 28.5s25.833 23.5 31.5 29.5l33.5 37c-20.667 26.667 -36 45.834 -46 57.501s-25.167 23.834 -45.5 36.501s-41.5 19 -63.5 19c-30 0 -53.833 -10.5 -71.5 -31.5s-26.5 -47.5 -26.5 -79.5
c0 -29.333 9.83301 -54.166 29.5 -74.499s44.167 -30.5 73.5 -30.5zM656 397h-0.999023c-12.667 0 -24.834 -2.16699 -36.501 -6.5s-23.667 -11.5 -36 -21.5s-21.666 -18 -27.999 -24s-15.833 -16.167 -28.5 -30.5s-19.667 -22.5 -21 -24.5
c34.667 -40.667 62.667 -69 84 -85s44.666 -24 69.999 -24c28.667 0 51.667 11 69 33s26 46.333 26 73c0 32.667 -9.16699 59.167 -27.5 79.5s-41.833 30.5 -70.5 30.5z" />
    <glyph glyph-name="integral" unicode="&#x222b;" horiz-adv-x="494" 
d="M477 855l-12.998 -75.002c-12 6 -24.667 9 -38 9c-23.333 0 -41 -8.33301 -53 -25c-20.667 -24.667 -31 -82.334 -31 -173.001c0 -52.667 2.5 -133.167 7.5 -241.5s7.5 -192.166 7.5 -251.499c0 -89.333 -13.667 -156.666 -41 -201.999
c-24.667 -44 -65.334 -66 -122.001 -66c-30 0 -55.667 5.66699 -77 17l16 78c18 -7.33301 33.667 -11 47 -11c20 0 35.667 7 47 21c21.333 28 32 82.333 32 163c0 60 -2.66699 145.167 -8 255.5s-8 192.833 -8 247.5c0 57.333 4.66699 103.333 14 138
s24.666 63.334 45.999 86.001c28 28.667 65.667 43 113 43c24.667 0 45 -4.33301 61 -13z" />
    <glyph glyph-name="approxequal" unicode="&#x2248;" horiz-adv-x="646" 
d="M561 452l40.9961 -38c-36 -68 -82.333 -102 -139 -102c-32 0 -72 14 -120 42c-39.333 22.667 -70.333 34 -93 34c-21.333 0 -39.333 -6.33301 -54 -19s-30.667 -31.334 -48 -56.001l-42 38c16.667 30.667 38.167 55.334 64.5 74.001s54.833 28 85.5 28
c9.33301 0 18.333 -0.666992 27 -2s17.834 -4 27.501 -8s16.334 -6.83301 20.001 -8.5s10.834 -5.5 21.501 -11.5s16.334 -9 17.001 -9c2 -1.33301 6 -3.66602 12 -6.99902s9.83301 -5.5 11.5 -6.5s5 -2.83301 10 -5.5l10.5 -5.5c2 -1 5 -2.33301 9 -4
s7.33301 -2.83398 10 -3.50098l10 -2.5c4 -1 7.66699 -1.66699 11 -2s7 -0.5 11 -0.5c34 0 66.333 25 97 75zM560.996 265l41.002 -37.999c-36.667 -68 -83.334 -102 -140.001 -102c-30.667 0 -70.334 14 -119.001 42c-39.333 23.333 -70.333 35 -93 35
c-21.333 0 -39.333 -6.33301 -54 -19s-30.667 -31.667 -48 -57l-42 38c16.667 30.667 38.334 55.5 65.001 74.5s55 28.5 85 28.5c10 0 19.333 -0.666992 28 -2s17.5 -3.83301 26.5 -7.5l20.5 -8.5c4.66699 -2 11.834 -5.83301 21.501 -11.5s15.167 -8.83398 16.5 -9.50098
l15.5 -9.5c7 -4.33301 12.167 -7.33301 15.5 -9l14.5 -7c6.33301 -3 11.666 -5.33301 15.999 -7s9.5 -3 15.5 -4s12 -1.5 18 -1.5c19.333 0 36.166 6 50.499 18s29.833 31 46.5 57z" />
    <glyph glyph-name="notequal" unicode="&#x2260;" horiz-adv-x="659" 
d="M499 520l-43 -95h152v-66h-178l-65 -145h243v-66h-270l-54 -120l-53 23l45 97h-148v66h175l64 145h-239v66h265l53 118z" />
    <glyph glyph-name="lessequal" unicode="&#x2264;" horiz-adv-x="672" 
d="M618 99l-472 230v71l471 230v-77l-403 -187v-2l404 -188v-77zM621 -8h-480v67h480v-67z" />
    <glyph glyph-name="greaterequal" unicode="&#x2265;" horiz-adv-x="671" 
d="M147 630l472 -230v-71l-472 -230v77l403 187v3l-403 187v77zM619 -8h-477v67h477v-67z" />
    <glyph glyph-name="lozenge" unicode="&#x25ca;" horiz-adv-x="715" 
d="M662 352l-211 -402h-89l-207 402l210 402h90zM562 349l-132.999 260c-8 20 -14.333 38.333 -19 55h-3c-6 -20 -12.667 -38.333 -20 -55l-133 -255l134 -262c8.66699 -21.333 14.667 -39 18 -53h4c7.33301 24 13.666 41.333 18.999 52z" />
    <glyph glyph-name=".null" horiz-adv-x="0" 
 />
    <glyph glyph-name="nonmarkingreturn" horiz-adv-x="333" 
 />
    </font>
</defs>
</svg>
