<?xml version="1.0" standalone="no"?>
<!DOCTYPE svg PUBLIC "-//W3C//DTD SVG 1.1//EN" "http://www.w3.org/Graphics/SVG/1.1/DTD/svg11.dtd" >
<svg>
<metadata>
Created by FontForge 20090914 at Thu Feb 23 13:36:47 2017
 By www-data
Copyright &#194;&#169; 1989, 1995, 2002 Adobe Systems Incorporated.  All Rights Reserved. &#194;&#169; 1981, 1995, 2002 Heidelberger Druckmaschinen AG. All rights reserved.
</metadata>
<defs>
<font id="AvenirLTStd-Black" horiz-adv-x="260" >
  <font-face 
    font-family="Avenir LT Std 65 Medium"
    font-weight="750"
    font-stretch="normal"
    units-per-em="1000"
    panose-1="2 11 8 3 2 2 3 2 2 4"
    ascent="756"
    descent="-244"
    x-height="486"
    cap-height="708"
    bbox="-161 -250 1135 953.002"
    underline-thickness="50"
    underline-position="-50"
    unicode-range="U+0020-U+FB02"
  />
<missing-glyph horiz-adv-x="500" 
d="M0 0v700h500v-700h-500zM250 395l170 255h-340zM280 350l170 -255v510zM80 50h340l-170 255zM50 605v-510l170 255z" />
    <glyph glyph-name="fi" unicode="fi" horiz-adv-x="630" 
d="M425 0v486h150v-486h-150zM413 639c0 24 8.5 44.5 25.5 61.5s37.5 25.5 61.5 25.5s44.5 -8.5 61.5 -25.5s25.5 -37.5 25.5 -61.5s-8.5 -44.5 -25.5 -61.5s-37.5 -25.5 -61.5 -25.5s-44.5 8.5 -61.5 25.5s-25.5 37.5 -25.5 61.5zM105 0l-0.000976562 366.002h-99v120h99
v86c0 29.333 2.33301 54.666 7 75.999s13.5 41.666 26.5 60.999s32.5 34 58.5 44s58.667 15 98 15c34.667 0 64 -3 88 -9l-7 -127c-18.667 6.66699 -35 10 -49 10c-25.333 0 -43.666 -5.5 -54.999 -16.5s-17 -31.833 -17 -62.5v-77h111v-120h-111v-366h-150z" />
    <glyph glyph-name="fl" unicode="fl" horiz-adv-x="630" 
d="M425 0v756h150v-756h-150zM105 0l-0.000976562 366.002h-99v120h99v86c0 29.333 2.33301 54.666 7 75.999s13.5 41.666 26.5 60.999s32.5 34 58.5 44s58.667 15 98 15c34.667 0 64 -3 88 -9l-7 -127c-18.667 6.66699 -35 10 -49 10c-25.333 0 -43.666 -5.5 -54.999 -16.5
s-17 -31.833 -17 -62.5v-77h111v-120h-111v-366h-150z" />
    <glyph glyph-name=".notdef" horiz-adv-x="500" 
d="M0 0v700h500v-700h-500zM250 395l170 255h-340zM280 350l170 -255v510zM80 50h340l-170 255zM50 605v-510l170 255z" />
    <glyph glyph-name="space" unicode=" " horiz-adv-x="296" 
 />
    <glyph glyph-name="exclam" unicode="!" horiz-adv-x="444" 
d="M297 708v-474h-150v474h150zM130 86c0 25.333 9 47 27 65s39.667 27 65 27s47 -9 65 -27s27 -39.667 27 -65s-9 -47 -27 -65s-39.667 -27 -65 -27s-47 9 -65 27s-27 39.667 -27 65z" />
    <glyph glyph-name="quotedbl" unicode="&#x22;" horiz-adv-x="520" 
d="M313 426v282h126v-282h-126zM81 426v282h126v-282h-126z" />
    <glyph glyph-name="numbersign" unicode="#" horiz-adv-x="592" 
d="M101 0l28 201h-84v90h96l17 126h-84v90h96l28 201h97l-28 -201h99l28 201h97l-28 -201h84v-90h-96l-17 -126h84v-90h-96l-28 -201h-97l28 201h-99l-28 -201h-97zM337 291l17 126h-99l-17 -126h99z" />
    <glyph glyph-name="dollar" unicode="$" horiz-adv-x="592" 
d="M328 790l-0.000976562 -69.9951c90 0 161.333 -21 214 -63l-96 -117c-29.333 26 -68.666 40 -117.999 42v-159l96 -28c45.333 -13.333 80.833 -35.5 106.5 -66.5s38.5 -69.167 38.5 -114.5c0 -66.667 -22.667 -119.334 -68 -158.001s-103 -61.334 -173 -68.001v-70h-66
v70c-105.333 0 -187.666 27 -246.999 81l106 119c30 -36.667 77 -57.334 141 -62.001v169l-73 22c-52 16.667 -90.833 39.667 -116.5 69s-38.5 68.666 -38.5 117.999c0 60 22.167 109.167 66.5 147.5s98.166 61.166 161.499 68.499v70h66zM261.999 439.005v140.001
c-48 -10.667 -72 -33.334 -72 -68.001c0 -11.333 1.66699 -21.166 5 -29.499s8.66602 -15 15.999 -20s13.333 -8.83301 18 -11.5s11.334 -5.33398 20.001 -8.00098zM327.999 278.006v-149.999c56.667 11.333 85 36 85 74c0 19.333 -5.5 33.666 -16.5 42.999
s-27.5 18 -49.5 26z" />
    <glyph glyph-name="percent" unicode="%" horiz-adv-x="907" 
d="M508 187c0 54.667 19.167 101.334 57.5 140.001s84.833 58 139.5 58s101.167 -19.333 139.5 -58s57.5 -85.334 57.5 -140.001c0 -55.333 -19.167 -102.333 -57.5 -141s-84.833 -58 -139.5 -58s-101.167 19.333 -139.5 58s-57.5 85.667 -57.5 141zM800 187
c0 26.667 -9.16699 49.334 -27.5 68.001s-40.833 28 -67.5 28s-49.167 -9.33301 -67.5 -28s-27.5 -41.334 -27.5 -68.001c0 -27.333 9.16699 -50.333 27.5 -69s40.833 -28 67.5 -28s49.167 9.33301 67.5 28s27.5 41.667 27.5 69zM5 522
c0 54.667 19.167 101.334 57.5 140.001s84.833 58 139.5 58s101.167 -19.333 139.5 -58s57.5 -85.334 57.5 -140.001s-19.167 -101.334 -57.5 -140.001s-84.833 -58 -139.5 -58s-101.167 19.333 -139.5 58s-57.5 85.334 -57.5 140.001zM297 522
c0 26.667 -9.16699 49.334 -27.5 68.001s-40.833 28 -67.5 28s-49.167 -9.33301 -67.5 -28s-27.5 -41.334 -27.5 -68.001s9.16699 -49.334 27.5 -68.001s40.833 -28 67.5 -28s49.167 9.33301 67.5 28s27.5 41.334 27.5 68.001zM210 11l405 729l84 -47l-413 -725z" />
    <glyph glyph-name="ampersand" unicode="&#x26;" horiz-adv-x="759" 
d="M744 365l-149 -197.999l158 -167h-193l-59 67c-54.667 -56.667 -124 -85 -208 -85c-69.333 0 -128.5 18.5 -177.5 55.5s-73.5 89.167 -73.5 156.5c0 44 14.167 83.5 42.5 118.5s64.166 59.833 107.499 74.5c-27.333 30 -47.166 56 -59.499 78s-18.5 49 -18.5 81
c0 60 21.333 105 64 135s95 45 157 45c58.667 0 107.667 -14.833 147 -44.5s59 -72.834 59 -129.501c0 -39.333 -12.167 -74.833 -36.5 -106.5s-55.833 -57.5 -94.5 -77.5l91 -97l69 94h174zM333 606.001c-20 0 -36.5 -6 -49.5 -18s-19.5 -28 -19.5 -48
c0 -23.333 19.667 -53 59 -89c53.333 30.667 80 61 80 91c0 20 -6.66699 35.667 -20 47s-30 17 -50 17zM410 166.001l-125.001 136c-18.667 -11.333 -32.167 -20 -40.5 -26s-17.166 -15.833 -26.499 -29.5s-14 -28.834 -14 -45.501c0 -25.333 9.5 -46.166 28.5 -62.499
s41.167 -24.5 66.5 -24.5c34.667 0 71.667 17.333 111 52z" />
    <glyph glyph-name="quotesingle" unicode="'" horiz-adv-x="296" 
d="M85 426v282h126v-282h-126z" />
    <glyph glyph-name="parenleft" unicode="(" horiz-adv-x="314" 
d="M190 732l103 -59.998c-44.667 -70 -77.334 -133.333 -98.001 -190s-31 -121.334 -31 -194.001s10.333 -137.334 31 -194.001s53.334 -120 98.001 -190l-103 -60l-2 4c-96 142 -144 288.667 -144 440s48 298 144 440z" />
    <glyph glyph-name="parenright" unicode=")" horiz-adv-x="314" 
d="M124 -156l-103 59.998c44.667 70 77.334 133.333 98.001 190s31 121.334 31 194.001s-10.333 137.334 -31 194.001s-53.334 120 -98.001 190l103 60l2 -4c96 -142 144 -288.667 144 -440s-48 -298 -144 -440z" />
    <glyph glyph-name="asterisk" unicode="*" horiz-adv-x="482" 
d="M293 708v-138l131 43l30 -95l-131 -42l83 -114l-83 -61l-84 115l-81 -110l-81 61l84 109l-133 46l32 95l131 -47v138h102z" />
    <glyph glyph-name="plus" unicode="+" horiz-adv-x="666" 
d="M59 240v126h211v211h126v-211h211v-126h-211v-211h-126v211h-211z" />
    <glyph glyph-name="comma" unicode="," horiz-adv-x="296" 
d="M17 -120l74 282h144l-90 -282h-128z" />
    <glyph glyph-name="hyphen" unicode="-" horiz-adv-x="296" 
d="M271 309v-120h-246v120h246z" />
    <glyph glyph-name="period" unicode="." horiz-adv-x="296" 
d="M56 86c0 25.333 9 47 27 65s39.667 27 65 27s47 -9 65 -27s27 -39.667 27 -65s-9 -47 -27 -65s-39.667 -27 -65 -27s-47 9 -65 27s-27 39.667 -27 65z" />
    <glyph glyph-name="slash" unicode="/" horiz-adv-x="407" 
d="M-3 -18l299 779l114 -35l-300 -779z" />
    <glyph glyph-name="zero" unicode="0" horiz-adv-x="592" 
d="M33 354c0 36 2.33301 70.333 7 103s13.167 65.334 25.5 98.001s28 60.834 47 84.501s44.167 43 75.5 58s67.333 22.5 108 22.5s76.667 -7.5 108 -22.5s56.5 -34.333 75.5 -58s34.667 -51.834 47 -84.501s20.833 -65.334 25.5 -98.001s7 -67 7 -103
s-2.33301 -70.333 -7 -103s-13.167 -65.334 -25.5 -98.001s-28 -60.834 -47 -84.501s-44.167 -43 -75.5 -58s-67.333 -22.5 -108 -22.5s-76.667 7.5 -108 22.5s-56.5 34.333 -75.5 58s-34.667 51.834 -47 84.501s-20.833 65.334 -25.5 98.001s-7 67 -7 103zM183 354
c0 -152 37.667 -228 113 -228s113 76 113 228s-37.667 228 -113 228s-113 -76 -113 -228z" />
    <glyph glyph-name="one" unicode="1" horiz-adv-x="592" 
d="M288 0v540l-142 -125l-85 98l231 195h140v-708h-144z" />
    <glyph glyph-name="two" unicode="2" horiz-adv-x="592" 
d="M49 0v159.002l275 247c14.667 13.333 24.834 23 30.501 29s12.5 15.833 20.5 29.5s12 27.167 12 40.5c0 23.333 -8.5 42 -25.5 56s-37.5 21 -61.5 21c-26.667 0 -48.167 -8.33301 -64.5 -25s-25.5 -38.334 -27.5 -65.001l-150 11c4.66699 70.667 29.5 124.5 74.5 161.5
s103.5 55.5 175.5 55.5c67.333 0 122.333 -18.333 165 -55s64 -89.334 64 -158.001c0 -42 -7.83301 -77.5 -23.5 -106.5s-38.834 -56.833 -69.501 -83.5l-215 -185h314v-132h-494z" />
    <glyph glyph-name="three" unicode="3" horiz-adv-x="592" 
d="M216 299l0.000976562 129.997h49c76 0 114 26.333 114 79c0 21.333 -8.5 39 -25.5 53s-37.833 21 -62.5 21c-22.667 0 -41.834 -6.16699 -57.501 -18.5s-25.834 -28.166 -30.501 -47.499l-165 34c14.667 58.667 44.334 101.667 89.001 129s99 41 163 41
c68 0 124.833 -16.667 170.5 -50s68.5 -82.333 68.5 -147c0 -40 -10.5 -73.833 -31.5 -101.5s-50.833 -45.5 -89.5 -53.5v-3c41.333 -5.33301 73.833 -23.5 97.5 -54.5s35.5 -67.833 35.5 -110.5c0 -68 -24.167 -120.333 -72.5 -157s-109.166 -55 -182.499 -55
c-66 0 -121.333 15.167 -166 45.5s-74 76.166 -88 137.499l158 37c10.667 -54.667 45.667 -82 105 -82c31.333 0 55.166 8.33301 71.499 25s24.5 38.667 24.5 66c0 15.333 -3 28.333 -9 39s-12.833 18.834 -20.5 24.501s-18.667 9.83398 -33 12.501
s-26.5 4.33398 -36.5 5.00098s-23.667 1 -41 1h-35z" />
    <glyph glyph-name="four" unicode="4" horiz-adv-x="592" 
d="M333 0v142h-309v126l289 440h164v-440h91v-126h-91v-142h-144zM333 268v244h-2l-157 -244h159z" />
    <glyph glyph-name="five" unicode="5" horiz-adv-x="592" 
d="M517 708v-132h-281l-3 -109c15.333 5.33301 36.333 8 63 8c72.667 0 131.667 -21.167 177 -63.5s68 -99.166 68 -170.499c0 -78 -25.167 -139.667 -75.5 -185s-115.166 -68 -194.499 -68c-62 0 -113.5 15.333 -154.5 46s-69.167 75.667 -84.5 135l157 36
c4 -26 14.667 -46.667 32 -62s39 -23 65 -23c31.333 0 56.666 10 75.999 30s29 45.333 29 76c0 29.333 -8.5 53.166 -25.5 71.499s-36.833 30.5 -59.5 36.5s-48.667 9 -78 9c-47.333 0 -96.333 -8.66699 -147 -26l8 391h428z" />
    <glyph glyph-name="six" unicode="6" horiz-adv-x="592" 
d="M453 708l-166.001 -253.001c18.667 4.66699 35 7 49 7c65.333 0 118.666 -22.167 159.999 -66.5s62 -99.166 62 -164.499c0 -72 -25.167 -130.5 -75.5 -175.5s-113.166 -67.5 -188.499 -67.5s-138.166 22.5 -188.499 67.5s-75.5 103.5 -75.5 175.5c0 32 4.5 63 13.5 93
s18.167 53.333 27.5 70s24 40.667 44 72l155 242h183zM407.999 236.999c0 32 -10.667 58.5 -32 79.5s-48.666 31.5 -81.999 31.5s-60.666 -10.5 -81.999 -31.5s-32 -47.5 -32 -79.5s10.667 -58.5 32 -79.5s48.666 -31.5 81.999 -31.5s60.666 10.5 81.999 31.5
s32 47.5 32 79.5z" />
    <glyph glyph-name="seven" unicode="7" horiz-adv-x="592" 
d="M97 0l290 570h-350v138h518v-132l-283 -576h-175z" />
    <glyph glyph-name="eight" unicode="8" horiz-adv-x="592" 
d="M59 525c0 62.667 22.3291 110.834 66.9961 144.501s101.334 50.5 170.001 50.5s125.334 -16.833 170.001 -50.5s67 -81.834 67 -144.501c0 -38.667 -10.5 -71.834 -31.5 -99.501s-50.5 -46.834 -88.5 -57.501v-2c42.667 -11.333 75.334 -31.833 98.001 -61.5
s34 -66.5 34 -110.5c0 -65.333 -24 -116 -72 -152s-107 -54 -177 -54s-129 18 -177 54s-72 86.667 -72 152c0 44 11.333 80.833 34 110.5s55.334 50.167 98.001 61.5v2c-38 10.667 -67.5 29.834 -88.5 57.501s-31.5 60.834 -31.5 99.501zM208.996 504
c0 -22.667 8.16699 -41.5 24.5 -56.5s37.166 -22.5 62.499 -22.5s46.166 7.5 62.499 22.5s24.5 33.833 24.5 56.5c0 22 -8.16699 40.5 -24.5 55.5s-37.166 22.5 -62.499 22.5s-46.166 -7.5 -62.499 -22.5s-24.5 -33.5 -24.5 -55.5zM196.996 215
c0 -24.667 9.3291 -45.667 27.9961 -63s42.334 -26 71.001 -26s52.334 8.66699 71.001 26s28 38.333 28 63c0 25.333 -9.16699 46.666 -27.5 63.999s-42.166 26 -71.499 26s-53.166 -8.66699 -71.499 -26s-27.5 -38.666 -27.5 -63.999z" />
    <glyph glyph-name="nine" unicode="9" horiz-adv-x="592" 
d="M139 0l166.001 253.001c-18.667 -4.66699 -35 -7 -49 -7c-65.333 0 -118.666 22.167 -159.999 66.5s-62 99.166 -62 164.499c0 72 25.167 130.5 75.5 175.5s113.166 67.5 188.499 67.5s138.166 -22.5 188.499 -67.5s75.5 -103.5 75.5 -175.5c0 -32 -4.5 -63 -13.5 -93
s-18.167 -53.333 -27.5 -70s-24 -40.667 -44 -72l-155 -242h-183zM184.001 471.001c0 -32 10.667 -58.5 32 -79.5s48.666 -31.5 81.999 -31.5s60.666 10.5 81.999 31.5s32 47.5 32 79.5s-10.667 58.5 -32 79.5s-48.666 31.5 -81.999 31.5s-60.666 -10.5 -81.999 -31.5
s-32 -47.5 -32 -79.5z" />
    <glyph glyph-name="colon" unicode=":" horiz-adv-x="296" 
d="M56 86c0 25.333 9 47 27 65s39.667 27 65 27s47 -9 65 -27s27 -39.667 27 -65s-9 -47 -27 -65s-39.667 -27 -65 -27s-47 9 -65 27s-27 39.667 -27 65zM56 406c0 25.333 9 47 27 65s39.667 27 65 27s47 -9 65 -27s27 -39.667 27 -65s-9 -47 -27 -65s-39.667 -27 -65 -27
s-47 9 -65 27s-27 39.667 -27 65z" />
    <glyph glyph-name="semicolon" unicode=";" horiz-adv-x="296" 
d="M17 -120l74 282h144l-90 -282h-128zM56 406c0 25.333 9 47 27 65s39.667 27 65 27s47 -9 65 -27s27 -39.667 27 -65s-9 -47 -27 -65s-39.667 -27 -65 -27s-47 9 -65 27s-27 39.667 -27 65z" />
    <glyph glyph-name="less" unicode="&#x3c;" horiz-adv-x="666" 
d="M586 564v-136l-317 -124v-2l317 -124v-136l-506 198v126z" />
    <glyph glyph-name="equal" unicode="=" horiz-adv-x="666" 
d="M59 336v126h548v-126h-548zM59 144v126h548v-126h-548z" />
    <glyph glyph-name="greater" unicode="&#x3e;" horiz-adv-x="666" 
d="M80 42v136l317 124v2l-317 124v136l506 -198v-126z" />
    <glyph glyph-name="question" unicode="?" horiz-adv-x="556" 
d="M216 234l-0.00195312 44c0 37.333 11.667 67.333 35 90c12 12 28.5 27.333 49.5 46s35.667 32 44 40s16.166 18 23.499 30s11 23.333 11 34c0 21.333 -6.66699 38.333 -20 51s-30.666 19 -51.999 19c-30 0 -53.5 -8.33301 -70.5 -25s-26.5 -38 -28.5 -64l-154 10
c6.66699 69.333 32.334 122.833 77.001 160.5s102.334 56.5 173.001 56.5c64 0 117.5 -17.333 160.5 -52s64.5 -83 64.5 -145c0 -38 -8.83301 -71 -26.5 -99s-50.167 -60.667 -97.5 -98c-26 -20 -39 -43 -39 -69v-29h-150zM198.998 86c0 25.333 9 47 27 65s39.667 27 65 27
s47 -9 65 -27s27 -39.667 27 -65s-9 -47 -27 -65s-39.667 -27 -65 -27s-47 9 -65 27s-27 39.667 -27 65z" />
    <glyph glyph-name="at" unicode="@" horiz-adv-x="800" 
d="M475 364c0 27.333 -6.33301 49.5 -19 66.5s-31 25.5 -55 25.5c-30 0 -54.167 -11.833 -72.5 -35.5s-27.5 -53.167 -27.5 -88.5c0 -59.333 23 -89 69 -89c38 0 65 11.833 81 35.5s24 52.167 24 85.5zM605 534l-36.9971 -196.999c-6 -28.667 -9 -50.667 -9 -66
c0 -18.667 9 -28 27 -28c23.333 0 43.5 12.667 60.5 38s25.5 62.333 25.5 111c0 78 -23.833 138.167 -71.5 180.5s-110.834 63.5 -189.501 63.5c-82.667 0 -149.5 -26.5 -200.5 -79.5s-76.5 -120.833 -76.5 -203.5c0 -86 27.5 -154.333 82.5 -205s125.5 -76 211.5 -76
c74.667 0 137.667 20.333 189 61h110c-35.333 -48.667 -79.833 -86 -133.5 -112s-111.5 -39 -173.5 -39c-108 0 -199.667 35.167 -275 105.5s-113 158.833 -113 265.5c0 106 37.167 194.667 111.5 266s164.5 107 270.5 107c60 0 116.5 -12.333 169.5 -37
s97 -62.667 132 -114s52.5 -110.666 52.5 -177.999c0 -40 -5.83301 -75.5 -17.5 -106.5s-26 -54.833 -43 -71.5s-36.333 -30.334 -58 -41.001s-40.667 -17.5 -57 -20.5s-31.833 -4.5 -46.5 -4.5c-26 0 -45.5 5.33301 -58.5 16s-19.833 23.334 -20.5 38.001h-2
c-34.667 -36 -77.334 -54 -128.001 -54c-42.667 0 -77.334 15.667 -104.001 47s-40 71.666 -40 120.999c0 61.333 18.333 114.166 55 158.499s85 66.5 145 66.5c53.333 0 89.333 -19 108 -57h2l8 45h94z" />
    <glyph glyph-name="A" unicode="A" horiz-adv-x="741" 
d="M-1 0l306 708h129l308 -708h-176l-61 150h-275l-59 -150h-172zM452 282l-87 220l-86 -220h173z" />
    <glyph glyph-name="B" unicode="B" horiz-adv-x="648" 
d="M72 0v708.001h264c35.333 0 66.666 -2.33301 93.999 -7s54.333 -13 81 -25s47.334 -30.5 62.001 -55.5s22 -55.833 22 -92.5c0 -38.667 -11 -71.334 -33 -98.001s-51.667 -46 -89 -58v-2c46.667 -6 84.167 -24.833 112.5 -56.5s42.5 -70.5 42.5 -116.5
c0 -35.333 -7.83301 -66.333 -23.5 -93s-36.667 -47.167 -63 -61.5s-54.5 -25 -84.5 -32s-61.667 -10.5 -95 -10.5h-290zM228 576.001v-151h113c27.333 0 50.5 6.16699 69.5 18.5s28.5 31.833 28.5 58.5c0 49.333 -35 74 -105 74h-106zM228 293.001v-161h140
c28 0 52.333 6.66699 73 20s31 34.333 31 63c0 52 -42 78 -126 78h-118z" />
    <glyph glyph-name="C" unicode="C" horiz-adv-x="685" 
d="M655 622l-119.997 -98c-32.667 38.667 -77.334 58 -134.001 58c-59.333 0 -108.333 -21.5 -147 -64.5s-58 -97.5 -58 -163.5c0 -65.333 19.167 -119.666 57.5 -162.999s85.833 -65 142.5 -65c63.333 0 112 25.333 146 76l130 -97
c-28.667 -40.667 -65.834 -71.334 -111.501 -92.001s-93.834 -31 -144.501 -31c-112 0 -203.667 34 -275 102s-107 158 -107 270s35.667 202 107 270s163 102 275 102c44.667 0 88.667 -8.33301 132 -25s79 -43 107 -79z" />
    <glyph glyph-name="D" unicode="D" horiz-adv-x="759" 
d="M72 0l-0.000976562 707.998h234c59.333 0 113.5 -6.5 162.5 -19.5s93 -33.167 132 -60.5s69.5 -64.5 91.5 -111.5s33 -101.833 33 -164.5c0 -73.333 -18.667 -137.166 -56 -191.499s-85.666 -94.666 -144.999 -120.999s-125 -39.5 -197 -39.5h-255zM227.999 563.998v-420
h81c169.333 0 254 72 254 216c0 66 -23 116.5 -69 151.5s-104 52.5 -174 52.5h-92z" />
    <glyph glyph-name="E" unicode="E" horiz-adv-x="630" 
d="M78 0v708h481v-144h-325v-132h307v-144h-307v-144h343v-144h-499z" />
    <glyph glyph-name="F" unicode="F" horiz-adv-x="593" 
d="M78 0v708h475v-144h-319v-144h295v-144h-295v-276h-156z" />
    <glyph glyph-name="G" unicode="G" horiz-adv-x="778" 
d="M713 420v-369.998c-86.667 -45.333 -185.667 -68 -297 -68c-112 0 -203.667 34 -275 102s-107 158 -107 270s35.667 202 107 270s163 102 275 102c122.667 0 216.667 -30.333 282 -91l-110 -120c-42.667 44.667 -100 67 -172 67c-66 0 -119.167 -21.333 -159.5 -64
s-60.5 -97.334 -60.5 -164.001s20.167 -121.334 60.5 -164.001s93.5 -64 159.5 -64c56 0 105 11.667 147 35v115h-127v144h277z" />
    <glyph glyph-name="H" unicode="H" horiz-adv-x="759" 
d="M72 0v708h156v-264h303v264h156v-708h-156v306h-303v-306h-156z" />
    <glyph glyph-name="I" unicode="I" horiz-adv-x="296" 
d="M70 0v708h156v-708h-156z" />
    <glyph glyph-name="J" unicode="J" horiz-adv-x="500" 
d="M438 708v-470.999c0 -36.667 -3 -68.667 -9 -96s-16.5 -53.833 -31.5 -79.5s-38.167 -45.334 -69.5 -59.001s-70 -20.5 -116 -20.5c-58 0 -105.833 13.667 -143.5 41s-62.167 68.666 -73.5 123.999l143 35c2 -16.667 9.83301 -31.167 23.5 -43.5s29.167 -18.5 46.5 -18.5
c14 0 25.833 3.16699 35.5 9.5s17 13.5 22 21.5s8.83301 19.167 11.5 33.5s4.16699 25.833 4.5 34.5s0.5 20.334 0.5 35.001v454h156z" />
    <glyph glyph-name="K" unicode="K" horiz-adv-x="722" 
d="M78 0v708h156v-294l275 294h204l-315 -329l342 -379h-218l-288 336v-336h-156z" />
    <glyph glyph-name="L" unicode="L" horiz-adv-x="537" 
d="M78 0v708h156v-564h289v-144h-445z" />
    <glyph glyph-name="M" unicode="M" horiz-adv-x="944" 
d="M72 0v708h236l163 -462h2l164 462h235v-708h-156v543h-2l-186 -543h-119l-179 543h-2v-543h-156z" />
    <glyph glyph-name="N" unicode="N" horiz-adv-x="815" 
d="M72 0v708h212l301 -492h2v492h156v-708h-204l-309 504h-2v-504h-156z" />
    <glyph glyph-name="O" unicode="O" horiz-adv-x="832" 
d="M34 354c0 112 35.667 202 107 270s163 102 275 102s203.667 -34 275 -102s107 -158 107 -270s-35.667 -202 -107 -270s-163 -102 -275 -102s-203.667 34 -275 102s-107 158 -107 270zM196 354c0 -66.667 20.167 -121.334 60.5 -164.001s93.5 -64 159.5 -64
s119.167 21.333 159.5 64s60.5 97.334 60.5 164.001s-20.167 121.334 -60.5 164.001s-93.5 64 -159.5 64s-119.167 -21.333 -159.5 -64s-60.5 -97.334 -60.5 -164.001z" />
    <glyph glyph-name="P" unicode="P" horiz-adv-x="630" 
d="M72 0v708h263c179.333 0 269 -71.667 269 -215c0 -144.667 -87.333 -217 -262 -217h-114v-276h-156zM228 576v-168h104c73.333 0 110 28.333 110 85c0 55.333 -44.667 83 -134 83h-80z" />
    <glyph glyph-name="Q" unicode="Q" horiz-adv-x="852" 
d="M847 120v-119.998h-429c-112.667 0 -204.834 32.5 -276.501 97.5s-107.5 153.5 -107.5 265.5c0 105.333 36.333 192.166 109 260.499s162.334 102.5 269.001 102.5s196.334 -34.167 269.001 -102.5s109 -155.166 109 -260.499c0 -52.667 -11.833 -100.834 -35.5 -144.501
s-58.834 -75.834 -105.501 -96.501v-2h198zM196 363.002c0 -60.667 21.167 -112.334 63.5 -155.001s93.166 -64 152.499 -64s110.166 21.333 152.499 64s63.5 94.334 63.5 155.001s-21.167 112.334 -63.5 155.001s-93.166 64 -152.499 64s-110.166 -21.333 -152.499 -64
s-63.5 -94.334 -63.5 -155.001z" />
    <glyph glyph-name="R" unicode="R" horiz-adv-x="648" 
d="M72 0l0.000976562 708h274c178 0 267 -71.667 267 -215c0 -50.667 -13.333 -93.5 -40 -128.5s-64.334 -56.833 -113.001 -65.5l180 -299h-187l-148 283h-77v-283h-156zM228.001 576l-0.000976562 -160.999h92c18.667 0 33.834 0.666992 45.501 2s25 4.16602 40 8.49902
s26.333 12.333 34 24s11.5 26.5 11.5 44.5c0 54.667 -40.333 82 -121 82h-102z" />
    <glyph glyph-name="S" unicode="S" horiz-adv-x="574" 
d="M529 652l-106.997 -117.002c-12 15.333 -28.667 27 -50 35s-42.333 12 -63 12c-26 0 -50 -6.16699 -72 -18.5s-33 -30.5 -33 -54.5c0 -17.333 6 -31.833 18 -43.5s27.5 -21 46.5 -28s40.167 -13.667 63.5 -20s46.666 -14.166 69.999 -23.499s44.5 -20.833 63.5 -34.5
s34.5 -32.834 46.5 -57.501s18 -53.667 18 -87c0 -75.333 -26 -133 -78 -173s-117 -60 -195 -60c-94.667 0 -174 29.667 -238 89l111 122c16 -20.667 36.167 -37 60.5 -49s49.5 -18 75.5 -18c28 0 53 6.5 75 19.5s33 31.167 33 54.5c0 20 -8.16699 37 -24.5 51
s-36.833 24.333 -61.5 31s-51.334 15.334 -80.001 26.001s-55.334 22.334 -80.001 35.001s-45.167 32.167 -61.5 58.5s-24.5 57.833 -24.5 94.5c0 72 26.5 128.333 79.5 169s116.5 61 190.5 61c88.667 0 161 -24.667 217 -74z" />
    <glyph glyph-name="T" unicode="T" horiz-adv-x="574" 
d="M209 0v570h-202v138h560v-138h-202v-570h-156z" />
    <glyph glyph-name="U" unicode="U" horiz-adv-x="741" 
d="M669 708v-434.999c0 -86.667 -25.833 -156.834 -77.5 -210.501s-125.167 -80.5 -220.5 -80.5s-169 26.833 -221 80.5s-78 123.834 -78 210.501v435h156v-429c0 -44 13.5 -80.5 40.5 -109.5s61.167 -43.5 102.5 -43.5c40.667 0 74.5 14.667 101.5 44
s40.5 65.666 40.5 108.999v429h156z" />
    <glyph glyph-name="V" unicode="V" horiz-adv-x="704" 
d="M285 0l-283 708h178l175 -464h2l178 464h167l-292 -708h-125z" />
    <glyph glyph-name="W" unicode="W" horiz-adv-x="1000" 
d="M208 0l-210 708h170l113 -454h2l148 454h145l147 -466h2l119 466h158l-207 -708h-139l-156 490h-2l-156 -490h-134z" />
    <glyph glyph-name="X" unicode="X" horiz-adv-x="722" 
d="M0 0l248 370l-234 338h196l151 -248l145 248h189l-229 -335l256 -373h-196l-173 285l-168 -285h-185z" />
    <glyph glyph-name="Y" unicode="Y" horiz-adv-x="648" 
d="M246 0v302l-266 406h194l150 -265l159 265h185l-266 -406v-302h-156z" />
    <glyph glyph-name="Z" unicode="Z" horiz-adv-x="630" 
d="M35 0v144l359 426h-346v138h535v-138l-352 -426h364v-144h-560z" />
    <glyph glyph-name="bracketleft" unicode="[" horiz-adv-x="296" 
d="M276 732v-90h-90v-708h90v-90h-210v888h210z" />
    <glyph glyph-name="backslash" unicode="\" horiz-adv-x="407" 
d="M410 -18l-113 -35l-300 779l114 35z" />
    <glyph glyph-name="bracketright" unicode="]" horiz-adv-x="296" 
d="M20 -156v90h90v708h-90v90h210v-888h-210z" />
    <glyph glyph-name="asciicircum" unicode="^" horiz-adv-x="666" 
d="M80 343l180 365h146l180 -365h-142l-111 238l-112 -238h-141z" />
    <glyph glyph-name="underscore" unicode="_" horiz-adv-x="500" 
d="M500 -125h-500v50h500v-50z" />
    <glyph glyph-name="grave" unicode="`" 
d="M131 708l101 -144h-132l-173 144h204z" />
    <glyph glyph-name="a" unicode="a" horiz-adv-x="537" 
d="M358 0l0.00585938 61.0029h-2c-30.667 -48.667 -82 -73 -154 -73c-48 0 -88.833 13.333 -122.5 40s-50.5 63.334 -50.5 110.001c0 23.333 4.16699 44.166 12.5 62.499s18.5 33.333 30.5 45s28 21.667 48 30s38.5 14.666 55.5 18.999s38.167 7.66602 63.5 9.99902
s45.666 3.66602 60.999 3.99902s34.666 0.5 57.999 0.5c0 26 -9.33301 47 -28 63s-41.334 24 -68.001 24c-46.667 0 -87.334 -19.333 -122.001 -58l-80 82c55.333 52 126.666 78 213.999 78c83.333 0 141.166 -20.333 173.499 -61s48.5 -104 48.5 -190v-247h-138z
M358.006 213.003h-36.999c-98.667 0 -148 -23.333 -148 -70c0 -16.667 7.16699 -29.667 21.5 -39s30.833 -14 49.5 -14c31.333 0 58.166 8 80.499 24s33.5 38.333 33.5 67v32z" />
    <glyph glyph-name="b" unicode="b" horiz-adv-x="630" 
d="M67 0v756h150v-322h2c30.667 42.667 82 64 154 64c66.667 0 120.334 -25.5 161.001 -76.5s61 -111.833 61 -182.5c0 -74 -22 -134.333 -66 -181s-101.667 -70 -173 -70c-31.333 0 -60.833 7.66699 -88.5 23s-47.834 33 -60.501 53h-2v-64h-138zM205 243
c0 -36.667 10.667 -66.334 32 -89.001s50.666 -34 87.999 -34s66.666 11.333 87.999 34s32 52.334 32 89.001s-10.667 66.334 -32 89.001s-50.666 34 -87.999 34s-66.666 -11.333 -87.999 -34s-32 -52.334 -32 -89.001z" />
    <glyph glyph-name="c" unicode="c" horiz-adv-x="482" 
d="M481 433l-99.001 -103.998c-17.333 24.667 -42 37 -74 37c-37.333 0 -66.666 -11.333 -87.999 -34s-32 -52.334 -32 -89.001s10.667 -66.334 32 -89.001s50.666 -34 87.999 -34c28.667 0 53.334 12.333 74.001 37l99 -104c-42.667 -43.333 -100.334 -65 -173.001 -65
c-76.667 0 -140.834 23.5 -192.501 70.5s-77.5 108.5 -77.5 184.5s25.833 137.5 77.5 184.5s115.834 70.5 192.501 70.5c72.667 0 130.334 -21.667 173.001 -65z" />
    <glyph glyph-name="d" unicode="d" horiz-adv-x="630" 
d="M563 756v-756h-138v64h-2c-12.667 -20 -32.834 -37.667 -60.501 -53s-57.167 -23 -88.5 -23c-71.333 0 -129 23.333 -173 70s-66 107 -66 181c0 70.667 20.333 131.5 61 182.5s94.334 76.5 161.001 76.5c72 0 123.333 -21.333 154 -64h2v322h150zM425 243
c0 36.667 -10.667 66.334 -32 89.001s-50.666 34 -87.999 34s-66.666 -11.333 -87.999 -34s-32 -52.334 -32 -89.001s10.667 -66.334 32 -89.001s50.666 -34 87.999 -34s66.666 11.333 87.999 34s32 52.334 32 89.001z" />
    <glyph glyph-name="e" unicode="e" horiz-adv-x="574" 
d="M408 161l104.999 -77c-24 -30 -54.333 -53.5 -91 -70.5s-74.667 -25.5 -114 -25.5c-76.667 0 -140.834 23.5 -192.501 70.5s-77.5 108.5 -77.5 184.5s25.833 137.5 77.5 184.5s115.834 70.5 192.501 70.5c70 0 125.5 -23 166.5 -69s61.5 -108 61.5 -186v-47h-348
c6 -28.667 19.167 -51.5 39.5 -68.5s44.833 -25.5 73.5 -25.5c42.667 0 78.334 19.667 107.001 59zM187.999 298h198.001c0.666992 25.333 -7.83301 47 -25.5 65s-39.834 27 -66.501 27c-31.333 0 -56.333 -9 -75 -27s-29 -39.667 -31 -65z" />
    <glyph glyph-name="f" unicode="f" horiz-adv-x="370" 
d="M105 0l-0.000976562 366.002h-99v120h99v86c0 29.333 2.33301 54.666 7 75.999s13.5 41.666 26.5 60.999s32.5 34 58.5 44s58.667 15 98 15c34.667 0 64 -3 88 -9l-7 -127c-18.667 6.66699 -35 10 -49 10c-25.333 0 -43.666 -5.5 -54.999 -16.5s-17 -31.833 -17 -62.5
v-77h111v-120h-111v-366h-150z" />
    <glyph glyph-name="g" unicode="g" horiz-adv-x="630" 
d="M563 486l-0.000976562 -445c0 -92 -23.5 -161.833 -70.5 -209.5s-117.167 -71.5 -210.5 -71.5c-103.333 0 -184.666 23.667 -243.999 71l83 124c49.333 -42 102 -63 158 -63c44 0 77.333 10.833 100 32.5s34 50.5 34 86.5v47h-2c-16 -22 -36.5 -38.167 -61.5 -48.5
s-50.167 -15.5 -75.5 -15.5c-71.333 0 -129 23.333 -173 70s-66 107 -66 181c0 68 20.5 127.167 61.5 177.5s94.5 75.5 160.5 75.5c39.333 0 73.5 -7.66699 102.5 -23s50.167 -33 63.5 -53h2v64h138zM184.999 246c0 -32 11.667 -60 35 -84s51.666 -36 84.999 -36
s61.666 12 84.999 36s35 52 35 84s-11.667 60 -35 84s-51.666 36 -84.999 36s-61.666 -12 -84.999 -36s-35 -52 -35 -84z" />
    <glyph glyph-name="h" unicode="h" horiz-adv-x="574" 
d="M53 756h149.998v-336h2c8 20.667 24.167 38.834 48.5 54.501s53.5 23.5 87.5 23.5c70 0 117.5 -19.833 142.5 -59.5s37.5 -96.5 37.5 -170.5v-268h-150v238c0 14.667 -0.166992 26.5 -0.5 35.5s-1.83301 20.167 -4.5 33.5s-6.66699 23.666 -12 30.999
s-13.166 13.833 -23.499 19.5s-22.833 8.5 -37.5 8.5c-35.333 0 -59.166 -11.167 -71.499 -33.5s-18.5 -52.5 -18.5 -90.5v-242h-150v756z" />
    <glyph glyph-name="i" unicode="i" 
d="M55 0v486h150v-486h-150zM43 639c0 24 8.5 44.5 25.5 61.5s37.5 25.5 61.5 25.5s44.5 -8.5 61.5 -25.5s25.5 -37.5 25.5 -61.5s-8.5 -44.5 -25.5 -61.5s-37.5 -25.5 -61.5 -25.5s-44.5 8.5 -61.5 25.5s-25.5 37.5 -25.5 61.5z" />
    <glyph glyph-name="j" unicode="j" 
d="M205 486l-0.000976562 -522c0 -66 -13.667 -116.5 -41 -151.5s-73.666 -52.5 -138.999 -52.5c-30 0 -53.333 2.66699 -70 8l8 133c12 -6 25 -9 39 -9c12 0 22 3 30 9s13.5 15 16.5 27s4.83301 22.167 5.5 30.5s1 18.833 1 31.5v496h150zM42.999 639
c0 24 8.5 44.5 25.5 61.5s37.5 25.5 61.5 25.5s44.5 -8.5 61.5 -25.5s25.5 -37.5 25.5 -61.5s-8.5 -44.5 -25.5 -61.5s-37.5 -25.5 -61.5 -25.5s-44.5 8.5 -61.5 25.5s-25.5 37.5 -25.5 61.5z" />
    <glyph glyph-name="k" unicode="k" horiz-adv-x="556" 
d="M53 0v756h150v-462l166 192h184l-193 -219l198 -267h-189l-164 246h-2v-246h-150z" />
    <glyph glyph-name="l" unicode="l" 
d="M55 0v756h150v-756h-150z" />
    <glyph glyph-name="m" unicode="m" horiz-adv-x="870" 
d="M53 0v486h144v-66h2c11.333 21.333 29.333 39.666 54 54.999s54 23 88 23c74.667 0 124.667 -29 150 -87c32.667 58 84 87 154 87c114.667 0 172 -70.333 172 -211v-287h-150v283c0 55.333 -22 83 -66 83c-60.667 0 -91 -36.333 -91 -109v-257h-150v257
c0 14.667 -0.333008 25.834 -1 33.501s-2.83398 18.667 -6.50098 33s-10.5 25 -20.5 32s-23 10.5 -39 10.5c-35.333 0 -59.166 -11.167 -71.499 -33.5s-18.5 -52.5 -18.5 -90.5v-242h-150z" />
    <glyph glyph-name="n" unicode="n" horiz-adv-x="574" 
d="M53 0l-0.00195312 486.002h144v-66h2c11.333 21.333 29.333 39.666 54 54.999s54 23 88 23c70 0 117.5 -19.833 142.5 -59.5s37.5 -96.5 37.5 -170.5v-268h-150v238c0 14.667 -0.166992 26.5 -0.5 35.5s-1.83301 20.167 -4.5 33.5s-6.66699 23.666 -12 30.999
s-13.166 13.833 -23.499 19.5s-22.833 8.5 -37.5 8.5c-35.333 0 -59.166 -11.167 -71.499 -33.5s-18.5 -52.5 -18.5 -90.5v-242h-150z" />
    <glyph glyph-name="o" unicode="o" horiz-adv-x="610" 
d="M35 243c0 76 25.833 137.5 77.5 184.5s115.834 70.5 192.501 70.5s140.834 -23.5 192.501 -70.5s77.5 -108.5 77.5 -184.5s-25.833 -137.5 -77.5 -184.5s-115.834 -70.5 -192.501 -70.5s-140.834 23.5 -192.501 70.5s-77.5 108.5 -77.5 184.5zM185 243
c0 -36.667 10.667 -66.334 32 -89.001s50.666 -34 87.999 -34s66.666 11.333 87.999 34s32 52.334 32 89.001s-10.667 66.334 -32 89.001s-50.666 34 -87.999 34s-66.666 -11.333 -87.999 -34s-32 -52.334 -32 -89.001z" />
    <glyph glyph-name="p" unicode="p" horiz-adv-x="630" 
d="M67 -228v714h138v-64h2c12.667 20 32.834 37.667 60.501 53s57.167 23 88.5 23c71.333 0 129 -23.333 173 -70s66 -107 66 -181c0 -70.667 -20.333 -131.5 -61 -182.5s-94.334 -76.5 -161.001 -76.5c-72 0 -123.333 21.333 -154 64h-2v-280h-150zM205 243
c0 -36.667 10.667 -66.334 32 -89.001s50.666 -34 87.999 -34s66.666 11.333 87.999 34s32 52.334 32 89.001s-10.667 66.334 -32 89.001s-50.666 34 -87.999 34s-66.666 -11.333 -87.999 -34s-32 -52.334 -32 -89.001z" />
    <glyph glyph-name="q" unicode="q" horiz-adv-x="630" 
d="M563 486v-714h-150v280h-2c-30.667 -42.667 -82 -64 -154 -64c-66.667 0 -120.334 25.5 -161.001 76.5s-61 111.833 -61 182.5c0 74 22 134.333 66 181s101.667 70 173 70c31.333 0 60.833 -7.66699 88.5 -23s47.834 -33 60.501 -53h2v64h138zM425 243
c0 36.667 -10.667 66.334 -32 89.001s-50.666 34 -87.999 34s-66.666 -11.333 -87.999 -34s-32 -52.334 -32 -89.001s10.667 -66.334 32 -89.001s50.666 -34 87.999 -34s66.666 11.333 87.999 34s32 52.334 32 89.001z" />
    <glyph glyph-name="r" unicode="r" horiz-adv-x="407" 
d="M53 0v485.999h150v-78h2c32.667 60 79.334 90 140.001 90c22 0 38.667 -1.66699 50 -5v-137c-23.333 6.66699 -44.666 10 -63.999 10c-27.333 0 -49.833 -3.66699 -67.5 -11s-30.834 -19 -39.501 -35s-14.334 -32.667 -17.001 -50s-4 -39.666 -4 -66.999v-203h-150z" />
    <glyph glyph-name="s" unicode="s" horiz-adv-x="463" 
d="M420 434l-92 -91.001c-22 27.333 -51 41 -87 41c-14.667 0 -27.5 -3.33301 -38.5 -10s-16.5 -16.667 -16.5 -30c0 -10.667 6.16699 -19.5 18.5 -26.5s28 -12 47 -15s39.333 -7.66699 61 -14s42 -14 61 -23s34.667 -23.667 47 -44s18.5 -44.833 18.5 -73.5
c0 -29.333 -6.66699 -55 -20 -77s-31.166 -38.667 -53.499 -50s-46 -19.666 -71 -24.999s-51.5 -8 -79.5 -8c-84 0 -147.667 22 -191 66l91 101c29.333 -35.333 64.666 -53 105.999 -53c45.333 0 68 11.667 68 35c0 14 -8.66699 24.667 -26 32s-38.333 13.5 -63 18.5
s-49.5 11.5 -74.5 19.5s-46.167 22.667 -63.5 44s-26 49 -26 83c0 53.333 20 94 60 122s88 42 144 42c80 0 140 -21.333 180 -64z" />
    <glyph glyph-name="t" unicode="t" horiz-adv-x="407" 
d="M384 486l-0.000976562 -120h-132v-162c0 -30.667 4.33301 -53.334 13 -68.001s28 -22 58 -22c30.667 0 51 4.66699 61 14v-125c-27.333 -10 -62.333 -15 -105 -15c-53.333 0 -96.166 11.833 -128.499 35.5s-48.5 60.834 -48.5 111.501v231h-96v120h96v144h150v-144h132z
" />
    <glyph glyph-name="u" unicode="u" horiz-adv-x="574" 
d="M521 486l0.00195312 -486.002h-144v66h-2c-11.333 -21.333 -29.333 -39.666 -54 -54.999s-54 -23 -88 -23c-70 0 -117.5 19.833 -142.5 59.5s-37.5 96.5 -37.5 170.5v268h150v-238c0 -14.667 0.166992 -26.5 0.5 -35.5s1.83301 -20.167 4.5 -33.5
s6.66699 -23.666 12 -30.999s13.166 -13.833 23.499 -19.5s22.833 -8.5 37.5 -8.5c35.333 0 59.166 11.167 71.499 33.5s18.5 52.5 18.5 90.5v242h150z" />
    <glyph glyph-name="v" unicode="v" horiz-adv-x="556" 
d="M203 0l-201 486h162l123 -330h2l114 330h151l-192 -486h-159z" />
    <glyph glyph-name="w" unicode="w" horiz-adv-x="833" 
d="M173 0l-178 486h160l99 -305h2l83 305h164l90 -305h2l91 305h152l-173 -486h-148l-101 323h-2l-90 -323h-151z" />
    <glyph glyph-name="x" unicode="x" horiz-adv-x="556" 
d="M-8 0l192 260l-162 226h177l86 -132l83 132h167l-158 -226l187 -260h-177l-106 162l-114 -162h-175z" />
    <glyph glyph-name="y" unicode="y" horiz-adv-x="556" 
d="M553 486l-219.999 -565.001c-10 -26 -17.833 -45.167 -23.5 -57.5s-14 -26.666 -25 -42.999s-22.667 -27.833 -35 -34.5s-28.833 -12.667 -49.5 -18s-45 -8 -73 -8c-38.667 0 -76 6 -112 18l20 123c23.333 -10 46.666 -15 69.999 -15c22 0 39.5 3.66699 52.5 11
s22 15.5 27 24.5s11.833 24.5 20.5 46.5l11 28l-213 490h162l125 -321h2l107 321h154z" />
    <glyph glyph-name="z" unicode="z" horiz-adv-x="500" 
d="M34 0v150l252 216h-246v120h420v-144l-264 -222h270v-120h-432z" />
    <glyph glyph-name="braceleft" unicode="{" horiz-adv-x="370" 
d="M356 -42l0.000976562 -114.005h-105c-38 0 -69 12 -93 36s-36 60.667 -36 110v172c0 14.667 -4.16699 27 -12.5 37s-19.166 17 -32.499 21s-25 6.83301 -35 8.5s-19.333 2.5 -28 2.5v114c8.66699 0 18 0.833008 28 2.5s21.667 4.5 35 8.5s24.166 11 32.499 21
s12.5 22.333 12.5 37v173c0 49.333 11.667 85.833 35 109.5s54.666 35.5 93.999 35.5h105v-114h-49c-14.667 0 -26.667 -2 -36 -6s-15.833 -9.5 -19.5 -16.5s-6.16699 -13.5 -7.5 -19.5s-2 -13.333 -2 -22v-161c0 -22 -3 -40.167 -9 -54.5s-14.833 -24.666 -26.5 -30.999
s-21.834 -10.666 -30.501 -12.999s-20 -4.16602 -34 -5.49902v-2c14 -0.666992 25.333 -2.16699 34 -4.5s18.834 -6.66602 30.501 -12.999s20.5 -16.666 26.5 -30.999s9 -32.5 9 -54.5v-162c0 -8.66699 0.666992 -16 2 -22s3.83301 -12.5 7.5 -19.5s10.167 -12.5 19.5 -16.5
s21.333 -6 36 -6h49z" />
    <glyph glyph-name="bar" unicode="|" horiz-adv-x="222" 
d="M48 750h126v-1000h-126v1000z" />
    <glyph glyph-name="braceright" unicode="}" horiz-adv-x="370" 
d="M14 618l-0.00195312 114.005h108c36.667 0 66.834 -12 90.501 -36s35.5 -60.667 35.5 -110v-172c0 -14.667 4.16699 -27 12.5 -37s19 -17 32 -21s24.5 -6.83301 34.5 -8.5s19.667 -2.5 29 -2.5v-114c-9.33301 0 -19 -0.833008 -29 -2.5s-21.5 -4.5 -34.5 -8.5
s-23.667 -11 -32 -21s-12.5 -22.333 -12.5 -37v-173c0 -49.333 -11.667 -85.833 -35 -109.5s-54.666 -35.5 -93.999 -35.5h-105v114h49c14.667 0 26.667 2 36 6s15.833 9.5 19.5 16.5s6.16699 13.5 7.5 19.5s2 13.333 2 22v161c0 22 3 40.167 9 54.5
s14.833 24.666 26.5 30.999s21.834 10.666 30.501 12.999s20 4.16602 34 5.49902v2c-14 0.666992 -25.333 2.16699 -34 4.5s-18.834 6.66602 -30.501 12.999s-20.5 16.666 -26.5 30.999s-9 32.5 -9 54.5v162c0 8.66699 -0.666992 16 -2 22s-3.83301 12.5 -7.5 19.5
s-10.167 12.5 -19.5 16.5s-21.333 6 -36 6h-49z" />
    <glyph glyph-name="asciitilde" unicode="~" horiz-adv-x="666" 
d="M528 400l36 -108c-30 -57.333 -71.667 -86 -125 -86c-26 0 -63 10.667 -111 32l-21.5 9.5c-9.66699 4.33301 -17.334 7.66602 -23.001 9.99902l-20 8c-7.66699 3 -14.5 5.16699 -20.5 6.5s-11.667 2 -17 2c-12.667 0 -25 -4.16699 -37 -12.5s-20.5 -15.666 -25.5 -21.999
l-25.5 -33.5l-36 108c30 57.333 71.667 86 125 86c26 0 63 -10.667 111 -32l21.5 -9.5c9.66699 -4.33301 17.334 -7.66602 23.001 -9.99902l20 -8c7.66699 -3 14.5 -5.16699 20.5 -6.5s11.667 -2 17 -2c12.667 0 25 4.16699 37 12.5s20.5 15.666 25.5 21.999z" />
    <glyph glyph-name="uni00A0" unicode="&#xa0;" horiz-adv-x="296" 
 />
    <glyph glyph-name="exclamdown" unicode="&#xa1;" horiz-adv-x="444" 
d="M147 -222v474h150v-474h-150zM314 400c0 -25.333 -9 -47 -27 -65s-39.667 -27 -65 -27s-47 9 -65 27s-27 39.667 -27 65s9 47 27 65s39.667 27 65 27s47 -9 65 -27s27 -39.667 27 -65z" />
    <glyph glyph-name="cent" unicode="&#xa2;" horiz-adv-x="592" 
d="M310 -81l0.000976562 69c-70 4 -126.5 30 -169.5 78s-64.5 107 -64.5 177c0 70.667 21.167 128.667 63.5 174s99.166 72.333 170.499 81v66h60v-66c66 0 123.333 -20.667 172 -62l-96 -102c-24.667 25.333 -50 38 -76 38v-258c26 0 53.667 14.333 83 43l91 -107
c-22.667 -22 -50.167 -37.833 -82.5 -47.5s-62.833 -14.5 -91.5 -14.5v-69h-60zM310.001 114l-0.000976562 258c-29.333 -6 -51.666 -20.667 -66.999 -44s-23 -51.333 -23 -84c0 -68 30 -111.333 90 -130z" />
    <glyph glyph-name="sterling" unicode="&#xa3;" horiz-adv-x="592" 
d="M48 0v114h96v198h-96v102h96v71c0 64 22.167 119.167 66.5 165.5s104.833 69.5 181.5 69.5c89.333 0 159 -22.667 209 -68l-100 -107c-28.667 28.667 -59 43 -91 43c-41.333 0 -71 -12 -89 -36s-27 -53.667 -27 -89v-49h156v-102h-156v-198h253v-114h-499z" />
    <glyph glyph-name="currency" unicode="&#xa4;" horiz-adv-x="592" 
d="M36 153l49 49.002c-32.667 45.333 -49 96 -49 152s16.333 106.667 49 152l-49 49l60 59l49 -48c44.667 32 95 48 151 48s106.333 -16 151 -48l49 48l60 -59l-49 -49c32.667 -44.667 49 -95.334 49 -152.001s-16.333 -107.334 -49 -152.001l49 -49l-60 -59l-49 48
c-44.667 -32 -95 -48 -151 -48s-106.333 16 -151 48l-49 -48zM168 354.002c0 -37.333 12.5 -69 37.5 -95s55.167 -39 90.5 -39s65.5 13 90.5 39s37.5 57.667 37.5 95s-12.5 69 -37.5 95s-55.167 39 -90.5 39s-65.5 -13 -90.5 -39s-37.5 -57.667 -37.5 -95z" />
    <glyph glyph-name="yen" unicode="&#xa5;" horiz-adv-x="592" 
d="M218 0v158h-169v96h169v48l-12 20h-157v96h100l-185 290h182l150 -264l150 264h182l-185 -290h100v-96h-157l-12 -20v-48h169v-96h-169v-158h-156z" />
    <glyph glyph-name="brokenbar" unicode="&#xa6;" horiz-adv-x="222" 
d="M48 675h126v-350h-126v350zM48 175h126v-350h-126v350z" />
    <glyph glyph-name="section" unicode="&#xa7;" horiz-adv-x="592" 
d="M517 617l-125.998 -72.002c-6.66699 18.667 -18.5 33.5 -35.5 44.5s-35.833 16.5 -56.5 16.5c-17.333 0 -32.5 -4.66699 -45.5 -14s-19.5 -22.333 -19.5 -39c0 -18 10.667 -34 32 -48s47.333 -26.833 78 -38.5s61.334 -24.5 92.001 -38.5s56.667 -33.667 78 -59
s32 -54.666 32 -87.999c0 -26.667 -7.83301 -52 -23.5 -76s-35.834 -42 -60.501 -54c36.667 -29.333 55 -69 55 -119c0 -41.333 -13.333 -76.333 -40 -105s-57.834 -48.834 -93.501 -60.501s-73.167 -17.5 -112.5 -17.5c-116 0 -193.667 42 -233 126l128 63
c5.33301 -22.667 18.666 -39.834 39.999 -51.501s44.333 -17.5 69 -17.5c20 0 38.333 4 55 12s25 21.333 25 40c0 14.667 -7.5 27.834 -22.5 39.501s-33.5 21.5 -55.5 29.5s-46.167 18 -72.5 30s-50.5 24.5 -72.5 37.5s-40.5 31.333 -55.5 55s-22.5 50.5 -22.5 80.5
c0 62.667 29 112 87 148c-42 28 -63 66.333 -63 115c0 36.667 11.167 68.334 33.5 95.001s49.333 45.834 81 57.501s65.167 17.5 100.5 17.5c48.667 0 93.5 -8.5 134.5 -25.5s70.833 -44.833 89.5 -83.5zM272.002 238.998l102 -46.998c22.667 13.333 34 33.666 34 60.999
c0 29.333 -21.667 53.333 -65 72l-116 55c-23.333 -13.333 -35 -33 -35 -59c0 -11.333 2 -21.333 6 -30s11.167 -16.5 21.5 -23.5s18 -11.833 23 -14.5s14.833 -7.33398 29.5 -14.001z" />
    <glyph glyph-name="dieresis" unicode="&#xa8;" 
d="M25 558c-23.333 0 -42.999 8.5 -58.999 25.5s-24 37.167 -24 60.5c0 22 8 41.167 24 57.5s35 24.5 57 24.5c23.333 0 43.666 -7.83301 60.999 -23.5s26 -35.167 26 -58.5c0 -24 -8.16699 -44.333 -24.5 -61s-36.5 -25 -60.5 -25zM233.001 558
c-23.333 0 -42.999 8.5 -58.999 25.5s-24 37.167 -24 60.5c0 22 8 41.167 24 57.5s35 24.5 57 24.5c23.333 0 43.666 -7.83301 60.999 -23.5s26 -35.167 26 -58.5c0 -24 -8.16699 -44.333 -24.5 -61s-36.5 -25 -60.5 -25z" />
    <glyph glyph-name="copyright" unicode="&#xa9;" horiz-adv-x="800" 
d="M494 300h93.998c-6.66699 -50 -26.667 -88.667 -60 -116s-72.666 -41 -117.999 -41c-61.333 0 -109.833 20.167 -145.5 60.5s-53.5 91.5 -53.5 153.5c0 63.333 17.167 114.166 51.5 152.499s82.833 57.5 145.5 57.5c47.333 0 87.333 -12.667 120 -38s52.667 -62 60 -110
h-94c-8 38.667 -34 58 -78 58c-32 0 -56.167 -10.5 -72.5 -31.5s-24.5 -49.833 -24.5 -86.5c0 -37.333 8.66699 -67.666 26 -90.999s40.333 -35 69 -35c50.667 0 77.334 22.333 80.001 67zM27.998 354c0 102.667 36.333 190.334 109 263.001s160.334 109 263.001 109
s190.334 -36.333 263.001 -109s109 -160.334 109 -263.001s-36.333 -190.334 -109 -263.001s-160.334 -109 -263.001 -109s-190.334 36.333 -263.001 109s-109 160.334 -109 263.001zM129.998 354c0 -77.333 26.333 -143.666 79 -198.999s116.334 -83 191.001 -83
s138.334 27.667 191.001 83s79 121.666 79 198.999s-26.333 143.666 -79 198.999s-116.334 83 -191.001 83s-138.334 -27.667 -191.001 -83s-79 -121.666 -79 -198.999z" />
    <glyph glyph-name="ordfeminine" unicode="&#xaa;" horiz-adv-x="349" 
d="M230 431v37h-2c-12.667 -28.667 -43.667 -43 -93 -43c-31.333 0 -57.833 7.83301 -79.5 23.5s-32.5 37.5 -32.5 65.5c0 19.333 5 35.833 15 49.5s21.833 24 35.5 31s31 12.5 52 16.5s38.667 6.33301 53 7s31.5 1 51.5 1c0 12.667 -5.16699 23.667 -15.5 33
s-23.833 14 -40.5 14c-28.667 0 -55 -12 -79 -36l-52 49c36.667 31.333 83 47 139 47c54 0 91.5 -12 112.5 -36s31.5 -61 31.5 -111v-148h-96zM236 540v19h-18c-62 0 -93 -13.667 -93 -41c0 -18 14.333 -27 43 -27c18.667 0 34.667 5.16699 48 15.5s20 21.5 20 33.5z" />
    <glyph glyph-name="guillemotleft" unicode="&#xab;" horiz-adv-x="538" 
d="M268 422l-116 -173l116 -173l-91 -61l-159 234l159 234zM510 422l-116 -173l116 -173l-91 -61l-159 234l159 234z" />
    <glyph glyph-name="logicalnot" unicode="&#xac;" horiz-adv-x="666" 
d="M481 142v194h-422v126h548v-320h-126z" />
    <glyph glyph-name="uni00AD" unicode="&#xad;" horiz-adv-x="296" 
d="M271 309v-120h-246v120h246z" />
    <glyph glyph-name="registered" unicode="&#xae;" horiz-adv-x="800" 
d="M257 163v390h138c110.667 0 166 -42 166 -126c0 -64.667 -30.333 -101 -91 -109l100 -155h-105l-89 150h-17v-150h-102zM358 475v-84.001h41c11.333 0 20.5 0.5 27.5 1.5s14.167 4.83301 21.5 11.5s11 16.334 11 29.001c0 28 -20 42 -60 42h-41zM28 353.999
c0 102.667 36.333 190.334 109 263.001s160.334 109 263.001 109s190.334 -36.333 263.001 -109s109 -160.334 109 -263.001s-36.333 -190.334 -109 -263.001s-160.334 -109 -263.001 -109s-190.334 36.333 -263.001 109s-109 160.334 -109 263.001zM130 353.999
c0 -77.333 26.333 -143.666 79 -198.999s116.334 -83 191.001 -83s138.334 27.667 191.001 83s79 121.666 79 198.999s-26.333 143.666 -79 198.999s-116.334 83 -191.001 83s-138.334 -27.667 -191.001 -83s-79 -121.666 -79 -198.999z" />
    <glyph glyph-name="macron" unicode="&#xaf;" 
d="M300 687v-96h-340v96h340z" />
    <glyph glyph-name="degree" unicode="&#xb0;" horiz-adv-x="400" 
d="M200 460c24.667 0 45.5 8.5 62.5 25.5s25.5 37.833 25.5 62.5s-8.5 45.5 -25.5 62.5s-37.833 25.5 -62.5 25.5s-45.5 -8.5 -62.5 -25.5s-25.5 -37.833 -25.5 -62.5s8.5 -45.5 25.5 -62.5s37.833 -25.5 62.5 -25.5zM200 376c-47.333 0 -87.833 16.833 -121.5 50.5
s-50.5 74.167 -50.5 121.5s16.833 87.833 50.5 121.5s74.167 50.5 121.5 50.5s87.833 -16.833 121.5 -50.5s50.5 -74.167 50.5 -121.5s-16.833 -87.833 -50.5 -121.5s-74.167 -50.5 -121.5 -50.5z" />
    <glyph glyph-name="plusminus" unicode="&#xb1;" horiz-adv-x="666" 
d="M59 323v126h211v128h126v-128h211v-126h-211v-128h-126v128h-211zM59 29v126h548v-126h-548z" />
    <glyph glyph-name="twosuperior" unicode="&#xb2;" horiz-adv-x="385" 
d="M24 289v88.998l186 158c28.667 24 43 42.333 43 55c0 26 -19.667 39 -59 39c-18.667 0 -34 -5.16699 -46 -15.5s-18.667 -23.166 -20 -38.499l-102 6c3.33301 46 20.5 80.5 51.5 103.5s71.5 34.5 121.5 34.5c48 0 87 -10.667 117 -32s45 -50.666 45 -87.999
c0 -31.333 -4.5 -54.333 -13.5 -69s-24.833 -30.667 -47.5 -48l-140 -108v-2h201v-84h-337z" />
    <glyph glyph-name="threesuperior" unicode="&#xb3;" horiz-adv-x="385" 
d="M143 468l-0.00195312 84.001h34c49.333 0 74 15 74 45c0 22 -18.667 33 -56 33c-35.333 0 -56.666 -14.667 -63.999 -44l-110 20c20 76 78 114 174 114c46 0 84.833 -9.83301 116.5 -29.5s47.5 -47.834 47.5 -84.501c0 -24 -7.16699 -44.333 -21.5 -61
s-34.833 -27.334 -61.5 -32.001v-2c28 -3.33301 50.333 -14.5 67 -33.5s25 -41.167 25 -66.5c0 -41.333 -16.667 -73 -50 -95s-75.333 -33 -126 -33c-98 0 -156.333 39.333 -175 118l109 22c7.33301 -33.333 29.333 -50 66 -50c45.333 0 68 16 68 48
c0 10.667 -2.33301 19.5 -7 26.5s-12.167 11.833 -22.5 14.5s-19.666 4.33398 -27.999 5.00098s-19.833 1 -34.5 1h-25z" />
    <glyph glyph-name="acute" unicode="&#xb4;" 
d="M30 564l101 144h204l-173 -144h-132z" />
    <glyph glyph-name="mu" unicode="&#xb5;" horiz-adv-x="574" 
d="M521 486l0.00195312 -486.002h-144v66h-2c-11.333 -21.333 -29.333 -39.666 -54 -54.999s-54 -23 -88 -23c-11.333 0 -21.333 1 -30 3v-219h-150v714h150v-238c0 -14.667 0.166992 -26.5 0.5 -35.5s1.83301 -20.167 4.5 -33.5s6.66699 -23.666 12 -30.999
s13.166 -13.833 23.499 -19.5s22.833 -8.5 37.5 -8.5c35.333 0 59.166 11.167 71.499 33.5s18.5 52.5 18.5 90.5v242h150z" />
    <glyph glyph-name="paragraph" unicode="&#xb6;" horiz-adv-x="620" 
d="M236 -133v492c-72 0 -127.167 15 -165.5 45s-57.5 72 -57.5 126c0 66.667 21.5 113 64.5 139s103.5 39 181.5 39h302v-841h-108v745h-109v-745h-108z" />
    <glyph glyph-name="periodcentered" unicode="&#xb7;" horiz-adv-x="296" 
d="M56 283c0 25.333 9 47 27 65s39.667 27 65 27s47 -9 65 -27s27 -39.667 27 -65s-9 -47 -27 -65s-39.667 -27 -65 -27s-47 9 -65 27s-27 39.667 -27 65z" />
    <glyph glyph-name="cedilla" unicode="&#xb8;" 
d="M168 0l-41 -60c24 0 44.167 -1.5 60.5 -4.5s31.333 -11 45 -24s20.5 -31.167 20.5 -54.5c0 -32.667 -15 -57 -45 -73s-61.333 -24 -94 -24c-42 0 -83.667 10 -125 30l25 47c30 -11.333 55.667 -17 77 -17c44 0 66 10.667 66 32c0 10.667 -5.33301 19 -16 25s-22 9 -34 9
c-11.333 0 -23.333 -2.66699 -36 -8l-32 29l62 93h67z" />
    <glyph glyph-name="onesuperior" unicode="&#xb9;" horiz-adv-x="385" 
d="M183 289v317l-89 -75l-58 66l159 117h96v-425h-108z" />
    <glyph glyph-name="ordmasculine" unicode="&#xba;" horiz-adv-x="397" 
d="M23 575c0 44.667 16.667 81 50 109s75 42 125 42s91.833 -14 125.5 -42s50.5 -64.333 50.5 -109c0 -46 -16.667 -82.5 -50 -109.5s-75.333 -40.5 -126 -40.5s-92.5 13.5 -125.5 40.5s-49.5 63.5 -49.5 109.5zM125 575c0.666992 -18.667 7.5 -34.334 20.5 -47.001
s30.5 -19 52.5 -19s39.833 6.33301 53.5 19s20.5 28.334 20.5 47.001s-6.83301 34.5 -20.5 47.5s-31.5 19.5 -53.5 19.5s-39.667 -6.33301 -53 -19s-20 -28.667 -20 -48z" />
    <glyph glyph-name="guillemotright" unicode="&#xbb;" horiz-adv-x="538" 
d="M270 76l116 173l-116 173l91 61l159 -234l-159 -234zM28 76l116 173l-116 173l91 61l159 -234l-159 -234z" />
    <glyph glyph-name="onequarter" unicode="&#xbc;" horiz-adv-x="889" 
d="M716 0v85h-209v78l199 262h118v-256h57v-84h-57v-85h-108zM716 169v136h-2l-99 -136h101zM155 289v317l-89 -75l-58 66l159 117h96v-425h-108zM189 11l405 729l84 -47l-413 -725z" />
    <glyph glyph-name="onehalf" unicode="&#xbd;" horiz-adv-x="889" 
d="M155 289v317l-89 -75l-58 66l159 117h96v-425h-108zM544 0v88.998l186 158c28.667 24 43 42.333 43 55c0 26 -19.667 39 -59 39c-18.667 0 -34 -5.16699 -46 -15.5s-18.667 -23.166 -20 -38.499l-102 6c3.33301 46 20.5 80.5 51.5 103.5s71.5 34.5 121.5 34.5
c48 0 87 -10.667 117 -32s45 -50.666 45 -87.999c0 -31.333 -4.5 -54.333 -13.5 -69s-24.833 -30.667 -47.5 -48l-140 -108v-2h201v-84h-337zM189 10.998l405 729l84 -47l-413 -725z" />
    <glyph glyph-name="threequarters" unicode="&#xbe;" horiz-adv-x="889" 
d="M720 0v85h-209v78l199 262h118v-256h57v-84h-57v-85h-108zM720 169v136h-2l-99 -136h101zM130 468l-0.00292969 84.001h34c49.333 0 74 15 74 45c0 22 -18.667 33 -56 33c-35.333 0 -56.666 -14.667 -63.999 -44l-109 20c18.667 76 76.334 114 173.001 114
c46 0 84.833 -9.83301 116.5 -29.5s47.5 -47.834 47.5 -84.501c0 -24 -7.16699 -44.333 -21.5 -61s-34.833 -27.334 -61.5 -32.001v-2c28 -3.33301 50.333 -14.5 67 -33.5s25 -41.167 25 -66.5c0 -41.333 -16.667 -73 -50 -95s-75.333 -33 -126 -33
c-98 0 -156.333 39.333 -175 118l109 22c7.33301 -33.333 29.333 -50 66 -50c45.333 0 68 16 68 48c0 10.667 -2.33301 19.5 -7 26.5s-12.167 11.833 -22.5 14.5s-19.666 4.33398 -27.999 5.00098s-19.833 1 -34.5 1h-25zM212.997 11.001l405 729l84 -47l-413 -725z" />
    <glyph glyph-name="questiondown" unicode="&#xbf;" horiz-adv-x="556" 
d="M340 252l0.00195312 -44c0 -37.333 -11.667 -67.333 -35 -90c-12 -12 -28.5 -27.333 -49.5 -46s-35.667 -32 -44 -40s-16.166 -18 -23.499 -30s-11 -23.333 -11 -34c0 -21.333 6.66699 -38.333 20 -51s30.666 -19 51.999 -19c30 0 53.5 8.33301 70.5 25s26.5 38 28.5 64
l154 -10c-6.66699 -69.333 -32.334 -122.833 -77.001 -160.5s-102.334 -56.5 -173.001 -56.5c-64 0 -117.5 17.333 -160.5 52s-64.5 83 -64.5 145c0 38 8.83301 71 26.5 99s50.167 60.667 97.5 98c26 20 39 43 39 69v29h150zM357.002 400c0 -25.333 -9 -47 -27 -65
s-39.667 -27 -65 -27s-47 9 -65 27s-27 39.667 -27 65s9 47 27 65s39.667 27 65 27s47 -9 65 -27s27 -39.667 27 -65z" />
    <glyph glyph-name="Agrave" unicode="&#xc0;" horiz-adv-x="741" 
d="M-1 0l306 708h129l308 -708h-176l-61 150h-275l-59 -150h-172zM452 282l-87 220l-86 -220h173zM372 903l101 -144h-132l-173 144h204z" />
    <glyph glyph-name="Aacute" unicode="&#xc1;" horiz-adv-x="741" 
d="M-1 0l306 708h129l308 -708h-176l-61 150h-275l-59 -150h-172zM452 282l-87 220l-86 -220h173zM271 759l101 144h204l-173 -144h-132z" />
    <glyph glyph-name="Acircumflex" unicode="&#xc2;" horiz-adv-x="741" 
d="M-1 0l306 708h129l308 -708h-176l-61 150h-275l-59 -150h-172zM452 282l-87 220l-86 -220h173zM570 759h-138l-63 78l-62 -78h-135l119 144h163z" />
    <glyph glyph-name="Atilde" unicode="&#xc3;" horiz-adv-x="741" 
d="M-1 0l306 708h129l308 -708h-176l-61 150h-275l-59 -150h-172zM452 282l-87 220l-86 -220h173zM254 765h-79.001c6 38 20 70.5 42 97.5s50.333 40.5 85 40.5c24 0 53 -7 87 -21c26 -10 44.667 -15 56 -15c18.667 0 33.334 12 44.001 36h78
c-16 -92 -59.333 -138 -130 -138c-20 0 -46 7 -78 21c-29.333 14 -50.333 21 -63 21c-19.333 0 -33.333 -14 -42 -42z" />
    <glyph glyph-name="Adieresis" unicode="&#xc4;" horiz-adv-x="741" 
d="M-1 0l306 708h129l308 -708h-176l-61 150h-275l-59 -150h-172zM452 282l-87 220l-86 -220h173zM266 753c-23.333 0 -42.999 8.5 -58.999 25.5s-24 37.167 -24 60.5c0 22 8 41.167 24 57.5s35 24.5 57 24.5c23.333 0 43.666 -7.83301 60.999 -23.5s26 -35.167 26 -58.5
c0 -24 -8.16699 -44.333 -24.5 -61s-36.5 -25 -60.5 -25zM474.001 753c-23.333 0 -42.999 8.5 -58.999 25.5s-24 37.167 -24 60.5c0 22 8 41.167 24 57.5s35 24.5 57 24.5c23.333 0 43.666 -7.83301 60.999 -23.5s26 -35.167 26 -58.5c0 -24 -8.16699 -44.333 -24.5 -61
s-36.5 -25 -60.5 -25z" />
    <glyph glyph-name="Aring" unicode="&#xc5;" horiz-adv-x="741" 
d="M-1 0l306 708h129l308 -708h-176l-61 150h-275l-59 -150h-172zM452 282l-87 220l-86 -220h173zM371 731c-30.667 0 -56.834 10.833 -78.501 32.5s-32.5 47.834 -32.5 78.501s10.833 56.834 32.5 78.501s47.834 32.5 78.501 32.5s56.834 -10.833 78.501 -32.5
s32.5 -47.834 32.5 -78.501s-10.833 -56.834 -32.5 -78.501s-47.834 -32.5 -78.501 -32.5zM320 842c0 -14 5 -26 15 -36s22 -15 36 -15s26 5 36 15s15 22 15 36s-5 26 -15 36s-22 15 -36 15s-26 -5 -36 -15s-15 -22 -15 -36z" />
    <glyph glyph-name="AE" unicode="&#xc6;" horiz-adv-x="1037" 
d="M534 0v150h-263l-95 -150h-191l449 708h538v-144h-282v-132h258v-144h-258v-144h294v-144h-450zM534 282v282h-17l-179 -282h196z" />
    <glyph glyph-name="Ccedilla" unicode="&#xc7;" horiz-adv-x="685" 
d="M655 622l-119.996 -98c-32.667 38.667 -77.334 58 -134.001 58c-59.333 0 -108.333 -21.5 -147 -64.5s-58 -97.5 -58 -163.5c0 -65.333 19.167 -119.666 57.5 -162.999s85.833 -65 142.5 -65c63.333 0 112 25.333 146 76l130 -97
c-28.667 -40.667 -65.834 -71.334 -111.501 -92.001s-93.834 -31 -144.501 -31c-8.66699 0 -15 0.333008 -19 1l-29 -43c24 0 44.167 -1.5 60.5 -4.5s31.333 -11 45 -24s20.5 -31.167 20.5 -54.5c0 -32.667 -15 -57 -45 -73s-61.333 -24 -94 -24c-42 0 -83.667 10 -125 30
l25 47c30 -11.333 55.667 -17 77 -17c44 0 66 10.667 66 32c0 10.667 -5.33301 19 -16 25s-22 9 -34 9c-11.333 0 -23.333 -2.66699 -36 -8l-32 29l54 82c-90.667 16 -163.334 56.5 -218.001 121.5s-82 146.167 -82 243.5c0 112 35.667 202 107 270s163 102 275 102
c44.667 0 88.667 -8.33301 132 -25s79 -43 107 -79z" />
    <glyph glyph-name="Egrave" unicode="&#xc8;" horiz-adv-x="630" 
d="M78 0v708h481v-144h-325v-132h307v-144h-307v-144h343v-144h-499zM316 903l101 -144h-132l-173 144h204z" />
    <glyph glyph-name="Eacute" unicode="&#xc9;" horiz-adv-x="630" 
d="M78 0v708h481v-144h-325v-132h307v-144h-307v-144h343v-144h-499zM215 759l101 144h204l-173 -144h-132z" />
    <glyph glyph-name="Ecircumflex" unicode="&#xca;" horiz-adv-x="630" 
d="M78 0v708h481v-144h-325v-132h307v-144h-307v-144h343v-144h-499zM514 759h-138l-63 78l-62 -78h-135l119 144h163z" />
    <glyph glyph-name="Edieresis" unicode="&#xcb;" horiz-adv-x="630" 
d="M78 0v708h481v-144h-325v-132h307v-144h-307v-144h343v-144h-499zM210 753c-23.333 0 -42.999 8.5 -58.999 25.5s-24 37.167 -24 60.5c0 22 8 41.167 24 57.5s35 24.5 57 24.5c23.333 0 43.666 -7.83301 60.999 -23.5s26 -35.167 26 -58.5
c0 -24 -8.16699 -44.333 -24.5 -61s-36.5 -25 -60.5 -25zM418.001 753c-23.333 0 -42.999 8.5 -58.999 25.5s-24 37.167 -24 60.5c0 22 8 41.167 24 57.5s35 24.5 57 24.5c23.333 0 43.666 -7.83301 60.999 -23.5s26 -35.167 26 -58.5c0 -24 -8.16699 -44.333 -24.5 -61
s-36.5 -25 -60.5 -25z" />
    <glyph glyph-name="Igrave" unicode="&#xcc;" horiz-adv-x="296" 
d="M70 0v708h156v-708h-156zM149 903l101 -144h-132l-173 144h204z" />
    <glyph glyph-name="Iacute" unicode="&#xcd;" horiz-adv-x="296" 
d="M70 0v708h156v-708h-156zM48 759l101 144h204l-173 -144h-132z" />
    <glyph glyph-name="Icircumflex" unicode="&#xce;" horiz-adv-x="296" 
d="M70 0v708h156v-708h-156zM347 759h-138l-63 78l-62 -78h-135l119 144h163z" />
    <glyph glyph-name="Idieresis" unicode="&#xcf;" horiz-adv-x="296" 
d="M70 0v708h156v-708h-156zM43 753c-23.333 0 -42.999 8.5 -58.999 25.5s-24 37.167 -24 60.5c0 22 8 41.167 24 57.5s35 24.5 57 24.5c23.333 0 43.666 -7.83301 60.999 -23.5s26 -35.167 26 -58.5c0 -24 -8.16699 -44.333 -24.5 -61s-36.5 -25 -60.5 -25zM251.001 753
c-23.333 0 -42.999 8.5 -58.999 25.5s-24 37.167 -24 60.5c0 22 8 41.167 24 57.5s35 24.5 57 24.5c23.333 0 43.666 -7.83301 60.999 -23.5s26 -35.167 26 -58.5c0 -24 -8.16699 -44.333 -24.5 -61s-36.5 -25 -60.5 -25z" />
    <glyph glyph-name="Eth" unicode="&#xd0;" horiz-adv-x="759" 
d="M228 564v-144h198v-102h-198v-174h81c169.333 0 254 72 254 216c0 66 -23 116.5 -69 151.5s-104 52.5 -174 52.5h-92zM72 0l-0.000976562 317.998h-60v102h60v288h234c59.333 0 113.5 -6.5 162.5 -19.5s93 -33.167 132 -60.5s69.5 -64.5 91.5 -111.5
s33 -101.833 33 -164.5c0 -73.333 -18.667 -137.166 -56 -191.499s-85.666 -94.666 -144.999 -120.999s-125 -39.5 -197 -39.5h-255z" />
    <glyph glyph-name="Ntilde" unicode="&#xd1;" horiz-adv-x="815" 
d="M72 0v708h212l301 -492h2v492h156v-708h-204l-309 504h-2v-504h-156zM291 765h-79.001c6 38 20 70.5 42 97.5s50.333 40.5 85 40.5c24 0 53 -7 87 -21c26 -10 44.667 -15 56 -15c18.667 0 33.334 12 44.001 36h78c-16 -92 -59.333 -138 -130 -138c-20 0 -46 7 -78 21
c-29.333 14 -50.333 21 -63 21c-19.333 0 -33.333 -14 -42 -42z" />
    <glyph glyph-name="Ograve" unicode="&#xd2;" horiz-adv-x="832" 
d="M34 354c0 112 35.667 202 107 270s163 102 275 102s203.667 -34 275 -102s107 -158 107 -270s-35.667 -202 -107 -270s-163 -102 -275 -102s-203.667 34 -275 102s-107 158 -107 270zM196 354c0 -66.667 20.167 -121.334 60.5 -164.001s93.5 -64 159.5 -64
s119.167 21.333 159.5 64s60.5 97.334 60.5 164.001s-20.167 121.334 -60.5 164.001s-93.5 64 -159.5 64s-119.167 -21.333 -159.5 -64s-60.5 -97.334 -60.5 -164.001zM417 903l101 -144h-132l-173 144h204z" />
    <glyph glyph-name="Oacute" unicode="&#xd3;" horiz-adv-x="832" 
d="M34 354c0 112 35.667 202 107 270s163 102 275 102s203.667 -34 275 -102s107 -158 107 -270s-35.667 -202 -107 -270s-163 -102 -275 -102s-203.667 34 -275 102s-107 158 -107 270zM196 354c0 -66.667 20.167 -121.334 60.5 -164.001s93.5 -64 159.5 -64
s119.167 21.333 159.5 64s60.5 97.334 60.5 164.001s-20.167 121.334 -60.5 164.001s-93.5 64 -159.5 64s-119.167 -21.333 -159.5 -64s-60.5 -97.334 -60.5 -164.001zM316 759l101 144h204l-173 -144h-132z" />
    <glyph glyph-name="Ocircumflex" unicode="&#xd4;" horiz-adv-x="832" 
d="M34 354c0 112 35.667 202 107 270s163 102 275 102s203.667 -34 275 -102s107 -158 107 -270s-35.667 -202 -107 -270s-163 -102 -275 -102s-203.667 34 -275 102s-107 158 -107 270zM196 354c0 -66.667 20.167 -121.334 60.5 -164.001s93.5 -64 159.5 -64
s119.167 21.333 159.5 64s60.5 97.334 60.5 164.001s-20.167 121.334 -60.5 164.001s-93.5 64 -159.5 64s-119.167 -21.333 -159.5 -64s-60.5 -97.334 -60.5 -164.001zM615 759h-138l-63 78l-62 -78h-135l119 144h163z" />
    <glyph glyph-name="Otilde" unicode="&#xd5;" horiz-adv-x="832" 
d="M34 354c0 112 35.667 202 107 270s163 102 275 102s203.667 -34 275 -102s107 -158 107 -270s-35.667 -202 -107 -270s-163 -102 -275 -102s-203.667 34 -275 102s-107 158 -107 270zM196 354c0 -66.667 20.167 -121.334 60.5 -164.001s93.5 -64 159.5 -64
s119.167 21.333 159.5 64s60.5 97.334 60.5 164.001s-20.167 121.334 -60.5 164.001s-93.5 64 -159.5 64s-119.167 -21.333 -159.5 -64s-60.5 -97.334 -60.5 -164.001zM299 765h-79.001c6 38 20 70.5 42 97.5s50.333 40.5 85 40.5c24 0 53 -7 87 -21
c26 -10 44.667 -15 56 -15c18.667 0 33.334 12 44.001 36h78c-16 -92 -59.333 -138 -130 -138c-20 0 -46 7 -78 21c-29.333 14 -50.333 21 -63 21c-19.333 0 -33.333 -14 -42 -42z" />
    <glyph glyph-name="Odieresis" unicode="&#xd6;" horiz-adv-x="832" 
d="M34 354c0 112 35.667 202 107 270s163 102 275 102s203.667 -34 275 -102s107 -158 107 -270s-35.667 -202 -107 -270s-163 -102 -275 -102s-203.667 34 -275 102s-107 158 -107 270zM196 354c0 -66.667 20.167 -121.334 60.5 -164.001s93.5 -64 159.5 -64
s119.167 21.333 159.5 64s60.5 97.334 60.5 164.001s-20.167 121.334 -60.5 164.001s-93.5 64 -159.5 64s-119.167 -21.333 -159.5 -64s-60.5 -97.334 -60.5 -164.001zM311 753c-23.333 0 -42.999 8.5 -58.999 25.5s-24 37.167 -24 60.5c0 22 8 41.167 24 57.5
s35 24.5 57 24.5c23.333 0 43.666 -7.83301 60.999 -23.5s26 -35.167 26 -58.5c0 -24 -8.16699 -44.333 -24.5 -61s-36.5 -25 -60.5 -25zM519.001 753c-23.333 0 -42.999 8.5 -58.999 25.5s-24 37.167 -24 60.5c0 22 8 41.167 24 57.5s35 24.5 57 24.5
c23.333 0 43.666 -7.83301 60.999 -23.5s26 -35.167 26 -58.5c0 -24 -8.16699 -44.333 -24.5 -61s-36.5 -25 -60.5 -25z" />
    <glyph glyph-name="multiply" unicode="&#xd7;" horiz-adv-x="666" 
d="M64 475l93 95l177 -175l172 174l89 -86l-173 -180l180 -173l-92 -93l-176 176l-177 -177l-89 86l174 181z" />
    <glyph glyph-name="Oslash" unicode="&#xd8;" horiz-adv-x="832" 
d="M34 -3l93 102c-62 67.333 -93 152.333 -93 255c0 112 35.667 202 107 270s163 102 275 102c87.333 0 163 -21.333 227 -64l92 100l55 -49l-90 -98c65.333 -67.333 98 -154.333 98 -261c0 -112 -35.667 -202 -107 -270s-163 -102 -275 -102c-91.333 0 -169 22.667 -233 68
l-93 -101zM235 217l304 331.001c-35.333 22.667 -76.333 34 -123 34c-66 0 -119.167 -21.333 -159.5 -64s-60.5 -97.334 -60.5 -164.001c0 -52 13 -97.667 39 -137zM592 497.001l-305 -333.002c36 -25.333 79 -38 129 -38c66 0 119.167 21.333 159.5 64
s60.5 97.334 60.5 164.001c0 56.667 -14.667 104.334 -44 143.001z" />
    <glyph glyph-name="Ugrave" unicode="&#xd9;" horiz-adv-x="741" 
d="M669 708v-434.999c0 -86.667 -25.833 -156.834 -77.5 -210.501s-125.167 -80.5 -220.5 -80.5s-169 26.833 -221 80.5s-78 123.834 -78 210.501v435h156v-429c0 -44 13.5 -80.5 40.5 -109.5s61.167 -43.5 102.5 -43.5c40.667 0 74.5 14.667 101.5 44
s40.5 65.666 40.5 108.999v429h156zM372 903.001l101 -144h-132l-173 144h204z" />
    <glyph glyph-name="Uacute" unicode="&#xda;" horiz-adv-x="741" 
d="M669 708v-434.999c0 -86.667 -25.833 -156.834 -77.5 -210.501s-125.167 -80.5 -220.5 -80.5s-169 26.833 -221 80.5s-78 123.834 -78 210.501v435h156v-429c0 -44 13.5 -80.5 40.5 -109.5s61.167 -43.5 102.5 -43.5c40.667 0 74.5 14.667 101.5 44
s40.5 65.666 40.5 108.999v429h156zM271 759.001l101 144h204l-173 -144h-132z" />
    <glyph glyph-name="Ucircumflex" unicode="&#xdb;" horiz-adv-x="741" 
d="M669 708v-434.999c0 -86.667 -25.833 -156.834 -77.5 -210.501s-125.167 -80.5 -220.5 -80.5s-169 26.833 -221 80.5s-78 123.834 -78 210.501v435h156v-429c0 -44 13.5 -80.5 40.5 -109.5s61.167 -43.5 102.5 -43.5c40.667 0 74.5 14.667 101.5 44
s40.5 65.666 40.5 108.999v429h156zM570 759.001h-138l-63 78l-62 -78h-135l119 144h163z" />
    <glyph glyph-name="Udieresis" unicode="&#xdc;" horiz-adv-x="741" 
d="M669 708v-434.999c0 -86.667 -25.833 -156.834 -77.5 -210.501s-125.167 -80.5 -220.5 -80.5s-169 26.833 -221 80.5s-78 123.834 -78 210.501v435h156v-429c0 -44 13.5 -80.5 40.5 -109.5s61.167 -43.5 102.5 -43.5c40.667 0 74.5 14.667 101.5 44
s40.5 65.666 40.5 108.999v429h156zM266 753.001c-23.333 0 -42.999 8.5 -58.999 25.5s-24 37.167 -24 60.5c0 22 8 41.167 24 57.5s35 24.5 57 24.5c23.333 0 43.666 -7.83301 60.999 -23.5s26 -35.167 26 -58.5c0 -24 -8.16699 -44.333 -24.5 -61s-36.5 -25 -60.5 -25z
M474.001 753.001c-23.333 0 -42.999 8.5 -58.999 25.5s-24 37.167 -24 60.5c0 22 8 41.167 24 57.5s35 24.5 57 24.5c23.333 0 43.666 -7.83301 60.999 -23.5s26 -35.167 26 -58.5c0 -24 -8.16699 -44.333 -24.5 -61s-36.5 -25 -60.5 -25z" />
    <glyph glyph-name="Yacute" unicode="&#xdd;" horiz-adv-x="648" 
d="M246 0v302l-266 406h194l150 -265l159 265h185l-266 -406v-302h-156zM224 786l101 144h204l-173 -144h-132z" />
    <glyph glyph-name="Thorn" unicode="&#xde;" horiz-adv-x="630" 
d="M72 0v708h156v-126h107c179.333 0 269 -71.667 269 -215c0 -144.667 -87.333 -217 -262 -217h-114v-150h-156zM228 450v-168h104c73.333 0 110 28.333 110 85c0 55.333 -44.667 83 -134 83h-80z" />
    <glyph glyph-name="germandbls" unicode="&#xdf;" horiz-adv-x="630" 
d="M53 0l0.000976562 512.999c0 170 85.333 255 256 255c62.667 0 116.834 -15.667 162.501 -47s68.5 -76.666 68.5 -135.999c0 -78.667 -34 -132 -102 -160v-2c50.667 -10 89.334 -33.5 116.001 -70.5s40 -82.167 40 -135.5c0 -70 -22.167 -125.667 -66.5 -167
s-101.5 -62 -171.5 -62c-30.667 0 -61.667 4 -93 12v122c17.333 -5.33301 33.666 -8 48.999 -8c39.333 0 72.166 10 98.499 30s39.5 49 39.5 87c0 40.667 -12.5 71.167 -37.5 91.5s-58.167 30.5 -99.5 30.5h-20v126h12c26 0 47.667 6.83301 65 20.5s26 33.167 26 58.5
c0 24 -9 43 -27 57s-39.333 21 -64 21c-30.667 0 -55.334 -8.83301 -74.001 -26.5s-28 -41.5 -28 -71.5v-538h-150z" />
    <glyph glyph-name="agrave" unicode="&#xe0;" horiz-adv-x="537" 
d="M358 0l0.00585938 61.0029h-2c-30.667 -48.667 -82 -73 -154 -73c-48 0 -88.833 13.333 -122.5 40s-50.5 63.334 -50.5 110.001c0 23.333 4.16699 44.166 12.5 62.499s18.5 33.333 30.5 45s28 21.667 48 30s38.5 14.666 55.5 18.999s38.167 7.66602 63.5 9.99902
s45.666 3.66602 60.999 3.99902s34.666 0.5 57.999 0.5c0 26 -9.33301 47 -28 63s-41.334 24 -68.001 24c-46.667 0 -87.334 -19.333 -122.001 -58l-80 82c55.333 52 126.666 78 213.999 78c83.333 0 141.166 -20.333 173.499 -61s48.5 -104 48.5 -190v-247h-138z
M358.006 213.003h-36.999c-98.667 0 -148 -23.333 -148 -70c0 -16.667 7.16699 -29.667 21.5 -39s30.833 -14 49.5 -14c31.333 0 58.166 8 80.499 24s33.5 38.333 33.5 67v32zM270.007 708.003l101 -144h-132l-173 144h204z" />
    <glyph glyph-name="aacute" unicode="&#xe1;" horiz-adv-x="537" 
d="M358 0l0.00585938 61.0029h-2c-30.667 -48.667 -82 -73 -154 -73c-48 0 -88.833 13.333 -122.5 40s-50.5 63.334 -50.5 110.001c0 23.333 4.16699 44.166 12.5 62.499s18.5 33.333 30.5 45s28 21.667 48 30s38.5 14.666 55.5 18.999s38.167 7.66602 63.5 9.99902
s45.666 3.66602 60.999 3.99902s34.666 0.5 57.999 0.5c0 26 -9.33301 47 -28 63s-41.334 24 -68.001 24c-46.667 0 -87.334 -19.333 -122.001 -58l-80 82c55.333 52 126.666 78 213.999 78c83.333 0 141.166 -20.333 173.499 -61s48.5 -104 48.5 -190v-247h-138z
M358.006 213.003h-36.999c-98.667 0 -148 -23.333 -148 -70c0 -16.667 7.16699 -29.667 21.5 -39s30.833 -14 49.5 -14c31.333 0 58.166 8 80.499 24s33.5 38.333 33.5 67v32zM169.007 564.003l101 144h204l-173 -144h-132z" />
    <glyph glyph-name="acircumflex" unicode="&#xe2;" horiz-adv-x="537" 
d="M358 0l0.00585938 61.0029h-2c-30.667 -48.667 -82 -73 -154 -73c-48 0 -88.833 13.333 -122.5 40s-50.5 63.334 -50.5 110.001c0 23.333 4.16699 44.166 12.5 62.499s18.5 33.333 30.5 45s28 21.667 48 30s38.5 14.666 55.5 18.999s38.167 7.66602 63.5 9.99902
s45.666 3.66602 60.999 3.99902s34.666 0.5 57.999 0.5c0 26 -9.33301 47 -28 63s-41.334 24 -68.001 24c-46.667 0 -87.334 -19.333 -122.001 -58l-80 82c55.333 52 126.666 78 213.999 78c83.333 0 141.166 -20.333 173.499 -61s48.5 -104 48.5 -190v-247h-138z
M358.006 213.003h-36.999c-98.667 0 -148 -23.333 -148 -70c0 -16.667 7.16699 -29.667 21.5 -39s30.833 -14 49.5 -14c31.333 0 58.166 8 80.499 24s33.5 38.333 33.5 67v32zM468.007 564.003h-138l-63 78l-62 -78h-135l119 144h163z" />
    <glyph glyph-name="atilde" unicode="&#xe3;" horiz-adv-x="537" 
d="M358 0l0.00585938 61.0029h-2c-30.667 -48.667 -82 -73 -154 -73c-48 0 -88.833 13.333 -122.5 40s-50.5 63.334 -50.5 110.001c0 23.333 4.16699 44.166 12.5 62.499s18.5 33.333 30.5 45s28 21.667 48 30s38.5 14.666 55.5 18.999s38.167 7.66602 63.5 9.99902
s45.666 3.66602 60.999 3.99902s34.666 0.5 57.999 0.5c0 26 -9.33301 47 -28 63s-41.334 24 -68.001 24c-46.667 0 -87.334 -19.333 -122.001 -58l-80 82c55.333 52 126.666 78 213.999 78c83.333 0 141.166 -20.333 173.499 -61s48.5 -104 48.5 -190v-247h-138z
M358.006 213.003h-36.999c-98.667 0 -148 -23.333 -148 -70c0 -16.667 7.16699 -29.667 21.5 -39s30.833 -14 49.5 -14c31.333 0 58.166 8 80.499 24s33.5 38.333 33.5 67v32zM152.007 570.003h-79.001c6 38 20 70.5 42 97.5s50.333 40.5 85 40.5c24 0 53 -7 87 -21
c26 -10 44.667 -15 56 -15c18.667 0 33.334 12 44.001 36h78c-16 -92 -59.333 -138 -130 -138c-20 0 -46 7 -78 21c-29.333 14 -50.333 21 -63 21c-19.333 0 -33.333 -14 -42 -42z" />
    <glyph glyph-name="adieresis" unicode="&#xe4;" horiz-adv-x="537" 
d="M358 0l0.00585938 61.0029h-2c-30.667 -48.667 -82 -73 -154 -73c-48 0 -88.833 13.333 -122.5 40s-50.5 63.334 -50.5 110.001c0 23.333 4.16699 44.166 12.5 62.499s18.5 33.333 30.5 45s28 21.667 48 30s38.5 14.666 55.5 18.999s38.167 7.66602 63.5 9.99902
s45.666 3.66602 60.999 3.99902s34.666 0.5 57.999 0.5c0 26 -9.33301 47 -28 63s-41.334 24 -68.001 24c-46.667 0 -87.334 -19.333 -122.001 -58l-80 82c55.333 52 126.666 78 213.999 78c83.333 0 141.166 -20.333 173.499 -61s48.5 -104 48.5 -190v-247h-138z
M358.006 213.003h-36.999c-98.667 0 -148 -23.333 -148 -70c0 -16.667 7.16699 -29.667 21.5 -39s30.833 -14 49.5 -14c31.333 0 58.166 8 80.499 24s33.5 38.333 33.5 67v32zM164.007 558.003c-23.333 0 -42.999 8.5 -58.999 25.5s-24 37.167 -24 60.5
c0 22 8 41.167 24 57.5s35 24.5 57 24.5c23.333 0 43.666 -7.83301 60.999 -23.5s26 -35.167 26 -58.5c0 -24 -8.16699 -44.333 -24.5 -61s-36.5 -25 -60.5 -25zM372.008 558.003c-23.333 0 -42.999 8.5 -58.999 25.5s-24 37.167 -24 60.5c0 22 8 41.167 24 57.5
s35 24.5 57 24.5c23.333 0 43.666 -7.83301 60.999 -23.5s26 -35.167 26 -58.5c0 -24 -8.16699 -44.333 -24.5 -61s-36.5 -25 -60.5 -25z" />
    <glyph glyph-name="aring" unicode="&#xe5;" horiz-adv-x="537" 
d="M358 0l0.00585938 61.0029h-2c-30.667 -48.667 -82 -73 -154 -73c-48 0 -88.833 13.333 -122.5 40s-50.5 63.334 -50.5 110.001c0 23.333 4.16699 44.166 12.5 62.499s18.5 33.333 30.5 45s28 21.667 48 30s38.5 14.666 55.5 18.999s38.167 7.66602 63.5 9.99902
s45.666 3.66602 60.999 3.99902s34.666 0.5 57.999 0.5c0 26 -9.33301 47 -28 63s-41.334 24 -68.001 24c-46.667 0 -87.334 -19.333 -122.001 -58l-80 82c55.333 52 126.666 78 213.999 78c83.333 0 141.166 -20.333 173.499 -61s48.5 -104 48.5 -190v-247h-138z
M358.006 213.003h-36.999c-98.667 0 -148 -23.333 -148 -70c0 -16.667 7.16699 -29.667 21.5 -39s30.833 -14 49.5 -14c31.333 0 58.166 8 80.499 24s33.5 38.333 33.5 67v32zM269.007 545.003c-30.667 0 -56.834 10.833 -78.501 32.5s-32.5 47.834 -32.5 78.501
s10.833 56.834 32.5 78.501s47.834 32.5 78.501 32.5s56.834 -10.833 78.501 -32.5s32.5 -47.834 32.5 -78.501s-10.833 -56.834 -32.5 -78.501s-47.834 -32.5 -78.501 -32.5zM218.007 656.003c0 -14 5 -26 15 -36s22 -15 36 -15s26 5 36 15s15 22 15 36s-5 26 -15 36
s-22 15 -36 15s-26 -5 -36 -15s-15 -22 -15 -36z" />
    <glyph glyph-name="ae" unicode="&#xe6;" horiz-adv-x="852" 
d="M140 338l-79.998 81.999c55.333 52 126.666 78 213.999 78c65.333 0 118 -19.667 158 -59c40.667 39.333 95 59 163 59c70 0 125.5 -23 166.5 -69s61.5 -108 61.5 -186v-47h-348c6 -28.667 19.167 -51.5 39.5 -68.5s44.833 -25.5 73.5 -25.5
c42.667 0 78.334 19.667 107.001 59l105 -77c-24 -30 -54.333 -53.5 -91 -70.5s-74.667 -25.5 -114 -25.5c-92.667 0 -157.334 26.333 -194.001 79c-38 -52.667 -104.333 -79 -199 -79c-48 0 -88.833 13.333 -122.5 40s-50.5 63.334 -50.5 110.001
c0 24.667 4.66699 46.5 14 65.5s23 34.167 41 45.5s36 20.5 54 27.5s40.333 12 67 15s48.334 4.83301 65.001 5.5s37 1 61 1h18c0 29.333 -7.83301 53 -23.5 71s-36.834 27 -63.501 27c-46.667 0 -87.334 -19.333 -122.001 -58zM173.002 138.999
c0 -32.667 25.667 -49 77 -49c66 0 99 35.333 99 106h-18c-105.333 0 -158 -19 -158 -57zM475.002 297.999h198.001c0.666992 25.333 -7.83301 47 -25.5 65s-39.834 27 -66.501 27c-31.333 0 -56.333 -9 -75 -27s-29 -39.667 -31 -65z" />
    <glyph glyph-name="ccedilla" unicode="&#xe7;" horiz-adv-x="482" 
d="M481 433l-99.002 -103.998c-17.333 24.667 -42 37 -74 37c-37.333 0 -66.666 -11.333 -87.999 -34s-32 -52.334 -32 -89.001s10.667 -66.334 32 -89.001s50.666 -34 87.999 -34c28.667 0 53.334 12.333 74.001 37l99 -104c-42.667 -43.333 -100.334 -65 -173.001 -65
c-4.66699 0 -7.66699 0.333008 -9 1l-33 -49c24 0 44.167 -1.5 60.5 -4.5s31.333 -11 45 -24s20.5 -31.167 20.5 -54.5c0 -32.667 -15 -57 -45 -73s-61.333 -24 -94 -24c-42 0 -83.667 10 -125 30l25 47c30 -11.333 55.667 -17 77 -17c44 0 66 10.667 66 32
c0 10.667 -5.33301 19 -16 25s-22 9 -34 9c-11.333 0 -23.333 -2.66699 -36 -8l-32 29l60 90c-59.333 12.667 -107.5 41 -144.5 85s-55.5 97.667 -55.5 161c0 76 25.833 137.5 77.5 184.5s115.834 70.5 192.501 70.5c72.667 0 130.334 -21.667 173.001 -65z" />
    <glyph glyph-name="egrave" unicode="&#xe8;" horiz-adv-x="574" 
d="M408 161l104.999 -77c-24 -30 -54.333 -53.5 -91 -70.5s-74.667 -25.5 -114 -25.5c-76.667 0 -140.834 23.5 -192.501 70.5s-77.5 108.5 -77.5 184.5s25.833 137.5 77.5 184.5s115.834 70.5 192.501 70.5c70 0 125.5 -23 166.5 -69s61.5 -108 61.5 -186v-47h-348
c6 -28.667 19.167 -51.5 39.5 -68.5s44.833 -25.5 73.5 -25.5c42.667 0 78.334 19.667 107.001 59zM187.999 298h198.001c0.666992 25.333 -7.83301 47 -25.5 65s-39.834 27 -66.501 27c-31.333 0 -56.333 -9 -75 -27s-29 -39.667 -31 -65zM288 708l101 -144h-132l-173 144
h204z" />
    <glyph glyph-name="eacute" unicode="&#xe9;" horiz-adv-x="574" 
d="M408 161l104.999 -77c-24 -30 -54.333 -53.5 -91 -70.5s-74.667 -25.5 -114 -25.5c-76.667 0 -140.834 23.5 -192.501 70.5s-77.5 108.5 -77.5 184.5s25.833 137.5 77.5 184.5s115.834 70.5 192.501 70.5c70 0 125.5 -23 166.5 -69s61.5 -108 61.5 -186v-47h-348
c6 -28.667 19.167 -51.5 39.5 -68.5s44.833 -25.5 73.5 -25.5c42.667 0 78.334 19.667 107.001 59zM187.999 298h198.001c0.666992 25.333 -7.83301 47 -25.5 65s-39.834 27 -66.501 27c-31.333 0 -56.333 -9 -75 -27s-29 -39.667 -31 -65zM187 564l101 144h204l-173 -144
h-132z" />
    <glyph glyph-name="ecircumflex" unicode="&#xea;" horiz-adv-x="574" 
d="M408 161l104.999 -77c-24 -30 -54.333 -53.5 -91 -70.5s-74.667 -25.5 -114 -25.5c-76.667 0 -140.834 23.5 -192.501 70.5s-77.5 108.5 -77.5 184.5s25.833 137.5 77.5 184.5s115.834 70.5 192.501 70.5c70 0 125.5 -23 166.5 -69s61.5 -108 61.5 -186v-47h-348
c6 -28.667 19.167 -51.5 39.5 -68.5s44.833 -25.5 73.5 -25.5c42.667 0 78.334 19.667 107.001 59zM187.999 298h198.001c0.666992 25.333 -7.83301 47 -25.5 65s-39.834 27 -66.501 27c-31.333 0 -56.333 -9 -75 -27s-29 -39.667 -31 -65zM486 564h-138l-63 78l-62 -78
h-135l119 144h163z" />
    <glyph glyph-name="edieresis" unicode="&#xeb;" horiz-adv-x="574" 
d="M408 161l104.999 -77c-24 -30 -54.333 -53.5 -91 -70.5s-74.667 -25.5 -114 -25.5c-76.667 0 -140.834 23.5 -192.501 70.5s-77.5 108.5 -77.5 184.5s25.833 137.5 77.5 184.5s115.834 70.5 192.501 70.5c70 0 125.5 -23 166.5 -69s61.5 -108 61.5 -186v-47h-348
c6 -28.667 19.167 -51.5 39.5 -68.5s44.833 -25.5 73.5 -25.5c42.667 0 78.334 19.667 107.001 59zM187.999 298h198.001c0.666992 25.333 -7.83301 47 -25.5 65s-39.834 27 -66.501 27c-31.333 0 -56.333 -9 -75 -27s-29 -39.667 -31 -65zM182 558
c-23.333 0 -42.999 8.5 -58.999 25.5s-24 37.167 -24 60.5c0 22 8 41.167 24 57.5s35 24.5 57 24.5c23.333 0 43.666 -7.83301 60.999 -23.5s26 -35.167 26 -58.5c0 -24 -8.16699 -44.333 -24.5 -61s-36.5 -25 -60.5 -25zM390.001 558c-23.333 0 -42.999 8.5 -58.999 25.5
s-24 37.167 -24 60.5c0 22 8 41.167 24 57.5s35 24.5 57 24.5c23.333 0 43.666 -7.83301 60.999 -23.5s26 -35.167 26 -58.5c0 -24 -8.16699 -44.333 -24.5 -61s-36.5 -25 -60.5 -25z" />
    <glyph glyph-name="igrave" unicode="&#xec;" 
d="M55 0v486h150v-486h-150zM131 708l101 -144h-132l-173 144h204z" />
    <glyph glyph-name="iacute" unicode="&#xed;" 
d="M55 0v486h150v-486h-150zM30 564l101 144h204l-173 -144h-132z" />
    <glyph glyph-name="icircumflex" unicode="&#xee;" 
d="M55 0v486h150v-486h-150zM329 564h-138l-63 78l-62 -78h-135l119 144h163z" />
    <glyph glyph-name="idieresis" unicode="&#xef;" 
d="M55 0v486h150v-486h-150zM25 558c-23.333 0 -42.999 8.5 -58.999 25.5s-24 37.167 -24 60.5c0 22 8 41.167 24 57.5s35 24.5 57 24.5c23.333 0 43.666 -7.83301 60.999 -23.5s26 -35.167 26 -58.5c0 -24 -8.16699 -44.333 -24.5 -61s-36.5 -25 -60.5 -25zM233.001 558
c-23.333 0 -42.999 8.5 -58.999 25.5s-24 37.167 -24 60.5c0 22 8 41.167 24 57.5s35 24.5 57 24.5c23.333 0 43.666 -7.83301 60.999 -23.5s26 -35.167 26 -58.5c0 -24 -8.16699 -44.333 -24.5 -61s-36.5 -25 -60.5 -25z" />
    <glyph glyph-name="eth" unicode="&#xf0;" horiz-adv-x="610" 
d="M449 777l77.001 -67.002l-123 -51c22.667 -24 41.167 -45 55.5 -63s31.833 -43.333 52.5 -76s36.5 -69 47.5 -109s16.5 -82.333 16.5 -127c0 -92 -23.5 -164.5 -70.5 -217.5s-113.5 -79.167 -199.5 -78.5c-76.667 0 -140.834 23.5 -192.501 70.5s-77.5 108.5 -77.5 184.5
c0 74.667 25.167 135.834 75.5 183.501s107.833 71.5 172.5 71.5c44 0 76.667 -8.66699 98 -26l2 2c-38.667 54.667 -75.667 97.667 -111 129l-106 -45l-72 68l108 46c-19.333 20.667 -42.333 40.334 -69 59.001l122 70c27.333 -21.333 54 -45.333 80 -72zM185.001 242.998
c0 -36.667 10.667 -66.334 32 -89.001s50.666 -34 87.999 -34s66.666 11.333 87.999 34s32 52.334 32 89.001s-10.667 66.334 -32 89.001s-50.666 34 -87.999 34s-66.666 -11.333 -87.999 -34s-32 -52.334 -32 -89.001z" />
    <glyph glyph-name="ntilde" unicode="&#xf1;" horiz-adv-x="574" 
d="M53 0l-0.00195312 486.002h144v-66h2c11.333 21.333 29.333 39.666 54 54.999s54 23 88 23c70 0 117.5 -19.833 142.5 -59.5s37.5 -96.5 37.5 -170.5v-268h-150v238c0 14.667 -0.166992 26.5 -0.5 35.5s-1.83301 20.167 -4.5 33.5s-6.66699 23.666 -12 30.999
s-13.166 13.833 -23.499 19.5s-22.833 8.5 -37.5 8.5c-35.333 0 -59.166 -11.167 -71.499 -33.5s-18.5 -52.5 -18.5 -90.5v-242h-150zM169.998 570.002h-79.001c6 38 20 70.5 42 97.5s50.333 40.5 85 40.5c24 0 53 -7 87 -21c26 -10 44.667 -15 56 -15
c18.667 0 33.334 12 44.001 36h78c-16 -92 -59.333 -138 -130 -138c-20 0 -46 7 -78 21c-29.333 14 -50.333 21 -63 21c-19.333 0 -33.333 -14 -42 -42z" />
    <glyph glyph-name="ograve" unicode="&#xf2;" horiz-adv-x="610" 
d="M35 243c0 76 25.833 137.5 77.5 184.5s115.834 70.5 192.501 70.5s140.834 -23.5 192.501 -70.5s77.5 -108.5 77.5 -184.5s-25.833 -137.5 -77.5 -184.5s-115.834 -70.5 -192.501 -70.5s-140.834 23.5 -192.501 70.5s-77.5 108.5 -77.5 184.5zM185 243
c0 -36.667 10.667 -66.334 32 -89.001s50.666 -34 87.999 -34s66.666 11.333 87.999 34s32 52.334 32 89.001s-10.667 66.334 -32 89.001s-50.666 34 -87.999 34s-66.666 -11.333 -87.999 -34s-32 -52.334 -32 -89.001zM306 708l101 -144h-132l-173 144h204z" />
    <glyph glyph-name="oacute" unicode="&#xf3;" horiz-adv-x="610" 
d="M35 243c0 76 25.833 137.5 77.5 184.5s115.834 70.5 192.501 70.5s140.834 -23.5 192.501 -70.5s77.5 -108.5 77.5 -184.5s-25.833 -137.5 -77.5 -184.5s-115.834 -70.5 -192.501 -70.5s-140.834 23.5 -192.501 70.5s-77.5 108.5 -77.5 184.5zM185 243
c0 -36.667 10.667 -66.334 32 -89.001s50.666 -34 87.999 -34s66.666 11.333 87.999 34s32 52.334 32 89.001s-10.667 66.334 -32 89.001s-50.666 34 -87.999 34s-66.666 -11.333 -87.999 -34s-32 -52.334 -32 -89.001zM205 564l101 144h204l-173 -144h-132z" />
    <glyph glyph-name="ocircumflex" unicode="&#xf4;" horiz-adv-x="610" 
d="M35 243c0 76 25.833 137.5 77.5 184.5s115.834 70.5 192.501 70.5s140.834 -23.5 192.501 -70.5s77.5 -108.5 77.5 -184.5s-25.833 -137.5 -77.5 -184.5s-115.834 -70.5 -192.501 -70.5s-140.834 23.5 -192.501 70.5s-77.5 108.5 -77.5 184.5zM185 243
c0 -36.667 10.667 -66.334 32 -89.001s50.666 -34 87.999 -34s66.666 11.333 87.999 34s32 52.334 32 89.001s-10.667 66.334 -32 89.001s-50.666 34 -87.999 34s-66.666 -11.333 -87.999 -34s-32 -52.334 -32 -89.001zM504 564h-138l-63 78l-62 -78h-135l119 144h163z" />
    <glyph glyph-name="otilde" unicode="&#xf5;" horiz-adv-x="610" 
d="M35 243c0 76 25.833 137.5 77.5 184.5s115.834 70.5 192.501 70.5s140.834 -23.5 192.501 -70.5s77.5 -108.5 77.5 -184.5s-25.833 -137.5 -77.5 -184.5s-115.834 -70.5 -192.501 -70.5s-140.834 23.5 -192.501 70.5s-77.5 108.5 -77.5 184.5zM185 243
c0 -36.667 10.667 -66.334 32 -89.001s50.666 -34 87.999 -34s66.666 11.333 87.999 34s32 52.334 32 89.001s-10.667 66.334 -32 89.001s-50.666 34 -87.999 34s-66.666 -11.333 -87.999 -34s-32 -52.334 -32 -89.001zM188 570h-79.001c6 38 20 70.5 42 97.5
s50.333 40.5 85 40.5c24 0 53 -7 87 -21c26 -10 44.667 -15 56 -15c18.667 0 33.334 12 44.001 36h78c-16 -92 -59.333 -138 -130 -138c-20 0 -46 7 -78 21c-29.333 14 -50.333 21 -63 21c-19.333 0 -33.333 -14 -42 -42z" />
    <glyph glyph-name="odieresis" unicode="&#xf6;" horiz-adv-x="610" 
d="M35 243c0 76 25.833 137.5 77.5 184.5s115.834 70.5 192.501 70.5s140.834 -23.5 192.501 -70.5s77.5 -108.5 77.5 -184.5s-25.833 -137.5 -77.5 -184.5s-115.834 -70.5 -192.501 -70.5s-140.834 23.5 -192.501 70.5s-77.5 108.5 -77.5 184.5zM185 243
c0 -36.667 10.667 -66.334 32 -89.001s50.666 -34 87.999 -34s66.666 11.333 87.999 34s32 52.334 32 89.001s-10.667 66.334 -32 89.001s-50.666 34 -87.999 34s-66.666 -11.333 -87.999 -34s-32 -52.334 -32 -89.001zM200 558c-23.333 0 -42.999 8.5 -58.999 25.5
s-24 37.167 -24 60.5c0 22 8 41.167 24 57.5s35 24.5 57 24.5c23.333 0 43.666 -7.83301 60.999 -23.5s26 -35.167 26 -58.5c0 -24 -8.16699 -44.333 -24.5 -61s-36.5 -25 -60.5 -25zM408.001 558c-23.333 0 -42.999 8.5 -58.999 25.5s-24 37.167 -24 60.5
c0 22 8 41.167 24 57.5s35 24.5 57 24.5c23.333 0 43.666 -7.83301 60.999 -23.5s26 -35.167 26 -58.5c0 -24 -8.16699 -44.333 -24.5 -61s-36.5 -25 -60.5 -25z" />
    <glyph glyph-name="divide" unicode="&#xf7;" horiz-adv-x="666" 
d="M59 240v126h548v-126h-548zM247 114c0 23.333 8.5 43.5 25.5 60.5s37.167 25.5 60.5 25.5s43.5 -8.5 60.5 -25.5s25.5 -37.167 25.5 -60.5s-8.5 -43.5 -25.5 -60.5s-37.167 -25.5 -60.5 -25.5s-43.5 8.5 -60.5 25.5s-25.5 37.167 -25.5 60.5zM247 492
c0 23.333 8.5 43.5 25.5 60.5s37.167 25.5 60.5 25.5s43.5 -8.5 60.5 -25.5s25.5 -37.167 25.5 -60.5s-8.5 -43.5 -25.5 -60.5s-37.167 -25.5 -60.5 -25.5s-43.5 8.5 -60.5 25.5s-25.5 37.167 -25.5 60.5z" />
    <glyph glyph-name="oslash" unicode="&#xf8;" horiz-adv-x="610" 
d="M26 6l70 69.999c-40.667 44.667 -61 100.334 -61 167.001c0 76 25.833 137.5 77.5 184.5s115.834 70.5 192.501 70.5c62.667 0 117.667 -16.333 165 -49l67 67l47 -45l-66 -66c38 -44.667 57 -98.667 57 -162c0 -76 -25.833 -137.5 -77.5 -184.5
s-115.834 -70.5 -192.501 -70.5c-60 0 -113 15.333 -159 46l-73 -73zM200 179.999l169.999 170.001c-18 10.667 -39.667 16 -65 16c-37.333 0 -66.666 -11.333 -87.999 -34s-32 -52.334 -32 -89.001c0 -24 5 -45 15 -63zM412.999 300l-166.999 -166.001
c17.333 -9.33301 37 -14 59 -14c37.333 0 66.666 11.333 87.999 34s32 52.334 32 89.001c0 20.667 -4 39.667 -12 57z" />
    <glyph glyph-name="ugrave" unicode="&#xf9;" horiz-adv-x="574" 
d="M521 486l0.00195312 -486.002h-144v66h-2c-11.333 -21.333 -29.333 -39.666 -54 -54.999s-54 -23 -88 -23c-70 0 -117.5 19.833 -142.5 59.5s-37.5 96.5 -37.5 170.5v268h150v-238c0 -14.667 0.166992 -26.5 0.5 -35.5s1.83301 -20.167 4.5 -33.5
s6.66699 -23.666 12 -30.999s13.166 -13.833 23.499 -19.5s22.833 -8.5 37.5 -8.5c35.333 0 59.166 11.167 71.499 33.5s18.5 52.5 18.5 90.5v242h150zM288.002 707.998l101 -144h-132l-173 144h204z" />
    <glyph glyph-name="uacute" unicode="&#xfa;" horiz-adv-x="574" 
d="M521 486l0.00195312 -486.002h-144v66h-2c-11.333 -21.333 -29.333 -39.666 -54 -54.999s-54 -23 -88 -23c-70 0 -117.5 19.833 -142.5 59.5s-37.5 96.5 -37.5 170.5v268h150v-238c0 -14.667 0.166992 -26.5 0.5 -35.5s1.83301 -20.167 4.5 -33.5
s6.66699 -23.666 12 -30.999s13.166 -13.833 23.499 -19.5s22.833 -8.5 37.5 -8.5c35.333 0 59.166 11.167 71.499 33.5s18.5 52.5 18.5 90.5v242h150zM187.002 563.998l101 144h204l-173 -144h-132z" />
    <glyph glyph-name="ucircumflex" unicode="&#xfb;" horiz-adv-x="574" 
d="M521 486l0.00195312 -486.002h-144v66h-2c-11.333 -21.333 -29.333 -39.666 -54 -54.999s-54 -23 -88 -23c-70 0 -117.5 19.833 -142.5 59.5s-37.5 96.5 -37.5 170.5v268h150v-238c0 -14.667 0.166992 -26.5 0.5 -35.5s1.83301 -20.167 4.5 -33.5
s6.66699 -23.666 12 -30.999s13.166 -13.833 23.499 -19.5s22.833 -8.5 37.5 -8.5c35.333 0 59.166 11.167 71.499 33.5s18.5 52.5 18.5 90.5v242h150zM486.002 563.998h-138l-63 78l-62 -78h-135l119 144h163z" />
    <glyph glyph-name="udieresis" unicode="&#xfc;" horiz-adv-x="574" 
d="M521 486l0.00195312 -486.002h-144v66h-2c-11.333 -21.333 -29.333 -39.666 -54 -54.999s-54 -23 -88 -23c-70 0 -117.5 19.833 -142.5 59.5s-37.5 96.5 -37.5 170.5v268h150v-238c0 -14.667 0.166992 -26.5 0.5 -35.5s1.83301 -20.167 4.5 -33.5
s6.66699 -23.666 12 -30.999s13.166 -13.833 23.499 -19.5s22.833 -8.5 37.5 -8.5c35.333 0 59.166 11.167 71.499 33.5s18.5 52.5 18.5 90.5v242h150zM182.002 557.998c-23.333 0 -42.999 8.5 -58.999 25.5s-24 37.167 -24 60.5c0 22 8 41.167 24 57.5s35 24.5 57 24.5
c23.333 0 43.666 -7.83301 60.999 -23.5s26 -35.167 26 -58.5c0 -24 -8.16699 -44.333 -24.5 -61s-36.5 -25 -60.5 -25zM390.003 557.998c-23.333 0 -42.999 8.5 -58.999 25.5s-24 37.167 -24 60.5c0 22 8 41.167 24 57.5s35 24.5 57 24.5
c23.333 0 43.666 -7.83301 60.999 -23.5s26 -35.167 26 -58.5c0 -24 -8.16699 -44.333 -24.5 -61s-36.5 -25 -60.5 -25z" />
    <glyph glyph-name="yacute" unicode="&#xfd;" horiz-adv-x="556" 
d="M553 486l-219.999 -565.001c-10 -26 -17.833 -45.167 -23.5 -57.5s-14 -26.666 -25 -42.999s-22.667 -27.833 -35 -34.5s-28.833 -12.667 -49.5 -18s-45 -8 -73 -8c-38.667 0 -76 6 -112 18l20 123c23.333 -10 46.666 -15 69.999 -15c22 0 39.5 3.66699 52.5 11
s22 15.5 27 24.5s11.833 24.5 20.5 46.5l11 28l-213 490h162l125 -321h2l107 321h154zM178.001 563.999l101 144h204l-173 -144h-132z" />
    <glyph glyph-name="thorn" unicode="&#xfe;" horiz-adv-x="630" 
d="M67 -228l0.000976562 984h150v-322h2c11.333 19.333 30 34.833 56 46.5s53 17.5 81 17.5c71.333 0 129 -23.333 173 -70s66 -107 66 -181c0 -70.667 -20.333 -131.5 -61 -182.5s-94.334 -76.5 -161.001 -76.5c-72 0 -123.333 21.333 -154 64h-2v-280h-150zM205.001 243
c0 -36.667 10.667 -66.334 32 -89.001s50.666 -34 87.999 -34s66.666 11.333 87.999 34s32 52.334 32 89.001s-10.667 66.334 -32 89.001s-50.666 34 -87.999 34s-66.666 -11.333 -87.999 -34s-32 -52.334 -32 -89.001z" />
    <glyph glyph-name="ydieresis" unicode="&#xff;" horiz-adv-x="556" 
d="M553 486l-219.999 -565.001c-10 -26 -17.833 -45.167 -23.5 -57.5s-14 -26.666 -25 -42.999s-22.667 -27.833 -35 -34.5s-28.833 -12.667 -49.5 -18s-45 -8 -73 -8c-38.667 0 -76 6 -112 18l20 123c23.333 -10 46.666 -15 69.999 -15c22 0 39.5 3.66699 52.5 11
s22 15.5 27 24.5s11.833 24.5 20.5 46.5l11 28l-213 490h162l125 -321h2l107 321h154zM173.001 557.999c-23.333 0 -42.999 8.5 -58.999 25.5s-24 37.167 -24 60.5c0 22 8 41.167 24 57.5s35 24.5 57 24.5c23.333 0 43.666 -7.83301 60.999 -23.5s26 -35.167 26 -58.5
c0 -24 -8.16699 -44.333 -24.5 -61s-36.5 -25 -60.5 -25zM381.002 557.999c-23.333 0 -42.999 8.5 -58.999 25.5s-24 37.167 -24 60.5c0 22 8 41.167 24 57.5s35 24.5 57 24.5c23.333 0 43.666 -7.83301 60.999 -23.5s26 -35.167 26 -58.5c0 -24 -8.16699 -44.333 -24.5 -61
s-36.5 -25 -60.5 -25z" />
    <glyph glyph-name="dotlessi" unicode="&#x131;" 
d="M55 0v486h150v-486h-150z" />
    <glyph glyph-name="Lslash" unicode="&#x141;" horiz-adv-x="537" 
d="M78 0v160l-60 -52v132l60 52v416h156v-281l210 185v-130l-210 -184v-154h289v-144h-445z" />
    <glyph glyph-name="lslash" unicode="&#x142;" 
d="M55 0v248l-60 -61v129l60 61v379h150v-229l60 61v-129l-60 -61v-398h-150z" />
    <glyph glyph-name="OE" unicode="&#x152;" horiz-adv-x="1018" 
d="M665 564v-132h264v-144h-264v-144h300v-144h-531c-49.333 0 -97 7 -143 21s-88.5 34.833 -127.5 62.5s-70.333 64.834 -94 111.501s-35.5 99.667 -35.5 159c0 111.333 36.833 198.166 110.5 260.499s167.5 93.5 281.5 93.5h527v-144h-288zM509 144v420h-51
c-79.333 0 -142.833 -18 -190.5 -54s-71.5 -88 -71.5 -156s23.833 -120 71.5 -156s111.167 -54 190.5 -54h51z" />
    <glyph glyph-name="oe" unicode="&#x153;" horiz-adv-x="944" 
d="M778 161l104.999 -77c-24 -30 -54.333 -53.5 -91 -70.5s-74.667 -25.5 -114 -25.5c-84.667 0 -148 23 -190 69c-44 -46 -104.667 -69 -182 -69s-141.833 23.5 -193.5 70.5s-77.5 108.5 -77.5 184.5s25.833 137.5 77.5 184.5s116.167 70.5 193.5 70.5
c73.333 0 134 -24.333 182 -73c46.667 48.667 110 73 190 73c70 0 125.5 -23 166.5 -69s61.5 -108 61.5 -186v-47h-348c6 -28.667 19.167 -51.5 39.5 -68.5s44.833 -25.5 73.5 -25.5c42.667 0 78.334 19.667 107.001 59zM305.999 366
c-37.333 0 -66.833 -11.1709 -88.5 -33.5039s-32.5 -52.166 -32.5 -89.499s10.833 -67.166 32.5 -89.499s51.167 -33.5 88.5 -33.5s66.666 11.333 87.999 34s32 52.334 32 89.001s-10.667 66.334 -32 89.001s-50.666 34 -87.999 34zM557.999 297.996h198.001
c0.666992 25.333 -7.83301 47 -25.5 65s-39.834 27 -66.501 27c-31.333 0 -56.333 -9 -75 -27s-29 -39.667 -31 -65z" />
    <glyph glyph-name="Scaron" unicode="&#x160;" horiz-adv-x="574" 
d="M529 652l-106.997 -117.002c-12 15.333 -28.667 27 -50 35s-42.333 12 -63 12c-26 0 -50 -6.16699 -72 -18.5s-33 -30.5 -33 -54.5c0 -17.333 6 -31.833 18 -43.5s27.5 -21 46.5 -28s40.167 -13.667 63.5 -20s46.666 -14.166 69.999 -23.499s44.5 -20.833 63.5 -34.5
s34.5 -32.834 46.5 -57.501s18 -53.667 18 -87c0 -75.333 -26 -133 -78 -173s-117 -60 -195 -60c-94.667 0 -174 29.667 -238 89l111 122c16 -20.667 36.167 -37 60.5 -49s49.5 -18 75.5 -18c28 0 53 6.5 75 19.5s33 31.167 33 54.5c0 20 -8.16699 37 -24.5 51
s-36.833 24.333 -61.5 31s-51.334 15.334 -80.001 26.001s-55.334 22.334 -80.001 35.001s-45.167 32.167 -61.5 58.5s-24.5 57.833 -24.5 94.5c0 72 26.5 128.333 79.5 169s116.5 61 190.5 61c88.667 0 161 -24.667 217 -74zM84.0029 929.998h138l63 -78l62 78h135
l-119 -144h-163z" />
    <glyph glyph-name="scaron" unicode="&#x161;" horiz-adv-x="463" 
d="M420 434l-92 -91.001c-22 27.333 -51 41 -87 41c-14.667 0 -27.5 -3.33301 -38.5 -10s-16.5 -16.667 -16.5 -30c0 -10.667 6.16699 -19.5 18.5 -26.5s28 -12 47 -15s39.333 -7.66699 61 -14s42 -14 61 -23s34.667 -23.667 47 -44s18.5 -44.833 18.5 -73.5
c0 -29.333 -6.66699 -55 -20 -77s-31.166 -38.667 -53.499 -50s-46 -19.666 -71 -24.999s-51.5 -8 -79.5 -8c-84 0 -147.667 22 -191 66l91 101c29.333 -35.333 64.666 -53 105.999 -53c45.333 0 68 11.667 68 35c0 14 -8.66699 24.667 -26 32s-38.333 13.5 -63 18.5
s-49.5 11.5 -74.5 19.5s-46.167 22.667 -63.5 44s-26 49 -26 83c0 53.333 20 94 60 122s88 42 144 42c80 0 140 -21.333 180 -64zM29 707.999h138l63 -78l62 78h135l-119 -144h-163z" />
    <glyph glyph-name="Ydieresis" unicode="&#x178;" horiz-adv-x="648" 
d="M246 0v302l-266 406h194l150 -265l159 265h185l-266 -406v-302h-156zM219 780c-23.333 0 -42.999 8.5 -58.999 25.5s-24 37.167 -24 60.5c0 22 8 41.167 24 57.5s35 24.5 57 24.5c23.333 0 43.666 -7.83301 60.999 -23.5s26 -35.167 26 -58.5
c0 -24 -8.16699 -44.333 -24.5 -61s-36.5 -25 -60.5 -25zM427.001 780c-23.333 0 -42.999 8.5 -58.999 25.5s-24 37.167 -24 60.5c0 22 8 41.167 24 57.5s35 24.5 57 24.5c23.333 0 43.666 -7.83301 60.999 -23.5s26 -35.167 26 -58.5c0 -24 -8.16699 -44.333 -24.5 -61
s-36.5 -25 -60.5 -25z" />
    <glyph glyph-name="Zcaron" unicode="&#x17d;" horiz-adv-x="630" 
d="M35 0v144l359 426h-346v138h535v-138l-352 -426h364v-144h-560zM112 930h138l63 -78l62 78h135l-119 -144h-163z" />
    <glyph glyph-name="zcaron" unicode="&#x17e;" horiz-adv-x="500" 
d="M34 0v150l252 216h-246v120h420v-144l-264 -222h270v-120h-432zM47 708h138l63 -78l62 78h135l-119 -144h-163z" />
    <glyph glyph-name="florin" unicode="&#x192;" horiz-adv-x="592" 
d="M496 434l-0.000976562 -102h-146l-58 -292c-12 -58 -33.667 -102.333 -65 -133s-76.666 -46 -135.999 -46c-38 0 -75 8 -111 24l52 119c12.667 -7.33301 28 -11 46 -11c20.667 0 36.5 7.16699 47.5 21.5s20.167 38.833 27.5 73.5l50 244h-114v102h134l18 91
c14.667 74 36 125 64 153s72.667 42 134 42c44 0 87.333 -10 130 -30l-53 -113c-16.667 7.33301 -34 11 -52 11c-23.333 0 -40.833 -6.33301 -52.5 -19s-20.5 -34 -26.5 -64l-15 -71h126z" />
    <glyph glyph-name="circumflex" unicode="&#x2c6;" 
d="M329 564h-138l-63 78l-62 -78h-135l119 144h163z" />
    <glyph glyph-name="caron" unicode="&#x2c7;" 
d="M-73 708h138l63 -78l62 78h135l-119 -144h-163z" />
    <glyph glyph-name="uni02C9" unicode="&#x2c9;" 
d="M300 687v-96h-340v96h340z" />
    <glyph glyph-name="breve" unicode="&#x2d8;" 
d="M-54 708l79.999 0.00195312c7.33301 -32 42 -48 104 -48c30.667 0 54.167 3 70.5 9s27.833 19 34.5 39h79c-5.33301 -48.667 -24.666 -84.834 -57.999 -108.501s-75.333 -35.5 -126 -35.5c-52 0 -95 11.667 -129 35s-52.333 59.666 -55 108.999z" />
    <glyph glyph-name="dotaccent" unicode="&#x2d9;" 
d="M129 558c-23.333 0 -42.999 8.5 -58.999 25.5s-24 37.167 -24 60.5c0 22 8 41.167 24 57.5s35 24.5 57 24.5c23.333 0 43.666 -7.83301 60.999 -23.5s26 -35.167 26 -58.5c0 -24 -8.16699 -44.333 -24.5 -61s-36.5 -25 -60.5 -25z" />
    <glyph glyph-name="ring" unicode="&#x2da;" 
d="M130 545c-30.667 0 -56.834 10.833 -78.501 32.5s-32.5 47.834 -32.5 78.501s10.833 56.834 32.5 78.501s47.834 32.5 78.501 32.5s56.834 -10.833 78.501 -32.5s32.5 -47.834 32.5 -78.501s-10.833 -56.834 -32.5 -78.501s-47.834 -32.5 -78.501 -32.5zM79 656
c0 -14 5 -26 15 -36s22 -15 36 -15s26 5 36 15s15 22 15 36s-5 26 -15 36s-22 15 -36 15s-26 -5 -36 -15s-15 -22 -15 -36z" />
    <glyph glyph-name="ogonek" unicode="&#x2db;" 
d="M177 -145l28.001 -53.002c-36.667 -28 -73 -42 -109 -42c-28.667 0 -53.334 8.33301 -74.001 25s-31 39.334 -31 68.001c0 26 10.833 53.833 32.5 83.5s45.834 54.834 72.501 75.501h68c-20 -16.667 -38.833 -38 -56.5 -64s-26.5 -49.333 -26.5 -70
c0 -11.333 4.16699 -21.833 12.5 -31.5s18.166 -14.5 29.499 -14.5c18 0 36 7.66699 54 23z" />
    <glyph glyph-name="tilde" unicode="&#x2dc;" 
d="M13 570h-79.001c6 38 20 70.5 42 97.5s50.333 40.5 85 40.5c24 0 53 -7 87 -21c26 -10 44.667 -15 56 -15c18.667 0 33.334 12 44.001 36h78c-16 -92 -59.333 -138 -130 -138c-20 0 -46 7 -78 21c-29.333 14 -50.333 21 -63 21c-19.333 0 -33.333 -14 -42 -42z" />
    <glyph glyph-name="hungarumlaut" unicode="&#x2dd;" 
d="M-102 564l101 144h204l-173 -144h-132zM162 564l101 144h204l-173 -144h-132z" />
    <glyph glyph-name="uni03A9" unicode="&#x3a9;" horiz-adv-x="751" 
d="M182 109l-0.00195312 3.00195c-85.333 76 -128 169.333 -128 280c0 90 30.333 166.5 91 229.5s138.334 94.5 233.001 94.5c96.667 0 173.834 -32.5 231.501 -97.5s86.5 -138.5 86.5 -220.5c0 -60.667 -12.5 -115.5 -37.5 -164.5s-56.167 -89.5 -93.5 -121.5v-3h145v-109
h-283v81c86 54 129 150 129 288c0 65.333 -16 121 -48 167s-75.667 69 -131 69c-54.667 0 -98.834 -22.667 -132.501 -68s-50.5 -103 -50.5 -173c0 -68.667 12.333 -127.834 37 -177.501s55.334 -84.834 92.001 -105.501v-81h-284v109h143z" />
    <glyph glyph-name="uni03BC" unicode="&#x3bc;" horiz-adv-x="574" 
d="M521 486l0.00195312 -486.002h-144v66h-2c-11.333 -21.333 -29.333 -39.666 -54 -54.999s-54 -23 -88 -23c-11.333 0 -21.333 1 -30 3v-219h-150v714h150v-238c0 -14.667 0.166992 -26.5 0.5 -35.5s1.83301 -20.167 4.5 -33.5s6.66699 -23.666 12 -30.999
s13.166 -13.833 23.499 -19.5s22.833 -8.5 37.5 -8.5c35.333 0 59.166 11.167 71.499 33.5s18.5 52.5 18.5 90.5v242h150z" />
    <glyph glyph-name="pi" unicode="&#x3c0;" horiz-adv-x="637" 
d="M612 416h-73.999v-262c0 -65.333 4.66699 -116.666 14 -153.999h-134c-12 19.333 -18 68.333 -18 147v269h-142c-2.66699 -63.333 -10.167 -136.833 -22.5 -220.5s-26.833 -148.834 -43.5 -195.501h-134c16.667 57.333 31.167 127 43.5 209s19.166 151 20.499 207
c-46.667 0 -81 -3.33301 -103 -10l-15 89c28.667 23.333 86.667 35 174 35h444z" />
    <glyph glyph-name="endash" unicode="&#x2013;" horiz-adv-x="500" 
d="M0 189v120h500v-120h-500z" />
    <glyph glyph-name="emdash" unicode="&#x2014;" horiz-adv-x="1000" 
d="M0 189v120h1000v-120h-1000z" />
    <glyph glyph-name="quoteleft" unicode="&#x2018;" horiz-adv-x="296" 
d="M39 426l90 282h128l-74 -282h-144z" />
    <glyph glyph-name="quoteright" unicode="&#x2019;" horiz-adv-x="296" 
d="M257 708l-90 -282h-128l74 282h144z" />
    <glyph glyph-name="quotesinglbase" unicode="&#x201a;" horiz-adv-x="296" 
d="M257 156l-90 -282h-128l74 282h144z" />
    <glyph glyph-name="quotedblleft" unicode="&#x201c;" horiz-adv-x="520" 
d="M44 426l90 282h128l-74 -282h-144zM258 426l90 282h128l-74 -282h-144z" />
    <glyph glyph-name="quotedblright" unicode="&#x201d;" horiz-adv-x="520" 
d="M476 708l-90 -282h-128l74 282h144zM262 708l-90 -282h-128l74 282h144z" />
    <glyph glyph-name="quotedblbase" unicode="&#x201e;" horiz-adv-x="520" 
d="M476 156l-90 -282h-128l74 282h144zM262 156l-90 -282h-128l74 282h144z" />
    <glyph glyph-name="dagger" unicode="&#x2020;" horiz-adv-x="592" 
d="M224 -133v505h-190v126h190v210h138v-210h196v-126h-196v-505h-138z" />
    <glyph glyph-name="daggerdbl" unicode="&#x2021;" horiz-adv-x="592" 
d="M227 -133v180h-193v120h193v241h-193v120h193v180h138v-180h193v-120h-193v-241h193v-120h-193v-180h-138z" />
    <glyph glyph-name="bullet" unicode="&#x2022;" horiz-adv-x="500" 
d="M73 354c0 49.333 17.167 91.166 51.5 125.499s76.166 51.5 125.499 51.5s91.166 -17.167 125.499 -51.5s51.5 -76.166 51.5 -125.499s-17.167 -91.166 -51.5 -125.499s-76.166 -51.5 -125.499 -51.5s-91.166 17.167 -125.499 51.5s-51.5 76.166 -51.5 125.499z" />
    <glyph glyph-name="ellipsis" unicode="&#x2026;" horiz-adv-x="1000" 
d="M75 86c0 25.333 9 47 27 65s39.667 27 65 27s47 -9 65 -27s27 -39.667 27 -65s-9 -47 -27 -65s-39.667 -27 -65 -27s-47 9 -65 27s-27 39.667 -27 65zM408 86c0 25.333 9 47 27 65s39.667 27 65 27s47 -9 65 -27s27 -39.667 27 -65s-9 -47 -27 -65s-39.667 -27 -65 -27
s-47 9 -65 27s-27 39.667 -27 65zM741 86c0 25.333 9 47 27 65s39.667 27 65 27s47 -9 65 -27s27 -39.667 27 -65s-9 -47 -27 -65s-39.667 -27 -65 -27s-47 9 -65 27s-27 39.667 -27 65z" />
    <glyph glyph-name="perthousand" unicode="&#x2030;" horiz-adv-x="1167" 
d="M395 165c0 48.667 17.167 90.167 51.5 124.5s75.833 51.5 124.5 51.5s90.167 -17.167 124.5 -51.5s51.5 -75.833 51.5 -124.5s-17.167 -90.334 -51.5 -125.001s-75.833 -52 -124.5 -52s-90.167 17.333 -124.5 52s-51.5 76.334 -51.5 125.001zM491 165
c0 -22 7.83301 -41 23.5 -57s34.5 -24 56.5 -24s40.833 8 56.5 24s23.5 35 23.5 57s-7.83301 40.833 -23.5 56.5s-34.5 23.5 -56.5 23.5s-40.833 -7.83301 -56.5 -23.5s-23.5 -34.5 -23.5 -56.5zM782 165c0 48.667 17.167 90.167 51.5 124.5s75.833 51.5 124.5 51.5
s90.334 -17.167 125.001 -51.5s52 -75.833 52 -124.5s-17.333 -90.334 -52 -125.001s-76.334 -52 -125.001 -52s-90.167 17.333 -124.5 52s-51.5 76.334 -51.5 125.001zM878 165c0 -22 7.83301 -41 23.5 -57s34.5 -24 56.5 -24s41 8 57 24s24 35 24 57s-8 40.833 -24 56.5
s-35 23.5 -57 23.5s-40.833 -7.83301 -56.5 -23.5s-23.5 -34.5 -23.5 -56.5zM32 544c0 48.667 17.167 90.167 51.5 124.5s75.833 51.5 124.5 51.5s90.334 -17.167 125.001 -51.5s52 -75.833 52 -124.5s-17.333 -90.334 -52 -125.001s-76.334 -52 -125.001 -52
s-90.167 17.333 -124.5 52s-51.5 76.334 -51.5 125.001zM128 544c0 -22 7.83301 -41 23.5 -57s34.5 -24 56.5 -24s41 8 57 24s24 35 24 57s-8 40.833 -24 56.5s-35 23.5 -57 23.5s-40.833 -7.83301 -56.5 -23.5s-23.5 -34.5 -23.5 -56.5zM147 11l405 729l84 -47l-413 -725z
" />
    <glyph glyph-name="guilsinglleft" unicode="&#x2039;" horiz-adv-x="296" 
d="M268 422l-116 -173l116 -173l-91 -61l-159 234l159 234z" />
    <glyph glyph-name="guilsinglright" unicode="&#x203a;" horiz-adv-x="296" 
d="M28 76l116 173l-116 173l91 61l159 -234l-159 -234z" />
    <glyph glyph-name="fraction" unicode="&#x2044;" horiz-adv-x="167" 
d="M-161 11l405 729l84 -47l-413 -725z" />
    <glyph glyph-name="Euro" unicode="&#x20ac;" horiz-adv-x="592" 
d="M578 75l-81.999 100.998c-30.667 -38.667 -70.667 -58 -120 -58c-64.667 0 -107.667 34.667 -129 104h160l29 90h-204c-0.666992 4.66699 -1 11.334 -1 20.001v21c0 10 0.666992 25 2 45h226l30 92h-235c27.333 64 77 96 149 96c47.333 0 83.666 -8.33301 108.999 -25
l46 130c-12.667 7.33301 -35.5 14 -68.5 20s-61.833 9 -86.5 9c-80 0 -146.167 -19.5 -198.5 -58.5s-88.5 -96.167 -108.5 -171.5h-52l-31 -92h68c-1.33301 -21.333 -2 -37.666 -2 -48.999v-19c0 -8 0.333008 -14 1 -18h-42l-28 -90h81c32 -156 122.333 -234 271 -234
c44 0 85.5 8 124.5 24s69.5 37 91.5 63z" />
    <glyph glyph-name="afii61289" unicode="&#x2113;" horiz-adv-x="546" 
d="M470 194l55.999 -58.002c-50.667 -96.667 -125 -145 -223 -145c-58 0 -102.333 15 -133 45s-49.667 69.333 -57 118c0 4.66699 -0.333008 8.33398 -1 11.001l-53 -40l-35 71c2 2 14.333 11.833 37 29.5s39.334 31.167 50.001 40.5v248c0 87.333 17.5 152.833 52.5 196.5
s80.833 65.5 137.5 65.5c49.333 0 86.833 -17 112.5 -51s38.5 -77.333 38.5 -130c0 -58 -17.667 -115.167 -53 -171.5s-87.333 -116.166 -156 -179.499l1 -39c0.666992 -32.667 9.5 -58.167 26.5 -76.5s38.5 -27.5 64.5 -27.5c50.667 0 95.667 31 135 93zM242.999 521.998
v-154.999c80 89.333 120 166.333 120 231c0 55.333 -18.667 83 -56 83c-18 0 -33.167 -12.333 -45.5 -37s-18.5 -65.334 -18.5 -122.001z" />
    <glyph glyph-name="trademark" unicode="&#x2122;" horiz-adv-x="1000" 
d="M159 296v316h-119v96h346v-96h-119v-316h-108zM474 296v412h145l98 -268l98 268h145v-412h-108v268h-2l-98 -268h-70l-98 268h-2v-268h-108z" />
    <glyph glyph-name="Omega" unicode="&#x2126;" horiz-adv-x="751" 
d="M182 109l-0.00195312 3.00195c-85.333 76 -128 169.333 -128 280c0 90 30.333 166.5 91 229.5s138.334 94.5 233.001 94.5c96.667 0 173.834 -32.5 231.501 -97.5s86.5 -138.5 86.5 -220.5c0 -60.667 -12.5 -115.5 -37.5 -164.5s-56.167 -89.5 -93.5 -121.5v-3h145v-109
h-283v81c86 54 129 150 129 288c0 65.333 -16 121 -48 167s-75.667 69 -131 69c-54.667 0 -98.834 -22.667 -132.501 -68s-50.5 -103 -50.5 -173c0 -68.667 12.333 -127.834 37 -177.501s55.334 -84.834 92.001 -105.501v-81h-284v109h143z" />
    <glyph glyph-name="estimated" unicode="&#x212e;" horiz-adv-x="883" 
d="M847 344l-657.999 -0.00292969c-3.33301 0 -5 -1.66699 -5 -5v-199c0 -8 2.66699 -15.667 8 -23c70 -72 153 -108 249 -108c51.333 0 99.666 10.833 144.999 32.5s84.333 51.167 117 88.5h59c-37.333 -43.333 -84.333 -77.666 -141 -102.999s-117 -38 -181 -38
c-112 0 -207.667 35.667 -287 107s-119 157.333 -119 258s39.667 186.834 119 258.501s175 107.5 287 107.5c112.667 0 208.667 -35.667 288 -107s119 -157.666 119 -258.999v-10zM698.001 369.997v199.999c0 9.33301 -3.33301 17.333 -10 24
c-70.667 69.333 -153 104 -247 104c-95.333 0 -178 -35.667 -248 -107c-6 -7.33301 -9 -15.666 -9 -24.999v-196c0 -4.66699 1.66699 -7 5 -7h505c2.66699 0 4 2.33301 4 7z" />
    <glyph glyph-name="partialdiff" unicode="&#x2202;" horiz-adv-x="606" 
d="M107 638l-38.999 98.998c53.333 40 118.666 60 195.999 60c83.333 0 153 -34.167 209 -102.5s84 -163.166 84 -284.499c0 -125.333 -26.667 -226.333 -80 -303s-126 -115 -218 -115c-47.333 0 -88.5 13 -123.5 39s-60 56.833 -75 92.5s-22.5 72.167 -22.5 109.5
c0 78.667 21.667 142.334 65 191.001s97.333 73 162 73c38 0 70.5 -9 97.5 -27s46.5 -36.667 58.5 -56h1c0.666992 5.33301 1 16.333 1 33c0 65.333 -16.333 121.5 -49 168.5s-75.334 70.5 -128.001 70.5c-49.333 0 -95.666 -16 -138.999 -48zM272.001 103.998h1
c24 0 46.167 10.5 66.5 31.5s36 46.167 47 75.5s18.5 60.333 22.5 93c-5.33301 19.333 -18.666 38.5 -39.999 57.5s-46.333 28.5 -75 28.5c-34.667 0 -63.334 -15.833 -86.001 -47.5s-34 -69.5 -34 -113.5c0 -35.333 9.16699 -65 27.5 -89s41.833 -36 70.5 -36z" />
    <glyph glyph-name="Delta" unicode="&#x2206;" horiz-adv-x="693" 
d="M27 0v78l240 643h165l233 -642v-79h-638zM170 109h344.998l-112 293c-4.66699 16 -14.5 45.833 -29.5 89.5s-24.5 73.167 -28.5 88.5h-3c-3.33301 -11.333 -11.666 -37 -24.999 -77s-22.666 -68.667 -27.999 -86z" />
    <glyph glyph-name="product" unicode="&#x220f;" horiz-adv-x="759" 
d="M734 583h-108v-680h-135v680h-224v-680h-135v680h-108v122h710v-122z" />
    <glyph glyph-name="summation" unicode="&#x2211;" horiz-adv-x="588" 
d="M569 -97h-546v85l252 316l-242 307v94h519v-115h-334v-4l211 -261l-233 -295v-3h373v-124z" />
    <glyph glyph-name="minus" unicode="&#x2212;" horiz-adv-x="666" 
d="M59 240v126h548v-126h-548z" />
    <glyph glyph-name="uni2215" unicode="&#x2215;" horiz-adv-x="167" 
d="M-161 11l405 729l84 -47l-413 -725z" />
    <glyph glyph-name="uni2219" unicode="&#x2219;" horiz-adv-x="296" 
d="M56 283c0 25.333 9 47 27 65s39.667 27 65 27s47 -9 65 -27s27 -39.667 27 -65s-9 -47 -27 -65s-39.667 -27 -65 -27s-47 9 -65 27s-27 39.667 -27 65z" />
    <glyph glyph-name="radical" unicode="&#x221a;" horiz-adv-x="624" 
d="M635 846l-237 -988h-109l-157 440l-77 -31l-23 74l181 74l109 -322c4.66699 -20.667 11.667 -49.667 21 -87l1 -1c8 46 13.667 77.333 17 94l178 747h96z" />
    <glyph glyph-name="infinity" unicode="&#x221e;" horiz-adv-x="803" 
d="M753 292l0.00390625 -0.994141c0 -54 -16.5 -97.5 -49.5 -130.5s-71.833 -49.5 -116.5 -49.5c-31.333 0 -61.833 8.66699 -91.5 26s-60.834 47.666 -93.501 90.999c-30.667 -38 -60.5 -67 -89.5 -87s-62.5 -30 -100.5 -30c-44 0 -82.167 16.5 -114.5 49.5
s-48.5 74.833 -48.5 125.5c0 51.333 16.333 93.666 49 126.999s73.667 50 123 50c36.667 0 69.5 -9.66699 98.5 -29s57.833 -47.666 86.5 -84.999c1.33301 1.33301 5.66602 6.16602 12.999 14.499s12.166 13.666 14.499 15.999l14.5 15c7.33301 7.66699 12.666 13 15.999 16
s8.83301 7.66699 16.5 14s14.167 10.666 19.5 12.999s12 5.66602 20 9.99902s15.5 7.33301 22.5 9s15 3.16699 24 4.5s17.833 2 26.5 2c46 0 84.167 -15.833 114.5 -47.5s45.5 -72.834 45.5 -123.501zM221.004 185.006h2c17.333 0 35.333 5.66699 54 17s33 22.333 43 33
l42 47c-19.333 26 -33.666 44.667 -42.999 56s-23.333 23 -42 35s-38.334 18 -59.001 18c-28.667 0 -51.5 -9.83301 -68.5 -29.5s-25.5 -45.167 -25.5 -76.5c0 -28 9.33301 -51.667 28 -71s41.667 -29 69 -29zM585.004 391.006l-0.999023 0.000976562
c-8.66699 0 -17 -1 -25 -3s-16.167 -5.66699 -24.5 -11l-21 -13.5c-5.66699 -3.66699 -12.667 -10 -21 -19s-14 -15 -17 -18s-8.83301 -9.83301 -17.5 -20.5s-13.334 -16.334 -14.001 -17.001c32 -40 58 -67.333 78 -82s42.333 -22 67 -22c26.667 0 48.167 10.5 64.5 31.5
s24.5 43.833 24.5 68.5c0 31.333 -8.5 56.833 -25.5 76.5s-39.5 29.5 -67.5 29.5z" />
    <glyph glyph-name="integral" unicode="&#x222b;" horiz-adv-x="410" 
d="M390 861l-14 -92.001c-12 6 -24.667 9 -38 9c-22 0 -39.333 -8.66699 -52 -26c-18.667 -24 -28 -80 -28 -168c0 -53.333 2.66699 -131.5 8 -234.5s8 -185.833 8 -248.5c0 -90 -12.667 -157 -38 -201c-26 -50.667 -71 -76 -135 -76c-32 0 -59.333 5.66699 -82 17l17 95
c18 -7.33301 33 -11 45 -11c20 0 35.333 6.66699 46 20c19.333 25.333 29 77.333 29 156c0 62.667 -2.66699 146.834 -8 252.501s-8 186.834 -8 243.501c0 58.667 4.83301 105.667 14.5 141s25.834 64.666 48.501 87.999c28.667 31.333 69.667 47 123 47
c23.333 0 44.666 -4 63.999 -12z" />
    <glyph glyph-name="approxequal" unicode="&#x2248;" horiz-adv-x="575" 
d="M486 462l48.0029 -46c-38 -70 -85.333 -105 -142 -105c-33.333 0 -72.333 13.667 -117 41c-38 22.667 -68 34 -90 34c-14 0 -27.5 -4.16699 -40.5 -12.5s-23 -16.5 -30 -24.5s-16.167 -20.333 -27.5 -37l-49 45c16 30.667 37.667 55.834 65 75.501
s56.666 29.5 87.999 29.5c6.66699 0 13.334 -0.333008 20.001 -1s13.167 -2 19.5 -4l16 -5c4.33301 -1.33301 9.66602 -3.5 15.999 -6.5s10.666 -5.16699 12.999 -6.5s7 -3.83301 14 -7.5s10.833 -5.83398 11.5 -6.50098c17.333 -10.667 29 -17.667 35 -21
s14.333 -6.83301 25 -10.5s21 -5.5 31 -5.5c18.667 0 35.167 6.16699 49.5 18.5s29.166 30.833 44.499 55.5zM486.003 268l48.001 -45.0029c-38.667 -70.667 -86.334 -106 -143.001 -106c-30 0 -68.667 13.667 -116 41c-1.33301 0.666992 -4.5 2.5 -9.5 5.5
s-8 4.83301 -9 5.5s-3.83301 2.33398 -8.5 5.00098s-7.66699 4.33398 -9 5.00098s-4 1.83398 -8 3.50098s-7 2.83398 -9 3.50098s-4.83301 1.66699 -8.5 3s-6.83398 2.16602 -9.50098 2.49902s-5.66699 0.666016 -9 0.999023s-6.66602 0.5 -9.99902 0.5
c-14.667 0 -28.334 -4.16699 -41.001 -12.5s-22.5 -16.666 -29.5 -24.999s-16.167 -20.833 -27.5 -37.5l-49 46c16 30.667 37.833 55.834 65.5 75.501s56.834 29.5 87.501 29.5c6.66699 0 13.334 -0.333008 20.001 -1s13.167 -2 19.5 -4l16 -5
c4.33301 -1.33301 9.66602 -3.5 15.999 -6.5s10.666 -5.16699 12.999 -6.5s7 -3.83301 14 -7.5s10.833 -5.83398 11.5 -6.50098c4 -2 10 -5.5 18 -10.5s14.167 -8.5 18.5 -10.5l16 -7.5c6.33301 -3 12.5 -5.16699 18.5 -6.5s12.333 -2 19 -2
c19.333 0 35.833 5.83301 49.5 17.5s28.834 30.167 45.501 55.5z" />
    <glyph glyph-name="notequal" unicode="&#x2260;" horiz-adv-x="575" 
d="M424 523l-40 -90h141v-78h-171l-61 -138h232v-77h-263l-52 -118l-61 26l41 92h-140v77h170l61 138h-231v78h261l51 115z" />
    <glyph glyph-name="lessequal" unicode="&#x2264;" horiz-adv-x="575" 
d="M522 102l-467 228v84l467 228v-90l-389 -178v-2l389 -180v-90zM526 -15h-475v79h475v-79z" />
    <glyph glyph-name="greaterequal" unicode="&#x2265;" horiz-adv-x="575" 
d="M56 642l468 -228v-84l-467 -228v90l388 179v3l-389 178v90zM524 -15h-472v79h472v-79z" />
    <glyph glyph-name="lozenge" unicode="&#x25ca;" horiz-adv-x="623" 
d="M572 352l-209 -403h-108l-204 403l208 403h109zM452 349l-118.999 239.999c-8.66699 20 -15.334 39.333 -20.001 58h-3c-6 -20.667 -12.667 -40 -20 -58l-119 -234l120 -244c8 -18.667 14 -37 18 -55h4c7.33301 26.667 13.333 44.334 18 53.001z" />
    <glyph glyph-name=".null" horiz-adv-x="0" 
 />
    <glyph glyph-name="nonmarkingreturn" horiz-adv-x="333" 
 />
    </font>
</defs>
</svg>
